<?xml version="1.0" encoding="utf-8" standalone="no"?>
<!DOCTYPE svg PUBLIC "-//W3C//DTD SVG 1.1//EN"
  "http://www.w3.org/Graphics/SVG/1.1/DTD/svg11.dtd">
<!-- Created with matplotlib (https://matplotlib.org/) -->
<svg height="2880pt" version="1.1" viewBox="0 0 4320 2880" width="4320pt" xmlns="http://www.w3.org/2000/svg" xmlns:xlink="http://www.w3.org/1999/xlink">
 <metadata>
  <rdf:RDF xmlns:cc="http://creativecommons.org/ns#" xmlns:dc="http://purl.org/dc/elements/1.1/" xmlns:rdf="http://www.w3.org/1999/02/22-rdf-syntax-ns#">
   <cc:Work>
    <dc:type rdf:resource="http://purl.org/dc/dcmitype/StillImage"/>
    <dc:date>2022-10-12T00:45:02.629243</dc:date>
    <dc:format>image/svg+xml</dc:format>
    <dc:creator>
     <cc:Agent>
      <dc:title>Matplotlib v3.3.4, https://matplotlib.org/</dc:title>
     </cc:Agent>
    </dc:creator>
   </cc:Work>
  </rdf:RDF>
 </metadata>
 <defs>
  <style type="text/css">*{stroke-linecap:butt;stroke-linejoin:round;}</style>
 </defs>
 <g id="figure_1">
  <g id="patch_1">
   <path d="M 0 2880 
L 4320 2880 
L 4320 0 
L 0 0 
z
" style="fill:#ffffff;"/>
  </g>
  <g id="axes_1">
   <g id="patch_2">
    <path d="M 540 2563.2 
L 3888 2563.2 
L 3888 345.6 
L 540 345.6 
z
" style="fill:#ffffff;"/>
   </g>
   <g id="patch_3">
    <path clip-path="url(#p672c27d952)" d="M 692.181818 2563.2 
L 1561.792208 2563.2 
L 1561.792208 2211.2 
L 692.181818 2211.2 
z
" style="fill:#1f77b4;"/>
   </g>
   <g id="patch_4">
    <path clip-path="url(#p672c27d952)" d="M 1779.194805 2563.2 
L 2648.805195 2563.2 
L 2648.805195 1859.2 
L 1779.194805 1859.2 
z
" style="fill:#1f77b4;"/>
   </g>
   <g id="patch_5">
    <path clip-path="url(#p672c27d952)" d="M 2866.207792 2563.2 
L 3735.818182 2563.2 
L 3735.818182 451.2 
L 2866.207792 451.2 
z
" style="fill:#1f77b4;"/>
   </g>
   <g id="matplotlib.axis_1">
    <g id="xtick_1">
     <g id="line2d_1">
      <defs>
       <path d="M 0 0 
L 0 3.5 
" id="m7b7bd989b2" style="stroke:#000000;stroke-width:0.8;"/>
      </defs>
      <g>
       <use style="stroke:#000000;stroke-width:0.8;" x="1126.987013" xlink:href="#m7b7bd989b2" y="2563.2"/>
      </g>
     </g>
     <g id="text_1">
      <!-- '20-9 -->
      <g transform="translate(1095.182325 2589.196094)scale(0.25 -0.25)">
       <defs>
        <path d="M 17.921875 72.90625 
L 17.921875 45.796875 
L 9.625 45.796875 
L 9.625 72.90625 
z
" id="DejaVuSans-39"/>
        <path d="M 19.1875 8.296875 
L 53.609375 8.296875 
L 53.609375 0 
L 7.328125 0 
L 7.328125 8.296875 
Q 12.9375 14.109375 22.625 23.890625 
Q 32.328125 33.6875 34.8125 36.53125 
Q 39.546875 41.84375 41.421875 45.53125 
Q 43.3125 49.21875 43.3125 52.78125 
Q 43.3125 58.59375 39.234375 62.25 
Q 35.15625 65.921875 28.609375 65.921875 
Q 23.96875 65.921875 18.8125 64.3125 
Q 13.671875 62.703125 7.8125 59.421875 
L 7.8125 69.390625 
Q 13.765625 71.78125 18.9375 73 
Q 24.125 74.21875 28.421875 74.21875 
Q 39.75 74.21875 46.484375 68.546875 
Q 53.21875 62.890625 53.21875 53.421875 
Q 53.21875 48.921875 51.53125 44.890625 
Q 49.859375 40.875 45.40625 35.40625 
Q 44.1875 33.984375 37.640625 27.21875 
Q 31.109375 20.453125 19.1875 8.296875 
z
" id="DejaVuSans-50"/>
        <path d="M 31.78125 66.40625 
Q 24.171875 66.40625 20.328125 58.90625 
Q 16.5 51.421875 16.5 36.375 
Q 16.5 21.390625 20.328125 13.890625 
Q 24.171875 6.390625 31.78125 6.390625 
Q 39.453125 6.390625 43.28125 13.890625 
Q 47.125 21.390625 47.125 36.375 
Q 47.125 51.421875 43.28125 58.90625 
Q 39.453125 66.40625 31.78125 66.40625 
z
M 31.78125 74.21875 
Q 44.046875 74.21875 50.515625 64.515625 
Q 56.984375 54.828125 56.984375 36.375 
Q 56.984375 17.96875 50.515625 8.265625 
Q 44.046875 -1.421875 31.78125 -1.421875 
Q 19.53125 -1.421875 13.0625 8.265625 
Q 6.59375 17.96875 6.59375 36.375 
Q 6.59375 54.828125 13.0625 64.515625 
Q 19.53125 74.21875 31.78125 74.21875 
z
" id="DejaVuSans-48"/>
        <path d="M 4.890625 31.390625 
L 31.203125 31.390625 
L 31.203125 23.390625 
L 4.890625 23.390625 
z
" id="DejaVuSans-45"/>
        <path d="M 10.984375 1.515625 
L 10.984375 10.5 
Q 14.703125 8.734375 18.5 7.8125 
Q 22.3125 6.890625 25.984375 6.890625 
Q 35.75 6.890625 40.890625 13.453125 
Q 46.046875 20.015625 46.78125 33.40625 
Q 43.953125 29.203125 39.59375 26.953125 
Q 35.25 24.703125 29.984375 24.703125 
Q 19.046875 24.703125 12.671875 31.3125 
Q 6.296875 37.9375 6.296875 49.421875 
Q 6.296875 60.640625 12.9375 67.421875 
Q 19.578125 74.21875 30.609375 74.21875 
Q 43.265625 74.21875 49.921875 64.515625 
Q 56.59375 54.828125 56.59375 36.375 
Q 56.59375 19.140625 48.40625 8.859375 
Q 40.234375 -1.421875 26.421875 -1.421875 
Q 22.703125 -1.421875 18.890625 -0.6875 
Q 15.09375 0.046875 10.984375 1.515625 
z
M 30.609375 32.421875 
Q 37.25 32.421875 41.125 36.953125 
Q 45.015625 41.5 45.015625 49.421875 
Q 45.015625 57.28125 41.125 61.84375 
Q 37.25 66.40625 30.609375 66.40625 
Q 23.96875 66.40625 20.09375 61.84375 
Q 16.21875 57.28125 16.21875 49.421875 
Q 16.21875 41.5 20.09375 36.953125 
Q 23.96875 32.421875 30.609375 32.421875 
z
" id="DejaVuSans-57"/>
       </defs>
       <use xlink:href="#DejaVuSans-39"/>
       <use x="27.490234" xlink:href="#DejaVuSans-50"/>
       <use x="91.113281" xlink:href="#DejaVuSans-48"/>
       <use x="154.736328" xlink:href="#DejaVuSans-45"/>
       <use x="190.820312" xlink:href="#DejaVuSans-57"/>
      </g>
     </g>
    </g>
    <g id="xtick_2">
     <g id="line2d_2">
      <g>
       <use style="stroke:#000000;stroke-width:0.8;" x="2214" xlink:href="#m7b7bd989b2" y="2563.2"/>
      </g>
     </g>
     <g id="text_2">
      <!-- '21-9 -->
      <g transform="translate(2182.195312 2589.196094)scale(0.25 -0.25)">
       <defs>
        <path d="M 12.40625 8.296875 
L 28.515625 8.296875 
L 28.515625 63.921875 
L 10.984375 60.40625 
L 10.984375 69.390625 
L 28.421875 72.90625 
L 38.28125 72.90625 
L 38.28125 8.296875 
L 54.390625 8.296875 
L 54.390625 0 
L 12.40625 0 
z
" id="DejaVuSans-49"/>
       </defs>
       <use xlink:href="#DejaVuSans-39"/>
       <use x="27.490234" xlink:href="#DejaVuSans-50"/>
       <use x="91.113281" xlink:href="#DejaVuSans-49"/>
       <use x="154.736328" xlink:href="#DejaVuSans-45"/>
       <use x="190.820312" xlink:href="#DejaVuSans-57"/>
      </g>
     </g>
    </g>
    <g id="xtick_3">
     <g id="line2d_3">
      <g>
       <use style="stroke:#000000;stroke-width:0.8;" x="3301.012987" xlink:href="#m7b7bd989b2" y="2563.2"/>
      </g>
     </g>
     <g id="text_3">
      <!-- '22-9 -->
      <g transform="translate(3269.2083 2589.196094)scale(0.25 -0.25)">
       <use xlink:href="#DejaVuSans-39"/>
       <use x="27.490234" xlink:href="#DejaVuSans-50"/>
       <use x="91.113281" xlink:href="#DejaVuSans-50"/>
       <use x="154.736328" xlink:href="#DejaVuSans-45"/>
       <use x="190.820312" xlink:href="#DejaVuSans-57"/>
      </g>
     </g>
    </g>
    <g id="text_4">
     <!-- 年-月 -->
     <g transform="translate(2139 2644.567187)scale(0.6 -0.6)">
      <defs>
       <path d="M 31.25 60.9375 
Q 23.828125 48.046875 12.890625 39.453125 
L 7.421875 46.484375 
Q 23.4375 58.203125 29.296875 80.46875 
L 38.28125 78.125 
Q 39.84375 76.5625 37.109375 76.171875 
L 33.984375 68.359375 
L 89.0625 68.359375 
L 89.0625 60.9375 
L 60.546875 60.9375 
L 60.546875 47.65625 
L 83.984375 47.65625 
L 83.984375 40.234375 
L 60.546875 40.234375 
L 60.546875 22.65625 
L 93.359375 22.65625 
L 93.359375 15.234375 
L 60.546875 15.234375 
L 60.546875 -8.203125 
L 52.734375 -8.203125 
L 52.734375 15.234375 
L 7.8125 15.234375 
L 7.8125 22.65625 
L 25.390625 22.65625 
L 25.390625 47.65625 
L 52.734375 47.65625 
L 52.734375 60.9375 
L 31.25 60.9375 
z
M 33.203125 22.65625 
L 52.734375 22.65625 
L 52.734375 40.234375 
L 33.203125 40.234375 
z
" id="MS-Gothic-24180"/>
       <path d="M 46.875 39.0625 
L 46.875 32.8125 
L 2.34375 32.8125 
L 2.34375 39.0625 
z
" id="MS-Gothic-45"/>
       <path d="M 70.703125 22.65625 
L 33.59375 22.65625 
Q 33.59375 5.859375 16.40625 -8.984375 
L 9.765625 -1.5625 
Q 25.78125 8.59375 25.78125 28.90625 
L 25.78125 76.5625 
L 78.515625 76.5625 
L 78.515625 -0.390625 
Q 78.515625 -6.640625 71.875 -6.640625 
L 62.5 -6.640625 
L 60.9375 1.953125 
L 69.140625 1.953125 
Q 70.703125 1.953125 70.703125 3.515625 
z
M 33.59375 31.25 
L 70.703125 31.25 
L 70.703125 45.3125 
L 33.59375 45.3125 
z
M 33.59375 53.90625 
L 70.703125 53.90625 
L 70.703125 67.96875 
L 33.59375 67.96875 
z
" id="MS-Gothic-26376"/>
      </defs>
      <use xlink:href="#MS-Gothic-24180"/>
      <use x="100" xlink:href="#MS-Gothic-45"/>
      <use x="150" xlink:href="#MS-Gothic-26376"/>
     </g>
    </g>
   </g>
   <g id="matplotlib.axis_2">
    <g id="ytick_1">
     <g id="line2d_4">
      <defs>
       <path d="M 0 0 
L -3.5 0 
" id="m5a1e6e6aa5" style="stroke:#000000;stroke-width:0.8;"/>
      </defs>
      <g>
       <use style="stroke:#000000;stroke-width:0.8;" x="540" xlink:href="#m5a1e6e6aa5" y="2563.2"/>
      </g>
     </g>
     <g id="text_5">
      <!-- 0 -->
      <g transform="translate(513.9125 2574.597656)scale(0.3 -0.3)">
       <use xlink:href="#DejaVuSans-48"/>
      </g>
     </g>
    </g>
    <g id="ytick_2">
     <g id="line2d_5">
      <g>
       <use style="stroke:#000000;stroke-width:0.8;" x="540" xlink:href="#m5a1e6e6aa5" y="2328.533333"/>
      </g>
     </g>
     <g id="text_6">
      <!-- 2 -->
      <g transform="translate(513.9125 2339.93099)scale(0.3 -0.3)">
       <use xlink:href="#DejaVuSans-50"/>
      </g>
     </g>
    </g>
    <g id="ytick_3">
     <g id="line2d_6">
      <g>
       <use style="stroke:#000000;stroke-width:0.8;" x="540" xlink:href="#m5a1e6e6aa5" y="2093.866667"/>
      </g>
     </g>
     <g id="text_7">
      <!-- 4 -->
      <g transform="translate(513.9125 2105.264323)scale(0.3 -0.3)">
       <defs>
        <path d="M 37.796875 64.3125 
L 12.890625 25.390625 
L 37.796875 25.390625 
z
M 35.203125 72.90625 
L 47.609375 72.90625 
L 47.609375 25.390625 
L 58.015625 25.390625 
L 58.015625 17.1875 
L 47.609375 17.1875 
L 47.609375 0 
L 37.796875 0 
L 37.796875 17.1875 
L 4.890625 17.1875 
L 4.890625 26.703125 
z
" id="DejaVuSans-52"/>
       </defs>
       <use xlink:href="#DejaVuSans-52"/>
      </g>
     </g>
    </g>
    <g id="ytick_4">
     <g id="line2d_7">
      <g>
       <use style="stroke:#000000;stroke-width:0.8;" x="540" xlink:href="#m5a1e6e6aa5" y="1859.2"/>
      </g>
     </g>
     <g id="text_8">
      <!-- 6 -->
      <g transform="translate(513.9125 1870.597656)scale(0.3 -0.3)">
       <defs>
        <path d="M 33.015625 40.375 
Q 26.375 40.375 22.484375 35.828125 
Q 18.609375 31.296875 18.609375 23.390625 
Q 18.609375 15.53125 22.484375 10.953125 
Q 26.375 6.390625 33.015625 6.390625 
Q 39.65625 6.390625 43.53125 10.953125 
Q 47.40625 15.53125 47.40625 23.390625 
Q 47.40625 31.296875 43.53125 35.828125 
Q 39.65625 40.375 33.015625 40.375 
z
M 52.59375 71.296875 
L 52.59375 62.3125 
Q 48.875 64.0625 45.09375 64.984375 
Q 41.3125 65.921875 37.59375 65.921875 
Q 27.828125 65.921875 22.671875 59.328125 
Q 17.53125 52.734375 16.796875 39.40625 
Q 19.671875 43.65625 24.015625 45.921875 
Q 28.375 48.1875 33.59375 48.1875 
Q 44.578125 48.1875 50.953125 41.515625 
Q 57.328125 34.859375 57.328125 23.390625 
Q 57.328125 12.15625 50.6875 5.359375 
Q 44.046875 -1.421875 33.015625 -1.421875 
Q 20.359375 -1.421875 13.671875 8.265625 
Q 6.984375 17.96875 6.984375 36.375 
Q 6.984375 53.65625 15.1875 63.9375 
Q 23.390625 74.21875 37.203125 74.21875 
Q 40.921875 74.21875 44.703125 73.484375 
Q 48.484375 72.75 52.59375 71.296875 
z
" id="DejaVuSans-54"/>
       </defs>
       <use xlink:href="#DejaVuSans-54"/>
      </g>
     </g>
    </g>
    <g id="ytick_5">
     <g id="line2d_8">
      <g>
       <use style="stroke:#000000;stroke-width:0.8;" x="540" xlink:href="#m5a1e6e6aa5" y="1624.533333"/>
      </g>
     </g>
     <g id="text_9">
      <!-- 8 -->
      <g transform="translate(513.9125 1635.93099)scale(0.3 -0.3)">
       <defs>
        <path d="M 31.78125 34.625 
Q 24.75 34.625 20.71875 30.859375 
Q 16.703125 27.09375 16.703125 20.515625 
Q 16.703125 13.921875 20.71875 10.15625 
Q 24.75 6.390625 31.78125 6.390625 
Q 38.8125 6.390625 42.859375 10.171875 
Q 46.921875 13.96875 46.921875 20.515625 
Q 46.921875 27.09375 42.890625 30.859375 
Q 38.875 34.625 31.78125 34.625 
z
M 21.921875 38.8125 
Q 15.578125 40.375 12.03125 44.71875 
Q 8.5 49.078125 8.5 55.328125 
Q 8.5 64.0625 14.71875 69.140625 
Q 20.953125 74.21875 31.78125 74.21875 
Q 42.671875 74.21875 48.875 69.140625 
Q 55.078125 64.0625 55.078125 55.328125 
Q 55.078125 49.078125 51.53125 44.71875 
Q 48 40.375 41.703125 38.8125 
Q 48.828125 37.15625 52.796875 32.3125 
Q 56.78125 27.484375 56.78125 20.515625 
Q 56.78125 9.90625 50.3125 4.234375 
Q 43.84375 -1.421875 31.78125 -1.421875 
Q 19.734375 -1.421875 13.25 4.234375 
Q 6.78125 9.90625 6.78125 20.515625 
Q 6.78125 27.484375 10.78125 32.3125 
Q 14.796875 37.15625 21.921875 38.8125 
z
M 18.3125 54.390625 
Q 18.3125 48.734375 21.84375 45.5625 
Q 25.390625 42.390625 31.78125 42.390625 
Q 38.140625 42.390625 41.71875 45.5625 
Q 45.3125 48.734375 45.3125 54.390625 
Q 45.3125 60.0625 41.71875 63.234375 
Q 38.140625 66.40625 31.78125 66.40625 
Q 25.390625 66.40625 21.84375 63.234375 
Q 18.3125 60.0625 18.3125 54.390625 
z
" id="DejaVuSans-56"/>
       </defs>
       <use xlink:href="#DejaVuSans-56"/>
      </g>
     </g>
    </g>
    <g id="ytick_6">
     <g id="line2d_9">
      <g>
       <use style="stroke:#000000;stroke-width:0.8;" x="540" xlink:href="#m5a1e6e6aa5" y="1389.866667"/>
      </g>
     </g>
     <g id="text_10">
      <!-- 10 -->
      <g transform="translate(494.825 1401.264323)scale(0.3 -0.3)">
       <use xlink:href="#DejaVuSans-49"/>
       <use x="63.623047" xlink:href="#DejaVuSans-48"/>
      </g>
     </g>
    </g>
    <g id="ytick_7">
     <g id="line2d_10">
      <g>
       <use style="stroke:#000000;stroke-width:0.8;" x="540" xlink:href="#m5a1e6e6aa5" y="1155.2"/>
      </g>
     </g>
     <g id="text_11">
      <!-- 12 -->
      <g transform="translate(494.825 1166.597656)scale(0.3 -0.3)">
       <use xlink:href="#DejaVuSans-49"/>
       <use x="63.623047" xlink:href="#DejaVuSans-50"/>
      </g>
     </g>
    </g>
    <g id="ytick_8">
     <g id="line2d_11">
      <g>
       <use style="stroke:#000000;stroke-width:0.8;" x="540" xlink:href="#m5a1e6e6aa5" y="920.533333"/>
      </g>
     </g>
     <g id="text_12">
      <!-- 14 -->
      <g transform="translate(494.825 931.93099)scale(0.3 -0.3)">
       <use xlink:href="#DejaVuSans-49"/>
       <use x="63.623047" xlink:href="#DejaVuSans-52"/>
      </g>
     </g>
    </g>
    <g id="ytick_9">
     <g id="line2d_12">
      <g>
       <use style="stroke:#000000;stroke-width:0.8;" x="540" xlink:href="#m5a1e6e6aa5" y="685.866667"/>
      </g>
     </g>
     <g id="text_13">
      <!-- 16 -->
      <g transform="translate(494.825 697.264323)scale(0.3 -0.3)">
       <use xlink:href="#DejaVuSans-49"/>
       <use x="63.623047" xlink:href="#DejaVuSans-54"/>
      </g>
     </g>
    </g>
    <g id="ytick_10">
     <g id="line2d_13">
      <g>
       <use style="stroke:#000000;stroke-width:0.8;" x="540" xlink:href="#m5a1e6e6aa5" y="451.2"/>
      </g>
     </g>
     <g id="text_14">
      <!-- 18 -->
      <g transform="translate(494.825 462.597656)scale(0.3 -0.3)">
       <use xlink:href="#DejaVuSans-49"/>
       <use x="63.623047" xlink:href="#DejaVuSans-56"/>
      </g>
     </g>
    </g>
    <g id="text_15">
     <!-- 出演回数 -->
     <g transform="translate(483.090625 1574.4)rotate(-90)scale(0.6 -0.6)">
      <defs>
       <path d="M 22.265625 70.703125 
Q 25.390625 70.3125 22.65625 68.359375 
L 22.65625 47.265625 
L 45.703125 47.265625 
L 45.703125 78.515625 
L 53.125 78.515625 
Q 56.25 78.125 53.515625 76.171875 
L 53.515625 47.265625 
L 76.171875 47.265625 
L 76.171875 70.3125 
L 83.59375 70.3125 
Q 86.71875 69.921875 83.984375 67.96875 
L 83.984375 36.328125 
L 76.171875 36.328125 
L 76.171875 39.84375 
L 53.515625 39.84375 
L 53.515625 6.25 
L 79.296875 6.25 
L 79.296875 30.078125 
L 86.71875 30.078125 
Q 89.84375 29.6875 87.109375 27.734375 
L 87.109375 -5.46875 
L 79.296875 -5.46875 
L 79.296875 -1.171875 
L 18.75 -1.171875 
L 18.75 -6.640625 
L 10.9375 -6.640625 
L 10.9375 30.46875 
L 18.359375 30.46875 
Q 21.484375 30.078125 18.75 28.125 
L 18.75 6.25 
L 45.703125 6.25 
L 45.703125 39.84375 
L 22.65625 39.84375 
L 22.65625 35.546875 
L 14.84375 35.546875 
L 14.84375 70.703125 
z
" id="MS-Gothic-20986"/>
       <path d="M 27.734375 21.875 
Q 23.046875 8.203125 13.671875 -6.25 
Q 13.671875 -8.984375 12.109375 -8.59375 
L 4.6875 -1.5625 
Q 16.015625 12.890625 20.3125 26.953125 
z
M 35.15625 43.359375 
L 57.8125 43.359375 
L 57.8125 50.390625 
L 41.40625 50.390625 
L 41.40625 56.640625 
L 82.421875 56.640625 
L 82.421875 50.390625 
L 65.625 50.390625 
L 65.625 43.359375 
L 88.28125 43.359375 
L 88.28125 9.765625 
L 35.15625 9.765625 
z
M 71.484375 8.59375 
Q 80.859375 3.125 94.921875 0 
L 91.015625 -8.203125 
Q 79.296875 -5.859375 66.796875 3.125 
z
M 26.953125 -1.171875 
Q 39.0625 1.171875 49.609375 8.203125 
L 54.6875 3.125 
Q 57.03125 0 53.125 1.5625 
Q 41.40625 -6.25 31.25 -8.59375 
z
M 57.8125 16.015625 
L 57.8125 23.4375 
L 42.96875 23.4375 
L 42.96875 16.015625 
z
M 80.46875 16.015625 
L 80.46875 23.4375 
L 65.625 23.4375 
L 65.625 16.015625 
z
M 80.46875 37.109375 
L 65.625 37.109375 
L 65.625 29.6875 
L 80.46875 29.6875 
z
M 57.8125 29.6875 
L 57.8125 37.109375 
L 42.96875 37.109375 
L 42.96875 29.6875 
z
M 85.546875 51.5625 
L 85.546875 63.671875 
L 37.890625 63.671875 
L 37.890625 51.5625 
L 30.078125 51.5625 
L 30.078125 71.09375 
L 56.25 71.09375 
L 56.25 80.859375 
L 65.625 80.859375 
Q 68.359375 79.6875 65.234375 78.125 
L 65.234375 71.09375 
L 93.359375 71.09375 
L 93.359375 51.5625 
z
M 23.046875 59.765625 
Q 16.796875 64.84375 10.546875 69.53125 
L 15.625 76.5625 
Q 23.046875 72.65625 28.125 67.578125 
z
M 19.53125 36.71875 
Q 12.890625 42.1875 7.03125 46.484375 
L 12.109375 53.90625 
Q 17.96875 50.78125 25 44.53125 
z
" id="MS-Gothic-28436"/>
       <path d="M 39.0625 26.953125 
L 60.9375 26.953125 
L 60.9375 47.65625 
L 39.0625 47.65625 
z
M 60.9375 15.625 
L 60.9375 19.53125 
L 39.0625 19.53125 
L 39.0625 15.234375 
L 31.25 15.234375 
L 31.25 55.078125 
L 68.75 55.078125 
L 68.75 15.625 
z
M 18.359375 4.6875 
L 81.25 4.6875 
L 81.25 68.359375 
L 18.359375 68.359375 
z
M 81.25 -6.25 
L 81.25 -2.734375 
L 18.359375 -2.734375 
L 18.359375 -8.203125 
L 10.546875 -8.203125 
L 10.546875 75.78125 
L 89.0625 75.78125 
L 89.0625 -6.25 
z
" id="MS-Gothic-22238"/>
       <path d="M 72.65625 21.484375 
Q 78.125 32.03125 79.296875 53.515625 
L 66.015625 53.515625 
Q 67.1875 32.03125 72.65625 21.484375 
z
M 87.109375 53.515625 
Q 86.328125 29.296875 77.734375 14.453125 
Q 83.984375 6.640625 95.3125 0.78125 
L 90.234375 -7.8125 
Q 77.734375 0.390625 72.65625 7.8125 
Q 63.671875 -2.34375 44.921875 -9.765625 
L 41.015625 -1.953125 
Q 61.328125 6.25 67.96875 14.84375 
Q 61.328125 27.734375 60.546875 40.625 
Q 58.203125 34.765625 55.859375 31.640625 
L 49.21875 36.71875 
Q 60.9375 53.90625 63.28125 79.296875 
L 71.484375 77.34375 
Q 73.828125 75.78125 70.3125 75 
Q 69.140625 67.96875 67.1875 60.9375 
L 93.75 60.9375 
L 93.75 53.515625 
L 87.109375 53.515625 
z
M 50.78125 72.265625 
Q 48.4375 66.40625 45.3125 62.5 
L 39.0625 66.015625 
Q 42.1875 71.09375 44.921875 77.734375 
L 51.953125 74.21875 
Q 53.515625 72.65625 50.78125 72.265625 
z
M 25.78125 17.1875 
Q 31.25 15.625 35.546875 13.671875 
Q 38.671875 17.1875 40.625 24.21875 
L 29.296875 24.21875 
Q 27.734375 20.703125 25.78125 17.1875 
z
M 20.3125 7.421875 
L 14.0625 10.9375 
Q 17.96875 16.796875 21.875 24.21875 
L 7.03125 24.21875 
L 7.03125 30.46875 
L 24.21875 30.46875 
Q 26.5625 35.546875 27.734375 39.0625 
L 35.15625 37.109375 
Q 36.71875 35.546875 33.984375 35.15625 
L 31.640625 30.46875 
L 53.90625 30.46875 
L 53.90625 24.21875 
L 48.046875 24.21875 
Q 46.09375 16.40625 42.1875 10.9375 
Q 45.703125 9.375 49.609375 7.03125 
L 46.09375 0.78125 
Q 41.796875 3.515625 38.28125 5.078125 
Q 28.125 -5.078125 10.9375 -7.421875 
L 8.203125 -0.390625 
Q 23.4375 1.171875 31.640625 8.203125 
Q 27.34375 10.15625 23.046875 11.71875 
z
M 28.125 80.859375 
L 34.375 80.859375 
Q 37.5 80.46875 34.765625 78.515625 
L 34.765625 61.71875 
L 54.6875 61.71875 
L 54.6875 55.46875 
L 38.28125 55.46875 
Q 42.578125 50.390625 51.5625 45.703125 
L 47.265625 39.0625 
Q 40.625 42.96875 34.765625 50 
L 34.765625 40.625 
L 28.125 40.625 
L 28.125 48.046875 
Q 21.875 40.234375 10.9375 33.984375 
L 5.859375 40.234375 
Q 17.96875 46.484375 25.78125 55.46875 
L 7.8125 55.46875 
L 7.8125 61.71875 
L 28.125 61.71875 
z
M 17.1875 62.890625 
Q 14.453125 68.75 10.15625 73.046875 
L 16.40625 76.953125 
Q 21.09375 72.265625 23.4375 67.1875 
L 17.1875 62.890625 
z
" id="MS-Gothic-25968"/>
      </defs>
      <use xlink:href="#MS-Gothic-20986"/>
      <use x="100" xlink:href="#MS-Gothic-28436"/>
      <use x="200" xlink:href="#MS-Gothic-22238"/>
      <use x="300" xlink:href="#MS-Gothic-25968"/>
     </g>
    </g>
   </g>
   <g id="patch_6">
    <path d="M 540 2563.2 
L 540 345.6 
" style="fill:none;stroke:#000000;stroke-linecap:square;stroke-linejoin:miter;stroke-width:0.8;"/>
   </g>
   <g id="patch_7">
    <path d="M 3888 2563.2 
L 3888 345.6 
" style="fill:none;stroke:#000000;stroke-linecap:square;stroke-linejoin:miter;stroke-width:0.8;"/>
   </g>
   <g id="patch_8">
    <path d="M 540 2563.2 
L 3888 2563.2 
" style="fill:none;stroke:#000000;stroke-linecap:square;stroke-linejoin:miter;stroke-width:0.8;"/>
   </g>
   <g id="patch_9">
    <path d="M 540 345.6 
L 3888 345.6 
" style="fill:none;stroke:#000000;stroke-linecap:square;stroke-linejoin:miter;stroke-width:0.8;"/>
   </g>
   <g id="text_16">
    <!-- 丹生明里の出演回数推移 -->
    <g transform="translate(1774 335.2875)scale(0.8 -0.8)">
     <defs>
      <path d="M 21.875 30.46875 
L 5.859375 30.46875 
L 5.859375 37.890625 
L 21.875 37.890625 
L 21.875 76.953125 
L 80.078125 76.953125 
L 80.078125 37.890625 
L 95.3125 37.890625 
L 95.3125 30.46875 
L 80.078125 30.46875 
L 80.078125 -1.171875 
Q 80.078125 -7.421875 73.828125 -7.421875 
L 64.84375 -7.421875 
L 62.109375 1.171875 
L 70.703125 1.171875 
Q 72.265625 1.171875 72.265625 2.734375 
L 72.265625 30.46875 
L 29.6875 30.46875 
L 29.6875 26.5625 
Q 29.6875 5.46875 13.28125 -8.59375 
L 7.8125 -1.5625 
Q 21.875 10.15625 21.875 25.390625 
z
M 29.6875 69.53125 
L 29.6875 37.890625 
L 72.265625 37.890625 
L 72.265625 69.53125 
z
M 54.6875 41.796875 
Q 50.390625 48.046875 40.234375 58.203125 
L 46.875 64.0625 
Q 57.8125 55.859375 62.5 48.046875 
z
" id="MS-Gothic-20025"/>
      <path d="M 32.421875 69.53125 
Q 32.03125 67.578125 30.078125 60.546875 
L 48.046875 60.546875 
L 48.046875 80.078125 
L 55.46875 80.078125 
Q 58.59375 79.6875 55.859375 77.734375 
L 55.859375 60.546875 
L 87.890625 60.546875 
L 87.890625 53.125 
L 55.859375 53.125 
L 55.859375 35.15625 
L 83.203125 35.15625 
L 83.203125 27.734375 
L 55.859375 27.734375 
L 55.859375 4.6875 
L 92.96875 4.6875 
L 92.96875 -2.734375 
L 7.421875 -2.734375 
L 7.421875 4.6875 
L 48.046875 4.6875 
L 48.046875 27.734375 
L 21.875 27.734375 
L 21.875 35.15625 
L 48.046875 35.15625 
L 48.046875 53.125 
L 27.734375 53.125 
Q 23.046875 41.015625 13.671875 31.640625 
L 7.8125 37.890625 
Q 21.875 51.5625 24.609375 73.828125 
L 32.8125 71.875 
Q 35.15625 71.09375 32.421875 69.53125 
z
" id="MS-Gothic-29983"/>
      <path d="M 51.953125 76.171875 
L 89.84375 76.171875 
L 89.84375 0 
Q 89.84375 -6.640625 83.203125 -6.640625 
L 73.4375 -6.640625 
L 72.265625 0.78125 
L 80.859375 0.78125 
Q 82.03125 0.78125 82.03125 1.953125 
L 82.03125 23.046875 
L 59.765625 23.046875 
Q 58.59375 2.34375 32.03125 -8.59375 
L 28.125 0 
Q 51.953125 6.25 51.953125 27.34375 
z
M 17.96875 22.65625 
L 35.15625 22.65625 
L 35.15625 42.1875 
L 17.96875 42.1875 
z
M 17.96875 49.609375 
L 35.15625 49.609375 
L 35.15625 66.40625 
L 17.96875 66.40625 
z
M 17.96875 15.234375 
L 17.96875 8.59375 
L 10.15625 8.59375 
L 10.15625 73.828125 
L 42.96875 73.828125 
L 42.96875 15.234375 
z
M 82.03125 46.09375 
L 59.765625 46.09375 
L 59.765625 30.46875 
L 82.03125 30.46875 
z
M 59.765625 53.515625 
L 82.03125 53.515625 
L 82.03125 68.75 
L 59.765625 68.75 
z
" id="MS-Gothic-26126"/>
      <path d="M 81.640625 76.5625 
L 81.640625 30.46875 
L 73.828125 30.46875 
L 73.828125 32.421875 
L 53.515625 32.421875 
L 53.515625 21.875 
L 83.984375 21.875 
L 83.984375 14.453125 
L 53.515625 14.453125 
L 53.515625 2.734375 
L 92.96875 2.734375 
L 92.96875 -4.6875 
L 6.640625 -4.6875 
L 6.640625 2.734375 
L 45.703125 2.734375 
L 45.703125 14.453125 
L 15.234375 14.453125 
L 15.234375 21.875 
L 45.703125 21.875 
L 45.703125 32.421875 
L 25.390625 32.421875 
L 25.390625 28.90625 
L 17.578125 28.90625 
L 17.578125 76.5625 
z
M 45.703125 58.203125 
L 45.703125 69.140625 
L 25.390625 69.140625 
L 25.390625 58.203125 
z
M 73.828125 58.203125 
L 73.828125 69.140625 
L 53.515625 69.140625 
L 53.515625 58.203125 
z
M 45.703125 39.84375 
L 45.703125 50.78125 
L 25.390625 50.78125 
L 25.390625 39.84375 
z
M 73.828125 50.78125 
L 53.515625 50.78125 
L 53.515625 39.84375 
L 73.828125 39.84375 
z
" id="MS-Gothic-37324"/>
      <path d="M 53.90625 55.078125 
Q 47.265625 16.015625 37.890625 6.640625 
Q 32.8125 1.5625 27.34375 1.5625 
Q 21.09375 1.5625 17.578125 5.078125 
Q 8.203125 14.453125 8.203125 28.515625 
Q 8.203125 45.703125 20.3125 57.8125 
Q 33.59375 71.09375 52.734375 71.09375 
Q 69.921875 71.09375 79.6875 61.328125 
Q 90.625 50.390625 90.625 35.546875 
Q 90.625 19.53125 80.46875 9.375 
Q 73.828125 2.734375 60.15625 -3.515625 
L 51.953125 4.6875 
Q 65.625 8.984375 73.4375 16.796875 
Q 80.859375 24.21875 80.859375 34.765625 
Q 80.859375 47.265625 72.65625 55.46875 
Q 64.453125 63.671875 46.875 62.890625 
L 53.90625 59.375 
Q 58.59375 57.421875 53.90625 55.078125 
z
M 44.921875 62.5 
Q 34.765625 60.15625 27.34375 52.734375 
Q 17.1875 42.578125 17.1875 27.734375 
Q 17.1875 18.75 23.046875 12.890625 
Q 24.21875 11.71875 26.5625 11.71875 
Q 28.90625 11.71875 31.640625 14.453125 
Q 40.625 23.4375 44.921875 62.5 
z
" id="MS-Gothic-12398"/>
      <path d="M 32.8125 46.875 
Q 45.703125 58.984375 52.734375 82.03125 
L 60.546875 79.6875 
Q 62.5 78.125 59.765625 77.734375 
Q 56.640625 69.921875 53.515625 63.28125 
L 65.234375 63.28125 
Q 69.53125 72.265625 71.875 79.296875 
L 79.296875 76.5625 
Q 80.859375 75 78.125 74.609375 
Q 75.390625 68.359375 72.65625 63.28125 
L 92.578125 63.28125 
L 92.578125 55.859375 
L 72.65625 55.859375 
L 72.65625 43.75 
L 88.671875 43.75 
L 88.671875 36.328125 
L 72.65625 36.328125 
L 72.65625 23.828125 
L 88.671875 23.828125 
L 88.671875 16.40625 
L 72.65625 16.40625 
L 72.65625 1.953125 
L 94.921875 1.953125 
L 94.921875 -5.46875 
L 51.953125 -5.46875 
L 51.953125 -8.984375 
L 44.140625 -8.984375 
L 44.140625 47.65625 
Q 41.40625 43.75 38.28125 40.625 
z
M 13.28125 -8.203125 
L 11.71875 -0.78125 
L 18.359375 -0.78125 
Q 19.921875 -0.78125 19.921875 0.78125 
L 19.921875 25 
L 9.765625 22.65625 
Q 9.375 19.921875 7.8125 21.484375 
L 6.25 30.46875 
L 19.921875 33.203125 
L 19.921875 53.90625 
L 7.8125 53.90625 
L 7.8125 61.328125 
L 19.921875 61.328125 
L 19.921875 81.25 
L 27.34375 81.25 
Q 30.46875 80.859375 27.734375 78.90625 
L 27.734375 61.328125 
L 37.890625 61.328125 
L 37.890625 53.90625 
L 27.734375 53.90625 
L 27.734375 34.765625 
L 37.890625 37.5 
L 39.0625 30.46875 
L 27.734375 26.953125 
L 27.734375 -1.953125 
Q 27.734375 -8.203125 21.484375 -8.203125 
z
M 51.953125 1.953125 
L 64.84375 1.953125 
L 64.84375 16.40625 
L 51.953125 16.40625 
z
M 51.953125 23.828125 
L 64.84375 23.828125 
L 64.84375 36.328125 
L 51.953125 36.328125 
z
M 51.953125 43.75 
L 64.84375 43.75 
L 64.84375 55.859375 
L 51.953125 55.859375 
z
" id="MS-Gothic-25512"/>
      <path d="M 83.203125 70.3125 
L 84.375 71.875 
L 90.625 66.796875 
L 89.453125 65.625 
Q 79.296875 48.046875 69.53125 42.1875 
L 73.4375 41.015625 
Q 76.171875 39.84375 73.046875 38.671875 
Q 72.265625 35.9375 71.09375 33.984375 
L 87.890625 33.984375 
L 89.0625 35.546875 
L 96.09375 30.46875 
L 94.53125 28.90625 
Q 82.03125 -4.296875 43.75 -8.59375 
L 40.625 -1.171875 
Q 58.984375 0.78125 69.53125 8.59375 
Q 64.0625 14.0625 58.59375 17.96875 
Q 53.515625 13.671875 44.921875 10.15625 
L 41.40625 17.1875 
Q 60.546875 25 66.40625 41.015625 
Q 60.546875 35.546875 45.3125 31.640625 
L 41.796875 38.671875 
Q 56.640625 41.796875 64.0625 46.875 
Q 60.15625 51.5625 54.6875 55.078125 
Q 51.953125 52.34375 49.21875 50.390625 
L 43.75 56.25 
Q 56.640625 67.1875 60.15625 79.6875 
L 67.1875 77.34375 
Q 69.921875 76.171875 66.796875 75 
Q 66.40625 72.65625 64.84375 70.3125 
z
M 30.078125 55.078125 
L 42.96875 55.078125 
L 42.96875 47.65625 
L 30.078125 47.65625 
L 30.078125 37.890625 
Q 37.890625 34.375 44.921875 27.34375 
L 39.84375 20.3125 
Q 33.59375 26.5625 30.078125 29.296875 
L 30.078125 -8.59375 
L 22.265625 -8.59375 
L 22.265625 30.078125 
Q 19.921875 22.265625 9.375 10.15625 
L 3.515625 17.578125 
Q 17.96875 31.25 21.484375 47.65625 
L 6.25 47.65625 
L 6.25 55.078125 
L 22.265625 55.078125 
L 22.265625 67.96875 
Q 14.453125 66.796875 8.203125 66.015625 
L 6.25 73.4375 
Q 21.875 75 38.671875 79.6875 
L 42.96875 73.828125 
Q 44.53125 71.484375 41.015625 72.265625 
Q 35.546875 70.703125 30.078125 69.53125 
z
M 58.59375 59.765625 
Q 64.453125 56.640625 69.921875 51.953125 
Q 75.78125 57.421875 79.6875 64.0625 
L 61.71875 64.0625 
Q 60.15625 61.328125 58.59375 59.765625 
z
M 62.890625 22.65625 
Q 68.359375 19.53125 75.390625 13.28125 
Q 81.25 17.578125 85.546875 27.734375 
L 67.578125 27.734375 
Q 65.234375 24.609375 62.890625 22.65625 
z
" id="MS-Gothic-31227"/>
     </defs>
     <use xlink:href="#MS-Gothic-20025"/>
     <use x="100" xlink:href="#MS-Gothic-29983"/>
     <use x="200" xlink:href="#MS-Gothic-26126"/>
     <use x="300" xlink:href="#MS-Gothic-37324"/>
     <use x="400" xlink:href="#MS-Gothic-12398"/>
     <use x="500" xlink:href="#MS-Gothic-20986"/>
     <use x="600" xlink:href="#MS-Gothic-28436"/>
     <use x="700" xlink:href="#MS-Gothic-22238"/>
     <use x="800" xlink:href="#MS-Gothic-25968"/>
     <use x="900" xlink:href="#MS-Gothic-25512"/>
     <use x="1000" xlink:href="#MS-Gothic-31227"/>
    </g>
   </g>
  </g>
 </g>
 <defs>
  <clipPath id="p672c27d952">
   <rect height="2217.6" width="3348" x="540" y="345.6"/>
  </clipPath>
 </defs>
</svg>
