<?xml version="1.0" encoding="utf-8" standalone="no"?>
<!DOCTYPE svg PUBLIC "-//W3C//DTD SVG 1.1//EN"
  "http://www.w3.org/Graphics/SVG/1.1/DTD/svg11.dtd">
<!-- Created with matplotlib (https://matplotlib.org/) -->
<svg height="2880pt" version="1.1" viewBox="0 0 4320 2880" width="4320pt" xmlns="http://www.w3.org/2000/svg" xmlns:xlink="http://www.w3.org/1999/xlink">
 <metadata>
  <rdf:RDF xmlns:cc="http://creativecommons.org/ns#" xmlns:dc="http://purl.org/dc/elements/1.1/" xmlns:rdf="http://www.w3.org/1999/02/22-rdf-syntax-ns#">
   <cc:Work>
    <dc:type rdf:resource="http://purl.org/dc/dcmitype/StillImage"/>
    <dc:date>2023-02-05T11:38:27.558778</dc:date>
    <dc:format>image/svg+xml</dc:format>
    <dc:creator>
     <cc:Agent>
      <dc:title>Matplotlib v3.3.4, https://matplotlib.org/</dc:title>
     </cc:Agent>
    </dc:creator>
   </cc:Work>
  </rdf:RDF>
 </metadata>
 <defs>
  <style type="text/css">*{stroke-linecap:butt;stroke-linejoin:round;}</style>
 </defs>
 <g id="figure_1">
  <g id="patch_1">
   <path d="M 0 2880 
L 4320 2880 
L 4320 0 
L 0 0 
z
" style="fill:#ffffff;"/>
  </g>
  <g id="axes_1">
   <g id="patch_2">
    <path d="M 540 2563.2 
L 3888 2563.2 
L 3888 345.6 
L 540 345.6 
z
" style="fill:#ffffff;"/>
   </g>
   <g id="patch_3">
    <path clip-path="url(#p0cb7821cb0)" d="M 692.181818 2563.2 
L 741.075575 2563.2 
L 741.075575 2563.2 
L 692.181818 2563.2 
z
" style="fill:#1f77b4;"/>
   </g>
   <g id="patch_4">
    <path clip-path="url(#p0cb7821cb0)" d="M 753.299014 2563.2 
L 802.192771 2563.2 
L 802.192771 2563.2 
L 753.299014 2563.2 
z
" style="fill:#1f77b4;"/>
   </g>
   <g id="patch_5">
    <path clip-path="url(#p0cb7821cb0)" d="M 814.41621 2563.2 
L 863.309967 2563.2 
L 863.309967 2563.2 
L 814.41621 2563.2 
z
" style="fill:#1f77b4;"/>
   </g>
   <g id="patch_6">
    <path clip-path="url(#p0cb7821cb0)" d="M 875.533406 2563.2 
L 924.427163 2563.2 
L 924.427163 2563.2 
L 875.533406 2563.2 
z
" style="fill:#1f77b4;"/>
   </g>
   <g id="patch_7">
    <path clip-path="url(#p0cb7821cb0)" d="M 936.650602 2563.2 
L 985.544359 2563.2 
L 985.544359 2563.2 
L 936.650602 2563.2 
z
" style="fill:#1f77b4;"/>
   </g>
   <g id="patch_8">
    <path clip-path="url(#p0cb7821cb0)" d="M 997.767798 2563.2 
L 1046.661555 2563.2 
L 1046.661555 2563.2 
L 997.767798 2563.2 
z
" style="fill:#1f77b4;"/>
   </g>
   <g id="patch_9">
    <path clip-path="url(#p0cb7821cb0)" d="M 1058.884995 2563.2 
L 1107.778751 2563.2 
L 1107.778751 2563.2 
L 1058.884995 2563.2 
z
" style="fill:#1f77b4;"/>
   </g>
   <g id="patch_10">
    <path clip-path="url(#p0cb7821cb0)" d="M 1120.002191 2563.2 
L 1168.895947 2563.2 
L 1168.895947 2563.2 
L 1120.002191 2563.2 
z
" style="fill:#1f77b4;"/>
   </g>
   <g id="patch_11">
    <path clip-path="url(#p0cb7821cb0)" d="M 1181.119387 2563.2 
L 1230.013143 2563.2 
L 1230.013143 2563.2 
L 1181.119387 2563.2 
z
" style="fill:#1f77b4;"/>
   </g>
   <g id="patch_12">
    <path clip-path="url(#p0cb7821cb0)" d="M 1242.236583 2563.2 
L 1291.13034 2563.2 
L 1291.13034 2563.2 
L 1242.236583 2563.2 
z
" style="fill:#1f77b4;"/>
   </g>
   <g id="patch_13">
    <path clip-path="url(#p0cb7821cb0)" d="M 1303.353779 2563.2 
L 1352.247536 2563.2 
L 1352.247536 2563.2 
L 1303.353779 2563.2 
z
" style="fill:#1f77b4;"/>
   </g>
   <g id="patch_14">
    <path clip-path="url(#p0cb7821cb0)" d="M 1364.470975 2563.2 
L 1413.364732 2563.2 
L 1413.364732 2563.2 
L 1364.470975 2563.2 
z
" style="fill:#1f77b4;"/>
   </g>
   <g id="patch_15">
    <path clip-path="url(#p0cb7821cb0)" d="M 1425.588171 2563.2 
L 1474.481928 2563.2 
L 1474.481928 2563.2 
L 1425.588171 2563.2 
z
" style="fill:#1f77b4;"/>
   </g>
   <g id="patch_16">
    <path clip-path="url(#p0cb7821cb0)" d="M 1486.705367 2563.2 
L 1535.599124 2563.2 
L 1535.599124 2563.2 
L 1486.705367 2563.2 
z
" style="fill:#1f77b4;"/>
   </g>
   <g id="patch_17">
    <path clip-path="url(#p0cb7821cb0)" d="M 1547.822563 2563.2 
L 1596.71632 2563.2 
L 1596.71632 2563.2 
L 1547.822563 2563.2 
z
" style="fill:#1f77b4;"/>
   </g>
   <g id="patch_18">
    <path clip-path="url(#p0cb7821cb0)" d="M 1608.939759 2563.2 
L 1657.833516 2563.2 
L 1657.833516 2504.842105 
L 1608.939759 2504.842105 
z
" style="fill:#1f77b4;"/>
   </g>
   <g id="patch_19">
    <path clip-path="url(#p0cb7821cb0)" d="M 1670.056955 2563.2 
L 1718.950712 2563.2 
L 1718.950712 2563.2 
L 1670.056955 2563.2 
z
" style="fill:#1f77b4;"/>
   </g>
   <g id="patch_20">
    <path clip-path="url(#p0cb7821cb0)" d="M 1731.174151 2563.2 
L 1780.067908 2563.2 
L 1780.067908 2504.842105 
L 1731.174151 2504.842105 
z
" style="fill:#1f77b4;"/>
   </g>
   <g id="patch_21">
    <path clip-path="url(#p0cb7821cb0)" d="M 1792.291347 2563.2 
L 1841.185104 2563.2 
L 1841.185104 2446.484211 
L 1792.291347 2446.484211 
z
" style="fill:#1f77b4;"/>
   </g>
   <g id="patch_22">
    <path clip-path="url(#p0cb7821cb0)" d="M 1853.408543 2563.2 
L 1902.3023 2563.2 
L 1902.3023 2563.2 
L 1853.408543 2563.2 
z
" style="fill:#1f77b4;"/>
   </g>
   <g id="patch_23">
    <path clip-path="url(#p0cb7821cb0)" d="M 1914.525739 2563.2 
L 1963.419496 2563.2 
L 1963.419496 2563.2 
L 1914.525739 2563.2 
z
" style="fill:#1f77b4;"/>
   </g>
   <g id="patch_24">
    <path clip-path="url(#p0cb7821cb0)" d="M 1975.642935 2563.2 
L 2024.536692 2563.2 
L 2024.536692 2563.2 
L 1975.642935 2563.2 
z
" style="fill:#1f77b4;"/>
   </g>
   <g id="patch_25">
    <path clip-path="url(#p0cb7821cb0)" d="M 2036.760131 2563.2 
L 2085.653888 2563.2 
L 2085.653888 2563.2 
L 2036.760131 2563.2 
z
" style="fill:#1f77b4;"/>
   </g>
   <g id="patch_26">
    <path clip-path="url(#p0cb7821cb0)" d="M 2097.877327 2563.2 
L 2146.771084 2563.2 
L 2146.771084 2563.2 
L 2097.877327 2563.2 
z
" style="fill:#1f77b4;"/>
   </g>
   <g id="patch_27">
    <path clip-path="url(#p0cb7821cb0)" d="M 2158.994524 2563.2 
L 2207.88828 2563.2 
L 2207.88828 2504.842105 
L 2158.994524 2504.842105 
z
" style="fill:#1f77b4;"/>
   </g>
   <g id="patch_28">
    <path clip-path="url(#p0cb7821cb0)" d="M 2220.11172 2563.2 
L 2269.005476 2563.2 
L 2269.005476 2563.2 
L 2220.11172 2563.2 
z
" style="fill:#1f77b4;"/>
   </g>
   <g id="patch_29">
    <path clip-path="url(#p0cb7821cb0)" d="M 2281.228916 2563.2 
L 2330.122673 2563.2 
L 2330.122673 2388.126316 
L 2281.228916 2388.126316 
z
" style="fill:#1f77b4;"/>
   </g>
   <g id="patch_30">
    <path clip-path="url(#p0cb7821cb0)" d="M 2342.346112 2563.2 
L 2391.239869 2563.2 
L 2391.239869 2446.484211 
L 2342.346112 2446.484211 
z
" style="fill:#1f77b4;"/>
   </g>
   <g id="patch_31">
    <path clip-path="url(#p0cb7821cb0)" d="M 2403.463308 2563.2 
L 2452.357065 2563.2 
L 2452.357065 2563.2 
L 2403.463308 2563.2 
z
" style="fill:#1f77b4;"/>
   </g>
   <g id="patch_32">
    <path clip-path="url(#p0cb7821cb0)" d="M 2464.580504 2563.2 
L 2513.474261 2563.2 
L 2513.474261 2271.410526 
L 2464.580504 2271.410526 
z
" style="fill:#1f77b4;"/>
   </g>
   <g id="patch_33">
    <path clip-path="url(#p0cb7821cb0)" d="M 2525.6977 2563.2 
L 2574.591457 2563.2 
L 2574.591457 2504.842105 
L 2525.6977 2504.842105 
z
" style="fill:#1f77b4;"/>
   </g>
   <g id="patch_34">
    <path clip-path="url(#p0cb7821cb0)" d="M 2586.814896 2563.2 
L 2635.708653 2563.2 
L 2635.708653 1162.610526 
L 2586.814896 1162.610526 
z
" style="fill:#1f77b4;"/>
   </g>
   <g id="patch_35">
    <path clip-path="url(#p0cb7821cb0)" d="M 2647.932092 2563.2 
L 2696.825849 2563.2 
L 2696.825849 2154.694737 
L 2647.932092 2154.694737 
z
" style="fill:#1f77b4;"/>
   </g>
   <g id="patch_36">
    <path clip-path="url(#p0cb7821cb0)" d="M 2709.049288 2563.2 
L 2757.943045 2563.2 
L 2757.943045 2504.842105 
L 2709.049288 2504.842105 
z
" style="fill:#1f77b4;"/>
   </g>
   <g id="patch_37">
    <path clip-path="url(#p0cb7821cb0)" d="M 2770.166484 2563.2 
L 2819.060241 2563.2 
L 2819.060241 2504.842105 
L 2770.166484 2504.842105 
z
" style="fill:#1f77b4;"/>
   </g>
   <g id="patch_38">
    <path clip-path="url(#p0cb7821cb0)" d="M 2831.28368 2563.2 
L 2880.177437 2563.2 
L 2880.177437 2504.842105 
L 2831.28368 2504.842105 
z
" style="fill:#1f77b4;"/>
   </g>
   <g id="patch_39">
    <path clip-path="url(#p0cb7821cb0)" d="M 2892.400876 2563.2 
L 2941.294633 2563.2 
L 2941.294633 2271.410526 
L 2892.400876 2271.410526 
z
" style="fill:#1f77b4;"/>
   </g>
   <g id="patch_40">
    <path clip-path="url(#p0cb7821cb0)" d="M 2953.518072 2563.2 
L 3002.411829 2563.2 
L 3002.411829 2504.842105 
L 2953.518072 2504.842105 
z
" style="fill:#1f77b4;"/>
   </g>
   <g id="patch_41">
    <path clip-path="url(#p0cb7821cb0)" d="M 3014.635268 2563.2 
L 3063.529025 2563.2 
L 3063.529025 2446.484211 
L 3014.635268 2446.484211 
z
" style="fill:#1f77b4;"/>
   </g>
   <g id="patch_42">
    <path clip-path="url(#p0cb7821cb0)" d="M 3075.752464 2563.2 
L 3124.646221 2563.2 
L 3124.646221 2329.768421 
L 3075.752464 2329.768421 
z
" style="fill:#1f77b4;"/>
   </g>
   <g id="patch_43">
    <path clip-path="url(#p0cb7821cb0)" d="M 3136.86966 2563.2 
L 3185.763417 2563.2 
L 3185.763417 2504.842105 
L 3136.86966 2504.842105 
z
" style="fill:#1f77b4;"/>
   </g>
   <g id="patch_44">
    <path clip-path="url(#p0cb7821cb0)" d="M 3197.986857 2563.2 
L 3246.880613 2563.2 
L 3246.880613 2504.842105 
L 3197.986857 2504.842105 
z
" style="fill:#1f77b4;"/>
   </g>
   <g id="patch_45">
    <path clip-path="url(#p0cb7821cb0)" d="M 3259.104053 2563.2 
L 3307.997809 2563.2 
L 3307.997809 2563.2 
L 3259.104053 2563.2 
z
" style="fill:#1f77b4;"/>
   </g>
   <g id="patch_46">
    <path clip-path="url(#p0cb7821cb0)" d="M 3320.221249 2563.2 
L 3369.115005 2563.2 
L 3369.115005 2563.2 
L 3320.221249 2563.2 
z
" style="fill:#1f77b4;"/>
   </g>
   <g id="patch_47">
    <path clip-path="url(#p0cb7821cb0)" d="M 3381.338445 2563.2 
L 3430.232202 2563.2 
L 3430.232202 2504.842105 
L 3381.338445 2504.842105 
z
" style="fill:#1f77b4;"/>
   </g>
   <g id="patch_48">
    <path clip-path="url(#p0cb7821cb0)" d="M 3442.455641 2563.2 
L 3491.349398 2563.2 
L 3491.349398 2446.484211 
L 3442.455641 2446.484211 
z
" style="fill:#1f77b4;"/>
   </g>
   <g id="patch_49">
    <path clip-path="url(#p0cb7821cb0)" d="M 3503.572837 2563.2 
L 3552.466594 2563.2 
L 3552.466594 2563.2 
L 3503.572837 2563.2 
z
" style="fill:#1f77b4;"/>
   </g>
   <g id="patch_50">
    <path clip-path="url(#p0cb7821cb0)" d="M 3564.690033 2563.2 
L 3613.58379 2563.2 
L 3613.58379 2271.410526 
L 3564.690033 2271.410526 
z
" style="fill:#1f77b4;"/>
   </g>
   <g id="patch_51">
    <path clip-path="url(#p0cb7821cb0)" d="M 3625.807229 2563.2 
L 3674.700986 2563.2 
L 3674.700986 2563.2 
L 3625.807229 2563.2 
z
" style="fill:#1f77b4;"/>
   </g>
   <g id="patch_52">
    <path clip-path="url(#p0cb7821cb0)" d="M 3686.924425 2563.2 
L 3735.818182 2563.2 
L 3735.818182 2563.2 
L 3686.924425 2563.2 
z
" style="fill:#1f77b4;"/>
   </g>
   <g id="matplotlib.axis_1">
    <g id="xtick_1">
     <g id="line2d_1">
      <defs>
       <path d="M 0 0 
L 0 3.5 
" id="m76dfd5efca" style="stroke:#000000;stroke-width:0.8;"/>
      </defs>
      <g>
       <use style="stroke:#000000;stroke-width:0.8;" x="716.628697" xlink:href="#m76dfd5efca" y="2563.2"/>
      </g>
     </g>
     <g id="text_1">
      <!-- '19-3 -->
      <g transform="translate(684.824009 2589.196094)scale(0.25 -0.25)">
       <defs>
        <path d="M 17.921875 72.90625 
L 17.921875 45.796875 
L 9.625 45.796875 
L 9.625 72.90625 
z
" id="DejaVuSans-39"/>
        <path d="M 12.40625 8.296875 
L 28.515625 8.296875 
L 28.515625 63.921875 
L 10.984375 60.40625 
L 10.984375 69.390625 
L 28.421875 72.90625 
L 38.28125 72.90625 
L 38.28125 8.296875 
L 54.390625 8.296875 
L 54.390625 0 
L 12.40625 0 
z
" id="DejaVuSans-49"/>
        <path d="M 10.984375 1.515625 
L 10.984375 10.5 
Q 14.703125 8.734375 18.5 7.8125 
Q 22.3125 6.890625 25.984375 6.890625 
Q 35.75 6.890625 40.890625 13.453125 
Q 46.046875 20.015625 46.78125 33.40625 
Q 43.953125 29.203125 39.59375 26.953125 
Q 35.25 24.703125 29.984375 24.703125 
Q 19.046875 24.703125 12.671875 31.3125 
Q 6.296875 37.9375 6.296875 49.421875 
Q 6.296875 60.640625 12.9375 67.421875 
Q 19.578125 74.21875 30.609375 74.21875 
Q 43.265625 74.21875 49.921875 64.515625 
Q 56.59375 54.828125 56.59375 36.375 
Q 56.59375 19.140625 48.40625 8.859375 
Q 40.234375 -1.421875 26.421875 -1.421875 
Q 22.703125 -1.421875 18.890625 -0.6875 
Q 15.09375 0.046875 10.984375 1.515625 
z
M 30.609375 32.421875 
Q 37.25 32.421875 41.125 36.953125 
Q 45.015625 41.5 45.015625 49.421875 
Q 45.015625 57.28125 41.125 61.84375 
Q 37.25 66.40625 30.609375 66.40625 
Q 23.96875 66.40625 20.09375 61.84375 
Q 16.21875 57.28125 16.21875 49.421875 
Q 16.21875 41.5 20.09375 36.953125 
Q 23.96875 32.421875 30.609375 32.421875 
z
" id="DejaVuSans-57"/>
        <path d="M 4.890625 31.390625 
L 31.203125 31.390625 
L 31.203125 23.390625 
L 4.890625 23.390625 
z
" id="DejaVuSans-45"/>
        <path d="M 40.578125 39.3125 
Q 47.65625 37.796875 51.625 33 
Q 55.609375 28.21875 55.609375 21.1875 
Q 55.609375 10.40625 48.1875 4.484375 
Q 40.765625 -1.421875 27.09375 -1.421875 
Q 22.515625 -1.421875 17.65625 -0.515625 
Q 12.796875 0.390625 7.625 2.203125 
L 7.625 11.71875 
Q 11.71875 9.328125 16.59375 8.109375 
Q 21.484375 6.890625 26.8125 6.890625 
Q 36.078125 6.890625 40.9375 10.546875 
Q 45.796875 14.203125 45.796875 21.1875 
Q 45.796875 27.640625 41.28125 31.265625 
Q 36.765625 34.90625 28.71875 34.90625 
L 20.21875 34.90625 
L 20.21875 43.015625 
L 29.109375 43.015625 
Q 36.375 43.015625 40.234375 45.921875 
Q 44.09375 48.828125 44.09375 54.296875 
Q 44.09375 59.90625 40.109375 62.90625 
Q 36.140625 65.921875 28.71875 65.921875 
Q 24.65625 65.921875 20.015625 65.03125 
Q 15.375 64.15625 9.8125 62.3125 
L 9.8125 71.09375 
Q 15.4375 72.65625 20.34375 73.4375 
Q 25.25 74.21875 29.59375 74.21875 
Q 40.828125 74.21875 47.359375 69.109375 
Q 53.90625 64.015625 53.90625 55.328125 
Q 53.90625 49.265625 50.4375 45.09375 
Q 46.96875 40.921875 40.578125 39.3125 
z
" id="DejaVuSans-51"/>
       </defs>
       <use xlink:href="#DejaVuSans-39"/>
       <use x="27.490234" xlink:href="#DejaVuSans-49"/>
       <use x="91.113281" xlink:href="#DejaVuSans-57"/>
       <use x="154.736328" xlink:href="#DejaVuSans-45"/>
       <use x="190.820312" xlink:href="#DejaVuSans-51"/>
      </g>
     </g>
    </g>
    <g id="xtick_2">
     <g id="line2d_2">
      <g>
       <use style="stroke:#000000;stroke-width:0.8;" x="777.745893" xlink:href="#m76dfd5efca" y="2563.2"/>
      </g>
     </g>
     <g id="text_2">
      <!-- '19-4 -->
      <g transform="translate(745.941205 2589.196094)scale(0.25 -0.25)">
       <defs>
        <path d="M 37.796875 64.3125 
L 12.890625 25.390625 
L 37.796875 25.390625 
z
M 35.203125 72.90625 
L 47.609375 72.90625 
L 47.609375 25.390625 
L 58.015625 25.390625 
L 58.015625 17.1875 
L 47.609375 17.1875 
L 47.609375 0 
L 37.796875 0 
L 37.796875 17.1875 
L 4.890625 17.1875 
L 4.890625 26.703125 
z
" id="DejaVuSans-52"/>
       </defs>
       <use xlink:href="#DejaVuSans-39"/>
       <use x="27.490234" xlink:href="#DejaVuSans-49"/>
       <use x="91.113281" xlink:href="#DejaVuSans-57"/>
       <use x="154.736328" xlink:href="#DejaVuSans-45"/>
       <use x="190.820312" xlink:href="#DejaVuSans-52"/>
      </g>
     </g>
    </g>
    <g id="xtick_3">
     <g id="line2d_3">
      <g>
       <use style="stroke:#000000;stroke-width:0.8;" x="838.863089" xlink:href="#m76dfd5efca" y="2563.2"/>
      </g>
     </g>
     <g id="text_3">
      <!-- '19-5 -->
      <g transform="translate(807.058401 2589.196094)scale(0.25 -0.25)">
       <defs>
        <path d="M 10.796875 72.90625 
L 49.515625 72.90625 
L 49.515625 64.59375 
L 19.828125 64.59375 
L 19.828125 46.734375 
Q 21.96875 47.46875 24.109375 47.828125 
Q 26.265625 48.1875 28.421875 48.1875 
Q 40.625 48.1875 47.75 41.5 
Q 54.890625 34.8125 54.890625 23.390625 
Q 54.890625 11.625 47.5625 5.09375 
Q 40.234375 -1.421875 26.90625 -1.421875 
Q 22.3125 -1.421875 17.546875 -0.640625 
Q 12.796875 0.140625 7.71875 1.703125 
L 7.71875 11.625 
Q 12.109375 9.234375 16.796875 8.0625 
Q 21.484375 6.890625 26.703125 6.890625 
Q 35.15625 6.890625 40.078125 11.328125 
Q 45.015625 15.765625 45.015625 23.390625 
Q 45.015625 31 40.078125 35.4375 
Q 35.15625 39.890625 26.703125 39.890625 
Q 22.75 39.890625 18.8125 39.015625 
Q 14.890625 38.140625 10.796875 36.28125 
z
" id="DejaVuSans-53"/>
       </defs>
       <use xlink:href="#DejaVuSans-39"/>
       <use x="27.490234" xlink:href="#DejaVuSans-49"/>
       <use x="91.113281" xlink:href="#DejaVuSans-57"/>
       <use x="154.736328" xlink:href="#DejaVuSans-45"/>
       <use x="190.820312" xlink:href="#DejaVuSans-53"/>
      </g>
     </g>
    </g>
    <g id="xtick_4">
     <g id="line2d_4">
      <g>
       <use style="stroke:#000000;stroke-width:0.8;" x="899.980285" xlink:href="#m76dfd5efca" y="2563.2"/>
      </g>
     </g>
     <g id="text_4">
      <!-- '19-6 -->
      <g transform="translate(868.175597 2589.196094)scale(0.25 -0.25)">
       <defs>
        <path d="M 33.015625 40.375 
Q 26.375 40.375 22.484375 35.828125 
Q 18.609375 31.296875 18.609375 23.390625 
Q 18.609375 15.53125 22.484375 10.953125 
Q 26.375 6.390625 33.015625 6.390625 
Q 39.65625 6.390625 43.53125 10.953125 
Q 47.40625 15.53125 47.40625 23.390625 
Q 47.40625 31.296875 43.53125 35.828125 
Q 39.65625 40.375 33.015625 40.375 
z
M 52.59375 71.296875 
L 52.59375 62.3125 
Q 48.875 64.0625 45.09375 64.984375 
Q 41.3125 65.921875 37.59375 65.921875 
Q 27.828125 65.921875 22.671875 59.328125 
Q 17.53125 52.734375 16.796875 39.40625 
Q 19.671875 43.65625 24.015625 45.921875 
Q 28.375 48.1875 33.59375 48.1875 
Q 44.578125 48.1875 50.953125 41.515625 
Q 57.328125 34.859375 57.328125 23.390625 
Q 57.328125 12.15625 50.6875 5.359375 
Q 44.046875 -1.421875 33.015625 -1.421875 
Q 20.359375 -1.421875 13.671875 8.265625 
Q 6.984375 17.96875 6.984375 36.375 
Q 6.984375 53.65625 15.1875 63.9375 
Q 23.390625 74.21875 37.203125 74.21875 
Q 40.921875 74.21875 44.703125 73.484375 
Q 48.484375 72.75 52.59375 71.296875 
z
" id="DejaVuSans-54"/>
       </defs>
       <use xlink:href="#DejaVuSans-39"/>
       <use x="27.490234" xlink:href="#DejaVuSans-49"/>
       <use x="91.113281" xlink:href="#DejaVuSans-57"/>
       <use x="154.736328" xlink:href="#DejaVuSans-45"/>
       <use x="190.820312" xlink:href="#DejaVuSans-54"/>
      </g>
     </g>
    </g>
    <g id="xtick_5">
     <g id="line2d_5">
      <g>
       <use style="stroke:#000000;stroke-width:0.8;" x="961.097481" xlink:href="#m76dfd5efca" y="2563.2"/>
      </g>
     </g>
     <g id="text_5">
      <!-- '19-7 -->
      <g transform="translate(929.292793 2589.196094)scale(0.25 -0.25)">
       <defs>
        <path d="M 8.203125 72.90625 
L 55.078125 72.90625 
L 55.078125 68.703125 
L 28.609375 0 
L 18.3125 0 
L 43.21875 64.59375 
L 8.203125 64.59375 
z
" id="DejaVuSans-55"/>
       </defs>
       <use xlink:href="#DejaVuSans-39"/>
       <use x="27.490234" xlink:href="#DejaVuSans-49"/>
       <use x="91.113281" xlink:href="#DejaVuSans-57"/>
       <use x="154.736328" xlink:href="#DejaVuSans-45"/>
       <use x="190.820312" xlink:href="#DejaVuSans-55"/>
      </g>
     </g>
    </g>
    <g id="xtick_6">
     <g id="line2d_6">
      <g>
       <use style="stroke:#000000;stroke-width:0.8;" x="1022.214677" xlink:href="#m76dfd5efca" y="2563.2"/>
      </g>
     </g>
     <g id="text_6">
      <!-- '19-8 -->
      <g transform="translate(990.409989 2589.196094)scale(0.25 -0.25)">
       <defs>
        <path d="M 31.78125 34.625 
Q 24.75 34.625 20.71875 30.859375 
Q 16.703125 27.09375 16.703125 20.515625 
Q 16.703125 13.921875 20.71875 10.15625 
Q 24.75 6.390625 31.78125 6.390625 
Q 38.8125 6.390625 42.859375 10.171875 
Q 46.921875 13.96875 46.921875 20.515625 
Q 46.921875 27.09375 42.890625 30.859375 
Q 38.875 34.625 31.78125 34.625 
z
M 21.921875 38.8125 
Q 15.578125 40.375 12.03125 44.71875 
Q 8.5 49.078125 8.5 55.328125 
Q 8.5 64.0625 14.71875 69.140625 
Q 20.953125 74.21875 31.78125 74.21875 
Q 42.671875 74.21875 48.875 69.140625 
Q 55.078125 64.0625 55.078125 55.328125 
Q 55.078125 49.078125 51.53125 44.71875 
Q 48 40.375 41.703125 38.8125 
Q 48.828125 37.15625 52.796875 32.3125 
Q 56.78125 27.484375 56.78125 20.515625 
Q 56.78125 9.90625 50.3125 4.234375 
Q 43.84375 -1.421875 31.78125 -1.421875 
Q 19.734375 -1.421875 13.25 4.234375 
Q 6.78125 9.90625 6.78125 20.515625 
Q 6.78125 27.484375 10.78125 32.3125 
Q 14.796875 37.15625 21.921875 38.8125 
z
M 18.3125 54.390625 
Q 18.3125 48.734375 21.84375 45.5625 
Q 25.390625 42.390625 31.78125 42.390625 
Q 38.140625 42.390625 41.71875 45.5625 
Q 45.3125 48.734375 45.3125 54.390625 
Q 45.3125 60.0625 41.71875 63.234375 
Q 38.140625 66.40625 31.78125 66.40625 
Q 25.390625 66.40625 21.84375 63.234375 
Q 18.3125 60.0625 18.3125 54.390625 
z
" id="DejaVuSans-56"/>
       </defs>
       <use xlink:href="#DejaVuSans-39"/>
       <use x="27.490234" xlink:href="#DejaVuSans-49"/>
       <use x="91.113281" xlink:href="#DejaVuSans-57"/>
       <use x="154.736328" xlink:href="#DejaVuSans-45"/>
       <use x="190.820312" xlink:href="#DejaVuSans-56"/>
      </g>
     </g>
    </g>
    <g id="xtick_7">
     <g id="line2d_7">
      <g>
       <use style="stroke:#000000;stroke-width:0.8;" x="1083.331873" xlink:href="#m76dfd5efca" y="2563.2"/>
      </g>
     </g>
     <g id="text_7">
      <!-- '19-9 -->
      <g transform="translate(1051.527185 2589.196094)scale(0.25 -0.25)">
       <use xlink:href="#DejaVuSans-39"/>
       <use x="27.490234" xlink:href="#DejaVuSans-49"/>
       <use x="91.113281" xlink:href="#DejaVuSans-57"/>
       <use x="154.736328" xlink:href="#DejaVuSans-45"/>
       <use x="190.820312" xlink:href="#DejaVuSans-57"/>
      </g>
     </g>
    </g>
    <g id="xtick_8">
     <g id="line2d_8">
      <g>
       <use style="stroke:#000000;stroke-width:0.8;" x="1144.449069" xlink:href="#m76dfd5efca" y="2563.2"/>
      </g>
     </g>
     <g id="text_8">
      <!-- '19-10 -->
      <g transform="translate(1104.691257 2589.196094)scale(0.25 -0.25)">
       <defs>
        <path d="M 31.78125 66.40625 
Q 24.171875 66.40625 20.328125 58.90625 
Q 16.5 51.421875 16.5 36.375 
Q 16.5 21.390625 20.328125 13.890625 
Q 24.171875 6.390625 31.78125 6.390625 
Q 39.453125 6.390625 43.28125 13.890625 
Q 47.125 21.390625 47.125 36.375 
Q 47.125 51.421875 43.28125 58.90625 
Q 39.453125 66.40625 31.78125 66.40625 
z
M 31.78125 74.21875 
Q 44.046875 74.21875 50.515625 64.515625 
Q 56.984375 54.828125 56.984375 36.375 
Q 56.984375 17.96875 50.515625 8.265625 
Q 44.046875 -1.421875 31.78125 -1.421875 
Q 19.53125 -1.421875 13.0625 8.265625 
Q 6.59375 17.96875 6.59375 36.375 
Q 6.59375 54.828125 13.0625 64.515625 
Q 19.53125 74.21875 31.78125 74.21875 
z
" id="DejaVuSans-48"/>
       </defs>
       <use xlink:href="#DejaVuSans-39"/>
       <use x="27.490234" xlink:href="#DejaVuSans-49"/>
       <use x="91.113281" xlink:href="#DejaVuSans-57"/>
       <use x="154.736328" xlink:href="#DejaVuSans-45"/>
       <use x="190.820312" xlink:href="#DejaVuSans-49"/>
       <use x="254.443359" xlink:href="#DejaVuSans-48"/>
      </g>
     </g>
    </g>
    <g id="xtick_9">
     <g id="line2d_9">
      <g>
       <use style="stroke:#000000;stroke-width:0.8;" x="1205.566265" xlink:href="#m76dfd5efca" y="2563.2"/>
      </g>
     </g>
     <g id="text_9">
      <!-- '19-11 -->
      <g transform="translate(1165.808453 2589.196094)scale(0.25 -0.25)">
       <use xlink:href="#DejaVuSans-39"/>
       <use x="27.490234" xlink:href="#DejaVuSans-49"/>
       <use x="91.113281" xlink:href="#DejaVuSans-57"/>
       <use x="154.736328" xlink:href="#DejaVuSans-45"/>
       <use x="190.820312" xlink:href="#DejaVuSans-49"/>
       <use x="254.443359" xlink:href="#DejaVuSans-49"/>
      </g>
     </g>
    </g>
    <g id="xtick_10">
     <g id="line2d_10">
      <g>
       <use style="stroke:#000000;stroke-width:0.8;" x="1266.683461" xlink:href="#m76dfd5efca" y="2563.2"/>
      </g>
     </g>
     <g id="text_10">
      <!-- '19-12 -->
      <g transform="translate(1226.925649 2589.196094)scale(0.25 -0.25)">
       <defs>
        <path d="M 19.1875 8.296875 
L 53.609375 8.296875 
L 53.609375 0 
L 7.328125 0 
L 7.328125 8.296875 
Q 12.9375 14.109375 22.625 23.890625 
Q 32.328125 33.6875 34.8125 36.53125 
Q 39.546875 41.84375 41.421875 45.53125 
Q 43.3125 49.21875 43.3125 52.78125 
Q 43.3125 58.59375 39.234375 62.25 
Q 35.15625 65.921875 28.609375 65.921875 
Q 23.96875 65.921875 18.8125 64.3125 
Q 13.671875 62.703125 7.8125 59.421875 
L 7.8125 69.390625 
Q 13.765625 71.78125 18.9375 73 
Q 24.125 74.21875 28.421875 74.21875 
Q 39.75 74.21875 46.484375 68.546875 
Q 53.21875 62.890625 53.21875 53.421875 
Q 53.21875 48.921875 51.53125 44.890625 
Q 49.859375 40.875 45.40625 35.40625 
Q 44.1875 33.984375 37.640625 27.21875 
Q 31.109375 20.453125 19.1875 8.296875 
z
" id="DejaVuSans-50"/>
       </defs>
       <use xlink:href="#DejaVuSans-39"/>
       <use x="27.490234" xlink:href="#DejaVuSans-49"/>
       <use x="91.113281" xlink:href="#DejaVuSans-57"/>
       <use x="154.736328" xlink:href="#DejaVuSans-45"/>
       <use x="190.820312" xlink:href="#DejaVuSans-49"/>
       <use x="254.443359" xlink:href="#DejaVuSans-50"/>
      </g>
     </g>
    </g>
    <g id="xtick_11">
     <g id="line2d_11">
      <g>
       <use style="stroke:#000000;stroke-width:0.8;" x="1327.800657" xlink:href="#m76dfd5efca" y="2563.2"/>
      </g>
     </g>
     <g id="text_11">
      <!-- '20-1 -->
      <g transform="translate(1295.99597 2589.196094)scale(0.25 -0.25)">
       <use xlink:href="#DejaVuSans-39"/>
       <use x="27.490234" xlink:href="#DejaVuSans-50"/>
       <use x="91.113281" xlink:href="#DejaVuSans-48"/>
       <use x="154.736328" xlink:href="#DejaVuSans-45"/>
       <use x="190.820312" xlink:href="#DejaVuSans-49"/>
      </g>
     </g>
    </g>
    <g id="xtick_12">
     <g id="line2d_12">
      <g>
       <use style="stroke:#000000;stroke-width:0.8;" x="1388.917853" xlink:href="#m76dfd5efca" y="2563.2"/>
      </g>
     </g>
     <g id="text_12">
      <!-- '20-2 -->
      <g transform="translate(1357.113166 2589.196094)scale(0.25 -0.25)">
       <use xlink:href="#DejaVuSans-39"/>
       <use x="27.490234" xlink:href="#DejaVuSans-50"/>
       <use x="91.113281" xlink:href="#DejaVuSans-48"/>
       <use x="154.736328" xlink:href="#DejaVuSans-45"/>
       <use x="190.820312" xlink:href="#DejaVuSans-50"/>
      </g>
     </g>
    </g>
    <g id="xtick_13">
     <g id="line2d_13">
      <g>
       <use style="stroke:#000000;stroke-width:0.8;" x="1450.035049" xlink:href="#m76dfd5efca" y="2563.2"/>
      </g>
     </g>
     <g id="text_13">
      <!-- '20-3 -->
      <g transform="translate(1418.230362 2589.196094)scale(0.25 -0.25)">
       <use xlink:href="#DejaVuSans-39"/>
       <use x="27.490234" xlink:href="#DejaVuSans-50"/>
       <use x="91.113281" xlink:href="#DejaVuSans-48"/>
       <use x="154.736328" xlink:href="#DejaVuSans-45"/>
       <use x="190.820312" xlink:href="#DejaVuSans-51"/>
      </g>
     </g>
    </g>
    <g id="xtick_14">
     <g id="line2d_14">
      <g>
       <use style="stroke:#000000;stroke-width:0.8;" x="1511.152245" xlink:href="#m76dfd5efca" y="2563.2"/>
      </g>
     </g>
     <g id="text_14">
      <!-- '20-4 -->
      <g transform="translate(1479.347558 2589.196094)scale(0.25 -0.25)">
       <use xlink:href="#DejaVuSans-39"/>
       <use x="27.490234" xlink:href="#DejaVuSans-50"/>
       <use x="91.113281" xlink:href="#DejaVuSans-48"/>
       <use x="154.736328" xlink:href="#DejaVuSans-45"/>
       <use x="190.820312" xlink:href="#DejaVuSans-52"/>
      </g>
     </g>
    </g>
    <g id="xtick_15">
     <g id="line2d_15">
      <g>
       <use style="stroke:#000000;stroke-width:0.8;" x="1572.269441" xlink:href="#m76dfd5efca" y="2563.2"/>
      </g>
     </g>
     <g id="text_15">
      <!-- '20-5 -->
      <g transform="translate(1540.464754 2589.196094)scale(0.25 -0.25)">
       <use xlink:href="#DejaVuSans-39"/>
       <use x="27.490234" xlink:href="#DejaVuSans-50"/>
       <use x="91.113281" xlink:href="#DejaVuSans-48"/>
       <use x="154.736328" xlink:href="#DejaVuSans-45"/>
       <use x="190.820312" xlink:href="#DejaVuSans-53"/>
      </g>
     </g>
    </g>
    <g id="xtick_16">
     <g id="line2d_16">
      <g>
       <use style="stroke:#000000;stroke-width:0.8;" x="1633.386637" xlink:href="#m76dfd5efca" y="2563.2"/>
      </g>
     </g>
     <g id="text_16">
      <!-- '20-6 -->
      <g transform="translate(1601.58195 2589.196094)scale(0.25 -0.25)">
       <use xlink:href="#DejaVuSans-39"/>
       <use x="27.490234" xlink:href="#DejaVuSans-50"/>
       <use x="91.113281" xlink:href="#DejaVuSans-48"/>
       <use x="154.736328" xlink:href="#DejaVuSans-45"/>
       <use x="190.820312" xlink:href="#DejaVuSans-54"/>
      </g>
     </g>
    </g>
    <g id="xtick_17">
     <g id="line2d_17">
      <g>
       <use style="stroke:#000000;stroke-width:0.8;" x="1694.503834" xlink:href="#m76dfd5efca" y="2563.2"/>
      </g>
     </g>
     <g id="text_17">
      <!-- '20-7 -->
      <g transform="translate(1662.699146 2589.196094)scale(0.25 -0.25)">
       <use xlink:href="#DejaVuSans-39"/>
       <use x="27.490234" xlink:href="#DejaVuSans-50"/>
       <use x="91.113281" xlink:href="#DejaVuSans-48"/>
       <use x="154.736328" xlink:href="#DejaVuSans-45"/>
       <use x="190.820312" xlink:href="#DejaVuSans-55"/>
      </g>
     </g>
    </g>
    <g id="xtick_18">
     <g id="line2d_18">
      <g>
       <use style="stroke:#000000;stroke-width:0.8;" x="1755.62103" xlink:href="#m76dfd5efca" y="2563.2"/>
      </g>
     </g>
     <g id="text_18">
      <!-- '20-8 -->
      <g transform="translate(1723.816342 2589.196094)scale(0.25 -0.25)">
       <use xlink:href="#DejaVuSans-39"/>
       <use x="27.490234" xlink:href="#DejaVuSans-50"/>
       <use x="91.113281" xlink:href="#DejaVuSans-48"/>
       <use x="154.736328" xlink:href="#DejaVuSans-45"/>
       <use x="190.820312" xlink:href="#DejaVuSans-56"/>
      </g>
     </g>
    </g>
    <g id="xtick_19">
     <g id="line2d_19">
      <g>
       <use style="stroke:#000000;stroke-width:0.8;" x="1816.738226" xlink:href="#m76dfd5efca" y="2563.2"/>
      </g>
     </g>
     <g id="text_19">
      <!-- '20-9 -->
      <g transform="translate(1784.933538 2589.196094)scale(0.25 -0.25)">
       <use xlink:href="#DejaVuSans-39"/>
       <use x="27.490234" xlink:href="#DejaVuSans-50"/>
       <use x="91.113281" xlink:href="#DejaVuSans-48"/>
       <use x="154.736328" xlink:href="#DejaVuSans-45"/>
       <use x="190.820312" xlink:href="#DejaVuSans-57"/>
      </g>
     </g>
    </g>
    <g id="xtick_20">
     <g id="line2d_20">
      <g>
       <use style="stroke:#000000;stroke-width:0.8;" x="1877.855422" xlink:href="#m76dfd5efca" y="2563.2"/>
      </g>
     </g>
     <g id="text_20">
      <!-- '20-10 -->
      <g transform="translate(1838.097609 2589.196094)scale(0.25 -0.25)">
       <use xlink:href="#DejaVuSans-39"/>
       <use x="27.490234" xlink:href="#DejaVuSans-50"/>
       <use x="91.113281" xlink:href="#DejaVuSans-48"/>
       <use x="154.736328" xlink:href="#DejaVuSans-45"/>
       <use x="190.820312" xlink:href="#DejaVuSans-49"/>
       <use x="254.443359" xlink:href="#DejaVuSans-48"/>
      </g>
     </g>
    </g>
    <g id="xtick_21">
     <g id="line2d_21">
      <g>
       <use style="stroke:#000000;stroke-width:0.8;" x="1938.972618" xlink:href="#m76dfd5efca" y="2563.2"/>
      </g>
     </g>
     <g id="text_21">
      <!-- '20-11 -->
      <g transform="translate(1899.214805 2589.196094)scale(0.25 -0.25)">
       <use xlink:href="#DejaVuSans-39"/>
       <use x="27.490234" xlink:href="#DejaVuSans-50"/>
       <use x="91.113281" xlink:href="#DejaVuSans-48"/>
       <use x="154.736328" xlink:href="#DejaVuSans-45"/>
       <use x="190.820312" xlink:href="#DejaVuSans-49"/>
       <use x="254.443359" xlink:href="#DejaVuSans-49"/>
      </g>
     </g>
    </g>
    <g id="xtick_22">
     <g id="line2d_22">
      <g>
       <use style="stroke:#000000;stroke-width:0.8;" x="2000.089814" xlink:href="#m76dfd5efca" y="2563.2"/>
      </g>
     </g>
     <g id="text_22">
      <!-- '20-12 -->
      <g transform="translate(1960.332001 2589.196094)scale(0.25 -0.25)">
       <use xlink:href="#DejaVuSans-39"/>
       <use x="27.490234" xlink:href="#DejaVuSans-50"/>
       <use x="91.113281" xlink:href="#DejaVuSans-48"/>
       <use x="154.736328" xlink:href="#DejaVuSans-45"/>
       <use x="190.820312" xlink:href="#DejaVuSans-49"/>
       <use x="254.443359" xlink:href="#DejaVuSans-50"/>
      </g>
     </g>
    </g>
    <g id="xtick_23">
     <g id="line2d_23">
      <g>
       <use style="stroke:#000000;stroke-width:0.8;" x="2061.20701" xlink:href="#m76dfd5efca" y="2563.2"/>
      </g>
     </g>
     <g id="text_23">
      <!-- '21-1 -->
      <g transform="translate(2029.402322 2589.196094)scale(0.25 -0.25)">
       <use xlink:href="#DejaVuSans-39"/>
       <use x="27.490234" xlink:href="#DejaVuSans-50"/>
       <use x="91.113281" xlink:href="#DejaVuSans-49"/>
       <use x="154.736328" xlink:href="#DejaVuSans-45"/>
       <use x="190.820312" xlink:href="#DejaVuSans-49"/>
      </g>
     </g>
    </g>
    <g id="xtick_24">
     <g id="line2d_24">
      <g>
       <use style="stroke:#000000;stroke-width:0.8;" x="2122.324206" xlink:href="#m76dfd5efca" y="2563.2"/>
      </g>
     </g>
     <g id="text_24">
      <!-- '21-2 -->
      <g transform="translate(2090.519518 2589.196094)scale(0.25 -0.25)">
       <use xlink:href="#DejaVuSans-39"/>
       <use x="27.490234" xlink:href="#DejaVuSans-50"/>
       <use x="91.113281" xlink:href="#DejaVuSans-49"/>
       <use x="154.736328" xlink:href="#DejaVuSans-45"/>
       <use x="190.820312" xlink:href="#DejaVuSans-50"/>
      </g>
     </g>
    </g>
    <g id="xtick_25">
     <g id="line2d_25">
      <g>
       <use style="stroke:#000000;stroke-width:0.8;" x="2183.441402" xlink:href="#m76dfd5efca" y="2563.2"/>
      </g>
     </g>
     <g id="text_25">
      <!-- '21-3 -->
      <g transform="translate(2151.636714 2589.196094)scale(0.25 -0.25)">
       <use xlink:href="#DejaVuSans-39"/>
       <use x="27.490234" xlink:href="#DejaVuSans-50"/>
       <use x="91.113281" xlink:href="#DejaVuSans-49"/>
       <use x="154.736328" xlink:href="#DejaVuSans-45"/>
       <use x="190.820312" xlink:href="#DejaVuSans-51"/>
      </g>
     </g>
    </g>
    <g id="xtick_26">
     <g id="line2d_26">
      <g>
       <use style="stroke:#000000;stroke-width:0.8;" x="2244.558598" xlink:href="#m76dfd5efca" y="2563.2"/>
      </g>
     </g>
     <g id="text_26">
      <!-- '21-4 -->
      <g transform="translate(2212.753911 2589.196094)scale(0.25 -0.25)">
       <use xlink:href="#DejaVuSans-39"/>
       <use x="27.490234" xlink:href="#DejaVuSans-50"/>
       <use x="91.113281" xlink:href="#DejaVuSans-49"/>
       <use x="154.736328" xlink:href="#DejaVuSans-45"/>
       <use x="190.820312" xlink:href="#DejaVuSans-52"/>
      </g>
     </g>
    </g>
    <g id="xtick_27">
     <g id="line2d_27">
      <g>
       <use style="stroke:#000000;stroke-width:0.8;" x="2305.675794" xlink:href="#m76dfd5efca" y="2563.2"/>
      </g>
     </g>
     <g id="text_27">
      <!-- '21-5 -->
      <g transform="translate(2273.871107 2589.196094)scale(0.25 -0.25)">
       <use xlink:href="#DejaVuSans-39"/>
       <use x="27.490234" xlink:href="#DejaVuSans-50"/>
       <use x="91.113281" xlink:href="#DejaVuSans-49"/>
       <use x="154.736328" xlink:href="#DejaVuSans-45"/>
       <use x="190.820312" xlink:href="#DejaVuSans-53"/>
      </g>
     </g>
    </g>
    <g id="xtick_28">
     <g id="line2d_28">
      <g>
       <use style="stroke:#000000;stroke-width:0.8;" x="2366.79299" xlink:href="#m76dfd5efca" y="2563.2"/>
      </g>
     </g>
     <g id="text_28">
      <!-- '21-6 -->
      <g transform="translate(2334.988303 2589.196094)scale(0.25 -0.25)">
       <use xlink:href="#DejaVuSans-39"/>
       <use x="27.490234" xlink:href="#DejaVuSans-50"/>
       <use x="91.113281" xlink:href="#DejaVuSans-49"/>
       <use x="154.736328" xlink:href="#DejaVuSans-45"/>
       <use x="190.820312" xlink:href="#DejaVuSans-54"/>
      </g>
     </g>
    </g>
    <g id="xtick_29">
     <g id="line2d_29">
      <g>
       <use style="stroke:#000000;stroke-width:0.8;" x="2427.910186" xlink:href="#m76dfd5efca" y="2563.2"/>
      </g>
     </g>
     <g id="text_29">
      <!-- '21-7 -->
      <g transform="translate(2396.105499 2589.196094)scale(0.25 -0.25)">
       <use xlink:href="#DejaVuSans-39"/>
       <use x="27.490234" xlink:href="#DejaVuSans-50"/>
       <use x="91.113281" xlink:href="#DejaVuSans-49"/>
       <use x="154.736328" xlink:href="#DejaVuSans-45"/>
       <use x="190.820312" xlink:href="#DejaVuSans-55"/>
      </g>
     </g>
    </g>
    <g id="xtick_30">
     <g id="line2d_30">
      <g>
       <use style="stroke:#000000;stroke-width:0.8;" x="2489.027382" xlink:href="#m76dfd5efca" y="2563.2"/>
      </g>
     </g>
     <g id="text_30">
      <!-- '21-8 -->
      <g transform="translate(2457.222695 2589.196094)scale(0.25 -0.25)">
       <use xlink:href="#DejaVuSans-39"/>
       <use x="27.490234" xlink:href="#DejaVuSans-50"/>
       <use x="91.113281" xlink:href="#DejaVuSans-49"/>
       <use x="154.736328" xlink:href="#DejaVuSans-45"/>
       <use x="190.820312" xlink:href="#DejaVuSans-56"/>
      </g>
     </g>
    </g>
    <g id="xtick_31">
     <g id="line2d_31">
      <g>
       <use style="stroke:#000000;stroke-width:0.8;" x="2550.144578" xlink:href="#m76dfd5efca" y="2563.2"/>
      </g>
     </g>
     <g id="text_31">
      <!-- '21-9 -->
      <g transform="translate(2518.339891 2589.196094)scale(0.25 -0.25)">
       <use xlink:href="#DejaVuSans-39"/>
       <use x="27.490234" xlink:href="#DejaVuSans-50"/>
       <use x="91.113281" xlink:href="#DejaVuSans-49"/>
       <use x="154.736328" xlink:href="#DejaVuSans-45"/>
       <use x="190.820312" xlink:href="#DejaVuSans-57"/>
      </g>
     </g>
    </g>
    <g id="xtick_32">
     <g id="line2d_32">
      <g>
       <use style="stroke:#000000;stroke-width:0.8;" x="2611.261774" xlink:href="#m76dfd5efca" y="2563.2"/>
      </g>
     </g>
     <g id="text_32">
      <!-- '21-10 -->
      <g transform="translate(2571.503962 2589.196094)scale(0.25 -0.25)">
       <use xlink:href="#DejaVuSans-39"/>
       <use x="27.490234" xlink:href="#DejaVuSans-50"/>
       <use x="91.113281" xlink:href="#DejaVuSans-49"/>
       <use x="154.736328" xlink:href="#DejaVuSans-45"/>
       <use x="190.820312" xlink:href="#DejaVuSans-49"/>
       <use x="254.443359" xlink:href="#DejaVuSans-48"/>
      </g>
     </g>
    </g>
    <g id="xtick_33">
     <g id="line2d_33">
      <g>
       <use style="stroke:#000000;stroke-width:0.8;" x="2672.37897" xlink:href="#m76dfd5efca" y="2563.2"/>
      </g>
     </g>
     <g id="text_33">
      <!-- '21-11 -->
      <g transform="translate(2632.621158 2589.196094)scale(0.25 -0.25)">
       <use xlink:href="#DejaVuSans-39"/>
       <use x="27.490234" xlink:href="#DejaVuSans-50"/>
       <use x="91.113281" xlink:href="#DejaVuSans-49"/>
       <use x="154.736328" xlink:href="#DejaVuSans-45"/>
       <use x="190.820312" xlink:href="#DejaVuSans-49"/>
       <use x="254.443359" xlink:href="#DejaVuSans-49"/>
      </g>
     </g>
    </g>
    <g id="xtick_34">
     <g id="line2d_34">
      <g>
       <use style="stroke:#000000;stroke-width:0.8;" x="2733.496166" xlink:href="#m76dfd5efca" y="2563.2"/>
      </g>
     </g>
     <g id="text_34">
      <!-- '21-12 -->
      <g transform="translate(2693.738354 2589.196094)scale(0.25 -0.25)">
       <use xlink:href="#DejaVuSans-39"/>
       <use x="27.490234" xlink:href="#DejaVuSans-50"/>
       <use x="91.113281" xlink:href="#DejaVuSans-49"/>
       <use x="154.736328" xlink:href="#DejaVuSans-45"/>
       <use x="190.820312" xlink:href="#DejaVuSans-49"/>
       <use x="254.443359" xlink:href="#DejaVuSans-50"/>
      </g>
     </g>
    </g>
    <g id="xtick_35">
     <g id="line2d_35">
      <g>
       <use style="stroke:#000000;stroke-width:0.8;" x="2794.613363" xlink:href="#m76dfd5efca" y="2563.2"/>
      </g>
     </g>
     <g id="text_35">
      <!-- '22-1 -->
      <g transform="translate(2762.808675 2589.196094)scale(0.25 -0.25)">
       <use xlink:href="#DejaVuSans-39"/>
       <use x="27.490234" xlink:href="#DejaVuSans-50"/>
       <use x="91.113281" xlink:href="#DejaVuSans-50"/>
       <use x="154.736328" xlink:href="#DejaVuSans-45"/>
       <use x="190.820312" xlink:href="#DejaVuSans-49"/>
      </g>
     </g>
    </g>
    <g id="xtick_36">
     <g id="line2d_36">
      <g>
       <use style="stroke:#000000;stroke-width:0.8;" x="2855.730559" xlink:href="#m76dfd5efca" y="2563.2"/>
      </g>
     </g>
     <g id="text_36">
      <!-- '22-2 -->
      <g transform="translate(2823.925871 2589.196094)scale(0.25 -0.25)">
       <use xlink:href="#DejaVuSans-39"/>
       <use x="27.490234" xlink:href="#DejaVuSans-50"/>
       <use x="91.113281" xlink:href="#DejaVuSans-50"/>
       <use x="154.736328" xlink:href="#DejaVuSans-45"/>
       <use x="190.820312" xlink:href="#DejaVuSans-50"/>
      </g>
     </g>
    </g>
    <g id="xtick_37">
     <g id="line2d_37">
      <g>
       <use style="stroke:#000000;stroke-width:0.8;" x="2916.847755" xlink:href="#m76dfd5efca" y="2563.2"/>
      </g>
     </g>
     <g id="text_37">
      <!-- '22-3 -->
      <g transform="translate(2885.043067 2589.196094)scale(0.25 -0.25)">
       <use xlink:href="#DejaVuSans-39"/>
       <use x="27.490234" xlink:href="#DejaVuSans-50"/>
       <use x="91.113281" xlink:href="#DejaVuSans-50"/>
       <use x="154.736328" xlink:href="#DejaVuSans-45"/>
       <use x="190.820312" xlink:href="#DejaVuSans-51"/>
      </g>
     </g>
    </g>
    <g id="xtick_38">
     <g id="line2d_38">
      <g>
       <use style="stroke:#000000;stroke-width:0.8;" x="2977.964951" xlink:href="#m76dfd5efca" y="2563.2"/>
      </g>
     </g>
     <g id="text_38">
      <!-- '22-4 -->
      <g transform="translate(2946.160263 2589.196094)scale(0.25 -0.25)">
       <use xlink:href="#DejaVuSans-39"/>
       <use x="27.490234" xlink:href="#DejaVuSans-50"/>
       <use x="91.113281" xlink:href="#DejaVuSans-50"/>
       <use x="154.736328" xlink:href="#DejaVuSans-45"/>
       <use x="190.820312" xlink:href="#DejaVuSans-52"/>
      </g>
     </g>
    </g>
    <g id="xtick_39">
     <g id="line2d_39">
      <g>
       <use style="stroke:#000000;stroke-width:0.8;" x="3039.082147" xlink:href="#m76dfd5efca" y="2563.2"/>
      </g>
     </g>
     <g id="text_39">
      <!-- '22-5 -->
      <g transform="translate(3007.277459 2589.196094)scale(0.25 -0.25)">
       <use xlink:href="#DejaVuSans-39"/>
       <use x="27.490234" xlink:href="#DejaVuSans-50"/>
       <use x="91.113281" xlink:href="#DejaVuSans-50"/>
       <use x="154.736328" xlink:href="#DejaVuSans-45"/>
       <use x="190.820312" xlink:href="#DejaVuSans-53"/>
      </g>
     </g>
    </g>
    <g id="xtick_40">
     <g id="line2d_40">
      <g>
       <use style="stroke:#000000;stroke-width:0.8;" x="3100.199343" xlink:href="#m76dfd5efca" y="2563.2"/>
      </g>
     </g>
     <g id="text_40">
      <!-- '22-6 -->
      <g transform="translate(3068.394655 2589.196094)scale(0.25 -0.25)">
       <use xlink:href="#DejaVuSans-39"/>
       <use x="27.490234" xlink:href="#DejaVuSans-50"/>
       <use x="91.113281" xlink:href="#DejaVuSans-50"/>
       <use x="154.736328" xlink:href="#DejaVuSans-45"/>
       <use x="190.820312" xlink:href="#DejaVuSans-54"/>
      </g>
     </g>
    </g>
    <g id="xtick_41">
     <g id="line2d_41">
      <g>
       <use style="stroke:#000000;stroke-width:0.8;" x="3161.316539" xlink:href="#m76dfd5efca" y="2563.2"/>
      </g>
     </g>
     <g id="text_41">
      <!-- '22-7 -->
      <g transform="translate(3129.511851 2589.196094)scale(0.25 -0.25)">
       <use xlink:href="#DejaVuSans-39"/>
       <use x="27.490234" xlink:href="#DejaVuSans-50"/>
       <use x="91.113281" xlink:href="#DejaVuSans-50"/>
       <use x="154.736328" xlink:href="#DejaVuSans-45"/>
       <use x="190.820312" xlink:href="#DejaVuSans-55"/>
      </g>
     </g>
    </g>
    <g id="xtick_42">
     <g id="line2d_42">
      <g>
       <use style="stroke:#000000;stroke-width:0.8;" x="3222.433735" xlink:href="#m76dfd5efca" y="2563.2"/>
      </g>
     </g>
     <g id="text_42">
      <!-- '22-8 -->
      <g transform="translate(3190.629047 2589.196094)scale(0.25 -0.25)">
       <use xlink:href="#DejaVuSans-39"/>
       <use x="27.490234" xlink:href="#DejaVuSans-50"/>
       <use x="91.113281" xlink:href="#DejaVuSans-50"/>
       <use x="154.736328" xlink:href="#DejaVuSans-45"/>
       <use x="190.820312" xlink:href="#DejaVuSans-56"/>
      </g>
     </g>
    </g>
    <g id="xtick_43">
     <g id="line2d_43">
      <g>
       <use style="stroke:#000000;stroke-width:0.8;" x="3283.550931" xlink:href="#m76dfd5efca" y="2563.2"/>
      </g>
     </g>
     <g id="text_43">
      <!-- '22-9 -->
      <g transform="translate(3251.746243 2589.196094)scale(0.25 -0.25)">
       <use xlink:href="#DejaVuSans-39"/>
       <use x="27.490234" xlink:href="#DejaVuSans-50"/>
       <use x="91.113281" xlink:href="#DejaVuSans-50"/>
       <use x="154.736328" xlink:href="#DejaVuSans-45"/>
       <use x="190.820312" xlink:href="#DejaVuSans-57"/>
      </g>
     </g>
    </g>
    <g id="xtick_44">
     <g id="line2d_44">
      <g>
       <use style="stroke:#000000;stroke-width:0.8;" x="3344.668127" xlink:href="#m76dfd5efca" y="2563.2"/>
      </g>
     </g>
     <g id="text_44">
      <!-- '22-10 -->
      <g transform="translate(3304.910315 2589.196094)scale(0.25 -0.25)">
       <use xlink:href="#DejaVuSans-39"/>
       <use x="27.490234" xlink:href="#DejaVuSans-50"/>
       <use x="91.113281" xlink:href="#DejaVuSans-50"/>
       <use x="154.736328" xlink:href="#DejaVuSans-45"/>
       <use x="190.820312" xlink:href="#DejaVuSans-49"/>
       <use x="254.443359" xlink:href="#DejaVuSans-48"/>
      </g>
     </g>
    </g>
    <g id="xtick_45">
     <g id="line2d_45">
      <g>
       <use style="stroke:#000000;stroke-width:0.8;" x="3405.785323" xlink:href="#m76dfd5efca" y="2563.2"/>
      </g>
     </g>
     <g id="text_45">
      <!-- '22-10 -->
      <g transform="translate(3366.027511 2589.196094)scale(0.25 -0.25)">
       <use xlink:href="#DejaVuSans-39"/>
       <use x="27.490234" xlink:href="#DejaVuSans-50"/>
       <use x="91.113281" xlink:href="#DejaVuSans-50"/>
       <use x="154.736328" xlink:href="#DejaVuSans-45"/>
       <use x="190.820312" xlink:href="#DejaVuSans-49"/>
       <use x="254.443359" xlink:href="#DejaVuSans-48"/>
      </g>
     </g>
    </g>
    <g id="xtick_46">
     <g id="line2d_46">
      <g>
       <use style="stroke:#000000;stroke-width:0.8;" x="3466.902519" xlink:href="#m76dfd5efca" y="2563.2"/>
      </g>
     </g>
     <g id="text_46">
      <!-- '22-11 -->
      <g transform="translate(3427.144707 2589.196094)scale(0.25 -0.25)">
       <use xlink:href="#DejaVuSans-39"/>
       <use x="27.490234" xlink:href="#DejaVuSans-50"/>
       <use x="91.113281" xlink:href="#DejaVuSans-50"/>
       <use x="154.736328" xlink:href="#DejaVuSans-45"/>
       <use x="190.820312" xlink:href="#DejaVuSans-49"/>
       <use x="254.443359" xlink:href="#DejaVuSans-49"/>
      </g>
     </g>
    </g>
    <g id="xtick_47">
     <g id="line2d_47">
      <g>
       <use style="stroke:#000000;stroke-width:0.8;" x="3528.019715" xlink:href="#m76dfd5efca" y="2563.2"/>
      </g>
     </g>
     <g id="text_47">
      <!-- '22-12 -->
      <g transform="translate(3488.261903 2589.196094)scale(0.25 -0.25)">
       <use xlink:href="#DejaVuSans-39"/>
       <use x="27.490234" xlink:href="#DejaVuSans-50"/>
       <use x="91.113281" xlink:href="#DejaVuSans-50"/>
       <use x="154.736328" xlink:href="#DejaVuSans-45"/>
       <use x="190.820312" xlink:href="#DejaVuSans-49"/>
       <use x="254.443359" xlink:href="#DejaVuSans-50"/>
      </g>
     </g>
    </g>
    <g id="xtick_48">
     <g id="line2d_48">
      <g>
       <use style="stroke:#000000;stroke-width:0.8;" x="3589.136911" xlink:href="#m76dfd5efca" y="2563.2"/>
      </g>
     </g>
     <g id="text_48">
      <!-- '23-1 -->
      <g transform="translate(3557.332224 2589.196094)scale(0.25 -0.25)">
       <use xlink:href="#DejaVuSans-39"/>
       <use x="27.490234" xlink:href="#DejaVuSans-50"/>
       <use x="91.113281" xlink:href="#DejaVuSans-51"/>
       <use x="154.736328" xlink:href="#DejaVuSans-45"/>
       <use x="190.820312" xlink:href="#DejaVuSans-49"/>
      </g>
     </g>
    </g>
    <g id="xtick_49">
     <g id="line2d_49">
      <g>
       <use style="stroke:#000000;stroke-width:0.8;" x="3650.254107" xlink:href="#m76dfd5efca" y="2563.2"/>
      </g>
     </g>
     <g id="text_49">
      <!-- '23-2 -->
      <g transform="translate(3618.44942 2589.196094)scale(0.25 -0.25)">
       <use xlink:href="#DejaVuSans-39"/>
       <use x="27.490234" xlink:href="#DejaVuSans-50"/>
       <use x="91.113281" xlink:href="#DejaVuSans-51"/>
       <use x="154.736328" xlink:href="#DejaVuSans-45"/>
       <use x="190.820312" xlink:href="#DejaVuSans-50"/>
      </g>
     </g>
    </g>
    <g id="xtick_50">
     <g id="line2d_50">
      <g>
       <use style="stroke:#000000;stroke-width:0.8;" x="3711.371303" xlink:href="#m76dfd5efca" y="2563.2"/>
      </g>
     </g>
     <g id="text_50">
      <!-- '23-3 -->
      <g transform="translate(3679.566616 2589.196094)scale(0.25 -0.25)">
       <use xlink:href="#DejaVuSans-39"/>
       <use x="27.490234" xlink:href="#DejaVuSans-50"/>
       <use x="91.113281" xlink:href="#DejaVuSans-51"/>
       <use x="154.736328" xlink:href="#DejaVuSans-45"/>
       <use x="190.820312" xlink:href="#DejaVuSans-51"/>
      </g>
     </g>
    </g>
    <g id="text_51">
     <!-- 年-月 -->
     <g transform="translate(2139 2644.567187)scale(0.6 -0.6)">
      <defs>
       <path d="M 31.25 60.9375 
Q 23.828125 48.046875 12.890625 39.453125 
L 7.421875 46.484375 
Q 23.4375 58.203125 29.296875 80.46875 
L 38.28125 78.125 
Q 39.84375 76.5625 37.109375 76.171875 
L 33.984375 68.359375 
L 89.0625 68.359375 
L 89.0625 60.9375 
L 60.546875 60.9375 
L 60.546875 47.65625 
L 83.984375 47.65625 
L 83.984375 40.234375 
L 60.546875 40.234375 
L 60.546875 22.65625 
L 93.359375 22.65625 
L 93.359375 15.234375 
L 60.546875 15.234375 
L 60.546875 -8.203125 
L 52.734375 -8.203125 
L 52.734375 15.234375 
L 7.8125 15.234375 
L 7.8125 22.65625 
L 25.390625 22.65625 
L 25.390625 47.65625 
L 52.734375 47.65625 
L 52.734375 60.9375 
L 31.25 60.9375 
z
M 33.203125 22.65625 
L 52.734375 22.65625 
L 52.734375 40.234375 
L 33.203125 40.234375 
z
" id="MS-Gothic-24180"/>
       <path d="M 46.875 39.0625 
L 46.875 32.8125 
L 2.34375 32.8125 
L 2.34375 39.0625 
z
" id="MS-Gothic-45"/>
       <path d="M 70.703125 22.65625 
L 33.59375 22.65625 
Q 33.59375 5.859375 16.40625 -8.984375 
L 9.765625 -1.5625 
Q 25.78125 8.59375 25.78125 28.90625 
L 25.78125 76.5625 
L 78.515625 76.5625 
L 78.515625 -0.390625 
Q 78.515625 -6.640625 71.875 -6.640625 
L 62.5 -6.640625 
L 60.9375 1.953125 
L 69.140625 1.953125 
Q 70.703125 1.953125 70.703125 3.515625 
z
M 33.59375 31.25 
L 70.703125 31.25 
L 70.703125 45.3125 
L 33.59375 45.3125 
z
M 33.59375 53.90625 
L 70.703125 53.90625 
L 70.703125 67.96875 
L 33.59375 67.96875 
z
" id="MS-Gothic-26376"/>
      </defs>
      <use xlink:href="#MS-Gothic-24180"/>
      <use x="100" xlink:href="#MS-Gothic-45"/>
      <use x="150" xlink:href="#MS-Gothic-26376"/>
     </g>
    </g>
   </g>
   <g id="matplotlib.axis_2">
    <g id="ytick_1">
     <g id="line2d_51">
      <defs>
       <path d="M 0 0 
L -3.5 0 
" id="m7e75a076d7" style="stroke:#000000;stroke-width:0.8;"/>
      </defs>
      <g>
       <use style="stroke:#000000;stroke-width:0.8;" x="540" xlink:href="#m7e75a076d7" y="2563.2"/>
      </g>
     </g>
     <g id="text_52">
      <!-- 0 -->
      <g transform="translate(513.9125 2574.597656)scale(0.3 -0.3)">
       <use xlink:href="#DejaVuSans-48"/>
      </g>
     </g>
    </g>
    <g id="ytick_2">
     <g id="line2d_52">
      <g>
       <use style="stroke:#000000;stroke-width:0.8;" x="540" xlink:href="#m7e75a076d7" y="2446.484211"/>
      </g>
     </g>
     <g id="text_53">
      <!-- 2 -->
      <g transform="translate(513.9125 2457.881867)scale(0.3 -0.3)">
       <use xlink:href="#DejaVuSans-50"/>
      </g>
     </g>
    </g>
    <g id="ytick_3">
     <g id="line2d_53">
      <g>
       <use style="stroke:#000000;stroke-width:0.8;" x="540" xlink:href="#m7e75a076d7" y="2329.768421"/>
      </g>
     </g>
     <g id="text_54">
      <!-- 4 -->
      <g transform="translate(513.9125 2341.166077)scale(0.3 -0.3)">
       <use xlink:href="#DejaVuSans-52"/>
      </g>
     </g>
    </g>
    <g id="ytick_4">
     <g id="line2d_54">
      <g>
       <use style="stroke:#000000;stroke-width:0.8;" x="540" xlink:href="#m7e75a076d7" y="2213.052632"/>
      </g>
     </g>
     <g id="text_55">
      <!-- 6 -->
      <g transform="translate(513.9125 2224.450288)scale(0.3 -0.3)">
       <use xlink:href="#DejaVuSans-54"/>
      </g>
     </g>
    </g>
    <g id="ytick_5">
     <g id="line2d_55">
      <g>
       <use style="stroke:#000000;stroke-width:0.8;" x="540" xlink:href="#m7e75a076d7" y="2096.336842"/>
      </g>
     </g>
     <g id="text_56">
      <!-- 8 -->
      <g transform="translate(513.9125 2107.734498)scale(0.3 -0.3)">
       <use xlink:href="#DejaVuSans-56"/>
      </g>
     </g>
    </g>
    <g id="ytick_6">
     <g id="line2d_56">
      <g>
       <use style="stroke:#000000;stroke-width:0.8;" x="540" xlink:href="#m7e75a076d7" y="1979.621053"/>
      </g>
     </g>
     <g id="text_57">
      <!-- 10 -->
      <g transform="translate(494.825 1991.018709)scale(0.3 -0.3)">
       <use xlink:href="#DejaVuSans-49"/>
       <use x="63.623047" xlink:href="#DejaVuSans-48"/>
      </g>
     </g>
    </g>
    <g id="ytick_7">
     <g id="line2d_57">
      <g>
       <use style="stroke:#000000;stroke-width:0.8;" x="540" xlink:href="#m7e75a076d7" y="1862.905263"/>
      </g>
     </g>
     <g id="text_58">
      <!-- 12 -->
      <g transform="translate(494.825 1874.302919)scale(0.3 -0.3)">
       <use xlink:href="#DejaVuSans-49"/>
       <use x="63.623047" xlink:href="#DejaVuSans-50"/>
      </g>
     </g>
    </g>
    <g id="ytick_8">
     <g id="line2d_58">
      <g>
       <use style="stroke:#000000;stroke-width:0.8;" x="540" xlink:href="#m7e75a076d7" y="1746.189474"/>
      </g>
     </g>
     <g id="text_59">
      <!-- 14 -->
      <g transform="translate(494.825 1757.58713)scale(0.3 -0.3)">
       <use xlink:href="#DejaVuSans-49"/>
       <use x="63.623047" xlink:href="#DejaVuSans-52"/>
      </g>
     </g>
    </g>
    <g id="ytick_9">
     <g id="line2d_59">
      <g>
       <use style="stroke:#000000;stroke-width:0.8;" x="540" xlink:href="#m7e75a076d7" y="1629.473684"/>
      </g>
     </g>
     <g id="text_60">
      <!-- 16 -->
      <g transform="translate(494.825 1640.87134)scale(0.3 -0.3)">
       <use xlink:href="#DejaVuSans-49"/>
       <use x="63.623047" xlink:href="#DejaVuSans-54"/>
      </g>
     </g>
    </g>
    <g id="ytick_10">
     <g id="line2d_60">
      <g>
       <use style="stroke:#000000;stroke-width:0.8;" x="540" xlink:href="#m7e75a076d7" y="1512.757895"/>
      </g>
     </g>
     <g id="text_61">
      <!-- 18 -->
      <g transform="translate(494.825 1524.155551)scale(0.3 -0.3)">
       <use xlink:href="#DejaVuSans-49"/>
       <use x="63.623047" xlink:href="#DejaVuSans-56"/>
      </g>
     </g>
    </g>
    <g id="ytick_11">
     <g id="line2d_61">
      <g>
       <use style="stroke:#000000;stroke-width:0.8;" x="540" xlink:href="#m7e75a076d7" y="1396.042105"/>
      </g>
     </g>
     <g id="text_62">
      <!-- 20 -->
      <g transform="translate(494.825 1407.439762)scale(0.3 -0.3)">
       <use xlink:href="#DejaVuSans-50"/>
       <use x="63.623047" xlink:href="#DejaVuSans-48"/>
      </g>
     </g>
    </g>
    <g id="ytick_12">
     <g id="line2d_62">
      <g>
       <use style="stroke:#000000;stroke-width:0.8;" x="540" xlink:href="#m7e75a076d7" y="1279.326316"/>
      </g>
     </g>
     <g id="text_63">
      <!-- 22 -->
      <g transform="translate(494.825 1290.723972)scale(0.3 -0.3)">
       <use xlink:href="#DejaVuSans-50"/>
       <use x="63.623047" xlink:href="#DejaVuSans-50"/>
      </g>
     </g>
    </g>
    <g id="ytick_13">
     <g id="line2d_63">
      <g>
       <use style="stroke:#000000;stroke-width:0.8;" x="540" xlink:href="#m7e75a076d7" y="1162.610526"/>
      </g>
     </g>
     <g id="text_64">
      <!-- 24 -->
      <g transform="translate(494.825 1174.008183)scale(0.3 -0.3)">
       <use xlink:href="#DejaVuSans-50"/>
       <use x="63.623047" xlink:href="#DejaVuSans-52"/>
      </g>
     </g>
    </g>
    <g id="ytick_14">
     <g id="line2d_64">
      <g>
       <use style="stroke:#000000;stroke-width:0.8;" x="540" xlink:href="#m7e75a076d7" y="1045.894737"/>
      </g>
     </g>
     <g id="text_65">
      <!-- 26 -->
      <g transform="translate(494.825 1057.292393)scale(0.3 -0.3)">
       <use xlink:href="#DejaVuSans-50"/>
       <use x="63.623047" xlink:href="#DejaVuSans-54"/>
      </g>
     </g>
    </g>
    <g id="ytick_15">
     <g id="line2d_65">
      <g>
       <use style="stroke:#000000;stroke-width:0.8;" x="540" xlink:href="#m7e75a076d7" y="929.178947"/>
      </g>
     </g>
     <g id="text_66">
      <!-- 28 -->
      <g transform="translate(494.825 940.576604)scale(0.3 -0.3)">
       <use xlink:href="#DejaVuSans-50"/>
       <use x="63.623047" xlink:href="#DejaVuSans-56"/>
      </g>
     </g>
    </g>
    <g id="ytick_16">
     <g id="line2d_66">
      <g>
       <use style="stroke:#000000;stroke-width:0.8;" x="540" xlink:href="#m7e75a076d7" y="812.463158"/>
      </g>
     </g>
     <g id="text_67">
      <!-- 30 -->
      <g transform="translate(494.825 823.860814)scale(0.3 -0.3)">
       <use xlink:href="#DejaVuSans-51"/>
       <use x="63.623047" xlink:href="#DejaVuSans-48"/>
      </g>
     </g>
    </g>
    <g id="ytick_17">
     <g id="line2d_67">
      <g>
       <use style="stroke:#000000;stroke-width:0.8;" x="540" xlink:href="#m7e75a076d7" y="695.747368"/>
      </g>
     </g>
     <g id="text_68">
      <!-- 32 -->
      <g transform="translate(494.825 707.145025)scale(0.3 -0.3)">
       <use xlink:href="#DejaVuSans-51"/>
       <use x="63.623047" xlink:href="#DejaVuSans-50"/>
      </g>
     </g>
    </g>
    <g id="ytick_18">
     <g id="line2d_68">
      <g>
       <use style="stroke:#000000;stroke-width:0.8;" x="540" xlink:href="#m7e75a076d7" y="579.031579"/>
      </g>
     </g>
     <g id="text_69">
      <!-- 34 -->
      <g transform="translate(494.825 590.429235)scale(0.3 -0.3)">
       <use xlink:href="#DejaVuSans-51"/>
       <use x="63.623047" xlink:href="#DejaVuSans-52"/>
      </g>
     </g>
    </g>
    <g id="ytick_19">
     <g id="line2d_69">
      <g>
       <use style="stroke:#000000;stroke-width:0.8;" x="540" xlink:href="#m7e75a076d7" y="462.315789"/>
      </g>
     </g>
     <g id="text_70">
      <!-- 36 -->
      <g transform="translate(494.825 473.713446)scale(0.3 -0.3)">
       <use xlink:href="#DejaVuSans-51"/>
       <use x="63.623047" xlink:href="#DejaVuSans-54"/>
      </g>
     </g>
    </g>
    <g id="ytick_20">
     <g id="line2d_70">
      <g>
       <use style="stroke:#000000;stroke-width:0.8;" x="540" xlink:href="#m7e75a076d7" y="345.6"/>
      </g>
     </g>
     <g id="text_71">
      <!-- 38 -->
      <g transform="translate(494.825 356.997656)scale(0.3 -0.3)">
       <use xlink:href="#DejaVuSans-51"/>
       <use x="63.623047" xlink:href="#DejaVuSans-56"/>
      </g>
     </g>
    </g>
    <g id="text_72">
     <!-- 出演回数 -->
     <g transform="translate(483.090625 1574.4)rotate(-90)scale(0.6 -0.6)">
      <defs>
       <path d="M 22.265625 70.703125 
Q 25.390625 70.3125 22.65625 68.359375 
L 22.65625 47.265625 
L 45.703125 47.265625 
L 45.703125 78.515625 
L 53.125 78.515625 
Q 56.25 78.125 53.515625 76.171875 
L 53.515625 47.265625 
L 76.171875 47.265625 
L 76.171875 70.3125 
L 83.59375 70.3125 
Q 86.71875 69.921875 83.984375 67.96875 
L 83.984375 36.328125 
L 76.171875 36.328125 
L 76.171875 39.84375 
L 53.515625 39.84375 
L 53.515625 6.25 
L 79.296875 6.25 
L 79.296875 30.078125 
L 86.71875 30.078125 
Q 89.84375 29.6875 87.109375 27.734375 
L 87.109375 -5.46875 
L 79.296875 -5.46875 
L 79.296875 -1.171875 
L 18.75 -1.171875 
L 18.75 -6.640625 
L 10.9375 -6.640625 
L 10.9375 30.46875 
L 18.359375 30.46875 
Q 21.484375 30.078125 18.75 28.125 
L 18.75 6.25 
L 45.703125 6.25 
L 45.703125 39.84375 
L 22.65625 39.84375 
L 22.65625 35.546875 
L 14.84375 35.546875 
L 14.84375 70.703125 
z
" id="MS-Gothic-20986"/>
       <path d="M 27.734375 21.875 
Q 23.046875 8.203125 13.671875 -6.25 
Q 13.671875 -8.984375 12.109375 -8.59375 
L 4.6875 -1.5625 
Q 16.015625 12.890625 20.3125 26.953125 
z
M 35.15625 43.359375 
L 57.8125 43.359375 
L 57.8125 50.390625 
L 41.40625 50.390625 
L 41.40625 56.640625 
L 82.421875 56.640625 
L 82.421875 50.390625 
L 65.625 50.390625 
L 65.625 43.359375 
L 88.28125 43.359375 
L 88.28125 9.765625 
L 35.15625 9.765625 
z
M 71.484375 8.59375 
Q 80.859375 3.125 94.921875 0 
L 91.015625 -8.203125 
Q 79.296875 -5.859375 66.796875 3.125 
z
M 26.953125 -1.171875 
Q 39.0625 1.171875 49.609375 8.203125 
L 54.6875 3.125 
Q 57.03125 0 53.125 1.5625 
Q 41.40625 -6.25 31.25 -8.59375 
z
M 57.8125 16.015625 
L 57.8125 23.4375 
L 42.96875 23.4375 
L 42.96875 16.015625 
z
M 80.46875 16.015625 
L 80.46875 23.4375 
L 65.625 23.4375 
L 65.625 16.015625 
z
M 80.46875 37.109375 
L 65.625 37.109375 
L 65.625 29.6875 
L 80.46875 29.6875 
z
M 57.8125 29.6875 
L 57.8125 37.109375 
L 42.96875 37.109375 
L 42.96875 29.6875 
z
M 85.546875 51.5625 
L 85.546875 63.671875 
L 37.890625 63.671875 
L 37.890625 51.5625 
L 30.078125 51.5625 
L 30.078125 71.09375 
L 56.25 71.09375 
L 56.25 80.859375 
L 65.625 80.859375 
Q 68.359375 79.6875 65.234375 78.125 
L 65.234375 71.09375 
L 93.359375 71.09375 
L 93.359375 51.5625 
z
M 23.046875 59.765625 
Q 16.796875 64.84375 10.546875 69.53125 
L 15.625 76.5625 
Q 23.046875 72.65625 28.125 67.578125 
z
M 19.53125 36.71875 
Q 12.890625 42.1875 7.03125 46.484375 
L 12.109375 53.90625 
Q 17.96875 50.78125 25 44.53125 
z
" id="MS-Gothic-28436"/>
       <path d="M 39.0625 26.953125 
L 60.9375 26.953125 
L 60.9375 47.65625 
L 39.0625 47.65625 
z
M 60.9375 15.625 
L 60.9375 19.53125 
L 39.0625 19.53125 
L 39.0625 15.234375 
L 31.25 15.234375 
L 31.25 55.078125 
L 68.75 55.078125 
L 68.75 15.625 
z
M 18.359375 4.6875 
L 81.25 4.6875 
L 81.25 68.359375 
L 18.359375 68.359375 
z
M 81.25 -6.25 
L 81.25 -2.734375 
L 18.359375 -2.734375 
L 18.359375 -8.203125 
L 10.546875 -8.203125 
L 10.546875 75.78125 
L 89.0625 75.78125 
L 89.0625 -6.25 
z
" id="MS-Gothic-22238"/>
       <path d="M 72.65625 21.484375 
Q 78.125 32.03125 79.296875 53.515625 
L 66.015625 53.515625 
Q 67.1875 32.03125 72.65625 21.484375 
z
M 87.109375 53.515625 
Q 86.328125 29.296875 77.734375 14.453125 
Q 83.984375 6.640625 95.3125 0.78125 
L 90.234375 -7.8125 
Q 77.734375 0.390625 72.65625 7.8125 
Q 63.671875 -2.34375 44.921875 -9.765625 
L 41.015625 -1.953125 
Q 61.328125 6.25 67.96875 14.84375 
Q 61.328125 27.734375 60.546875 40.625 
Q 58.203125 34.765625 55.859375 31.640625 
L 49.21875 36.71875 
Q 60.9375 53.90625 63.28125 79.296875 
L 71.484375 77.34375 
Q 73.828125 75.78125 70.3125 75 
Q 69.140625 67.96875 67.1875 60.9375 
L 93.75 60.9375 
L 93.75 53.515625 
L 87.109375 53.515625 
z
M 50.78125 72.265625 
Q 48.4375 66.40625 45.3125 62.5 
L 39.0625 66.015625 
Q 42.1875 71.09375 44.921875 77.734375 
L 51.953125 74.21875 
Q 53.515625 72.65625 50.78125 72.265625 
z
M 25.78125 17.1875 
Q 31.25 15.625 35.546875 13.671875 
Q 38.671875 17.1875 40.625 24.21875 
L 29.296875 24.21875 
Q 27.734375 20.703125 25.78125 17.1875 
z
M 20.3125 7.421875 
L 14.0625 10.9375 
Q 17.96875 16.796875 21.875 24.21875 
L 7.03125 24.21875 
L 7.03125 30.46875 
L 24.21875 30.46875 
Q 26.5625 35.546875 27.734375 39.0625 
L 35.15625 37.109375 
Q 36.71875 35.546875 33.984375 35.15625 
L 31.640625 30.46875 
L 53.90625 30.46875 
L 53.90625 24.21875 
L 48.046875 24.21875 
Q 46.09375 16.40625 42.1875 10.9375 
Q 45.703125 9.375 49.609375 7.03125 
L 46.09375 0.78125 
Q 41.796875 3.515625 38.28125 5.078125 
Q 28.125 -5.078125 10.9375 -7.421875 
L 8.203125 -0.390625 
Q 23.4375 1.171875 31.640625 8.203125 
Q 27.34375 10.15625 23.046875 11.71875 
z
M 28.125 80.859375 
L 34.375 80.859375 
Q 37.5 80.46875 34.765625 78.515625 
L 34.765625 61.71875 
L 54.6875 61.71875 
L 54.6875 55.46875 
L 38.28125 55.46875 
Q 42.578125 50.390625 51.5625 45.703125 
L 47.265625 39.0625 
Q 40.625 42.96875 34.765625 50 
L 34.765625 40.625 
L 28.125 40.625 
L 28.125 48.046875 
Q 21.875 40.234375 10.9375 33.984375 
L 5.859375 40.234375 
Q 17.96875 46.484375 25.78125 55.46875 
L 7.8125 55.46875 
L 7.8125 61.71875 
L 28.125 61.71875 
z
M 17.1875 62.890625 
Q 14.453125 68.75 10.15625 73.046875 
L 16.40625 76.953125 
Q 21.09375 72.265625 23.4375 67.1875 
L 17.1875 62.890625 
z
" id="MS-Gothic-25968"/>
      </defs>
      <use xlink:href="#MS-Gothic-20986"/>
      <use x="100" xlink:href="#MS-Gothic-28436"/>
      <use x="200" xlink:href="#MS-Gothic-22238"/>
      <use x="300" xlink:href="#MS-Gothic-25968"/>
     </g>
    </g>
   </g>
   <g id="patch_53">
    <path d="M 540 2563.2 
L 540 345.6 
" style="fill:none;stroke:#000000;stroke-linecap:square;stroke-linejoin:miter;stroke-width:0.8;"/>
   </g>
   <g id="patch_54">
    <path d="M 3888 2563.2 
L 3888 345.6 
" style="fill:none;stroke:#000000;stroke-linecap:square;stroke-linejoin:miter;stroke-width:0.8;"/>
   </g>
   <g id="patch_55">
    <path d="M 540 2563.2 
L 3888 2563.2 
" style="fill:none;stroke:#000000;stroke-linecap:square;stroke-linejoin:miter;stroke-width:0.8;"/>
   </g>
   <g id="patch_56">
    <path d="M 540 345.6 
L 3888 345.6 
" style="fill:none;stroke:#000000;stroke-linecap:square;stroke-linejoin:miter;stroke-width:0.8;"/>
   </g>
   <g id="text_73">
    <!-- 山口陽世の月別出演回数 -->
    <g transform="translate(1774 335.2875)scale(0.8 -0.8)">
     <defs>
      <path d="M 88.671875 61.328125 
Q 92.578125 60.546875 89.0625 58.203125 
L 89.0625 -4.296875 
L 80.078125 -4.296875 
L 80.078125 1.953125 
L 20.3125 1.953125 
L 20.3125 -5.859375 
L 11.328125 -5.859375 
L 11.328125 61.328125 
L 19.921875 61.328125 
Q 23.828125 60.546875 20.3125 58.203125 
L 20.3125 10.546875 
L 45.3125 10.546875 
L 45.3125 77.734375 
L 53.90625 77.734375 
Q 57.8125 76.953125 54.296875 74.609375 
L 54.296875 10.546875 
L 80.078125 10.546875 
L 80.078125 61.328125 
L 88.671875 61.328125 
z
" id="MS-Gothic-23665"/>
      <path d="M 73.828125 7.421875 
L 25 7.421875 
L 25 0 
L 16.015625 0 
L 16.015625 69.53125 
L 82.8125 69.53125 
L 82.8125 1.5625 
L 73.828125 1.5625 
z
M 25 60.9375 
L 25 16.015625 
L 73.828125 16.015625 
L 73.828125 60.9375 
z
" id="MS-Gothic-21475"/>
      <path d="M 28.125 45.3125 
Q 35.546875 35.15625 35.546875 24.21875 
Q 35.546875 8.984375 26.5625 8.984375 
L 21.875 8.984375 
L 20.3125 16.796875 
L 24.21875 16.796875 
Q 28.125 16.796875 27.734375 25 
Q 27.34375 36.328125 20.703125 44.921875 
L 28.515625 70.3125 
L 16.40625 70.3125 
L 16.40625 -7.8125 
L 8.59375 -7.8125 
L 8.59375 76.5625 
L 30.46875 76.5625 
L 32.03125 78.515625 
L 38.671875 72.65625 
L 37.109375 71.09375 
z
M 84.765625 23.4375 
L 80.859375 23.4375 
Q 74.609375 -5.078125 39.0625 -9.375 
L 36.71875 -1.953125 
Q 67.1875 0.390625 73.4375 23.4375 
L 67.96875 23.4375 
Q 61.328125 7.03125 39.84375 3.515625 
L 37.5 10.15625 
Q 55.46875 14.0625 59.765625 23.4375 
L 53.515625 23.4375 
Q 48.046875 17.96875 39.453125 14.84375 
L 36.328125 21.484375 
Q 48.828125 25.390625 53.515625 36.328125 
L 35.9375 36.328125 
L 35.9375 42.578125 
L 94.53125 42.578125 
L 94.53125 36.328125 
L 61.71875 36.328125 
Q 60.15625 32.8125 57.8125 29.6875 
L 92.1875 29.6875 
L 91.40625 5.078125 
Q 91.015625 -7.421875 82.421875 -7.421875 
L 74.609375 -7.421875 
L 73.4375 0 
L 80.078125 0 
Q 83.59375 0 83.984375 4.6875 
z
M 51.5625 53.90625 
L 78.125 53.90625 
L 78.125 60.546875 
L 51.5625 60.546875 
z
M 51.5625 66.796875 
L 78.125 66.796875 
L 78.125 73.046875 
L 51.5625 73.046875 
z
M 84.765625 79.296875 
L 84.765625 47.65625 
L 44.921875 47.65625 
L 44.921875 79.296875 
z
" id="MS-Gothic-38525"/>
      <path d="M 89.453125 7.421875 
L 89.453125 -1.171875 
L 27.734375 -1.171875 
L 27.734375 -7.8125 
L 19.921875 -7.8125 
L 19.921875 46.484375 
L 5.46875 46.484375 
L 5.46875 55.078125 
L 19.921875 55.078125 
L 19.921875 76.953125 
L 27.34375 76.953125 
Q 30.46875 76.5625 27.734375 74.609375 
L 27.734375 55.078125 
L 44.53125 55.078125 
L 44.53125 79.296875 
L 51.953125 79.296875 
Q 55.078125 78.90625 52.34375 76.953125 
L 52.34375 55.078125 
L 71.484375 55.078125 
L 71.484375 77.734375 
L 78.90625 77.734375 
Q 82.03125 77.34375 79.296875 75.390625 
L 79.296875 55.078125 
L 93.75 55.078125 
L 93.75 46.484375 
L 79.296875 46.484375 
L 79.296875 17.1875 
L 71.484375 17.1875 
L 71.484375 21.875 
L 52.34375 21.875 
L 52.34375 15.234375 
L 44.53125 15.234375 
L 44.53125 46.484375 
L 27.734375 46.484375 
L 27.734375 7.421875 
z
M 71.484375 29.296875 
L 71.484375 46.484375 
L 52.34375 46.484375 
L 52.34375 29.296875 
z
" id="MS-Gothic-19990"/>
      <path d="M 53.90625 55.078125 
Q 47.265625 16.015625 37.890625 6.640625 
Q 32.8125 1.5625 27.34375 1.5625 
Q 21.09375 1.5625 17.578125 5.078125 
Q 8.203125 14.453125 8.203125 28.515625 
Q 8.203125 45.703125 20.3125 57.8125 
Q 33.59375 71.09375 52.734375 71.09375 
Q 69.921875 71.09375 79.6875 61.328125 
Q 90.625 50.390625 90.625 35.546875 
Q 90.625 19.53125 80.46875 9.375 
Q 73.828125 2.734375 60.15625 -3.515625 
L 51.953125 4.6875 
Q 65.625 8.984375 73.4375 16.796875 
Q 80.859375 24.21875 80.859375 34.765625 
Q 80.859375 47.265625 72.65625 55.46875 
Q 64.453125 63.671875 46.875 62.890625 
L 53.90625 59.375 
Q 58.59375 57.421875 53.90625 55.078125 
z
M 44.921875 62.5 
Q 34.765625 60.15625 27.34375 52.734375 
Q 17.1875 42.578125 17.1875 27.734375 
Q 17.1875 18.75 23.046875 12.890625 
Q 24.21875 11.71875 26.5625 11.71875 
Q 28.90625 11.71875 31.640625 14.453125 
Q 40.625 23.4375 44.921875 62.5 
z
" id="MS-Gothic-12398"/>
      <path d="M 45.703125 26.953125 
L 30.859375 26.953125 
Q 27.34375 4.6875 9.765625 -8.203125 
L 5.859375 -0.78125 
Q 23.046875 11.328125 24.609375 35.15625 
L 25.390625 47.265625 
L 19.921875 47.265625 
L 19.921875 42.1875 
L 12.109375 42.1875 
L 12.109375 75.78125 
L 51.5625 75.78125 
L 51.5625 43.75 
L 43.75 43.75 
L 43.75 47.265625 
L 32.421875 47.265625 
L 31.640625 34.375 
L 53.515625 34.375 
L 51.5625 3.515625 
Q 50.78125 -5.859375 43.75 -5.859375 
L 33.203125 -5.859375 
L 32.03125 1.5625 
L 40.625 1.5625 
Q 44.140625 1.5625 44.53125 5.46875 
z
M 87.890625 0 
Q 87.890625 -6.640625 81.640625 -6.640625 
L 73.046875 -6.640625 
L 71.484375 0.78125 
L 78.90625 0.78125 
Q 80.078125 0.78125 80.078125 1.953125 
L 80.078125 76.953125 
L 87.5 76.953125 
Q 90.625 76.5625 87.890625 74.609375 
L 87.890625 0 
z
M 69.140625 67.578125 
Q 72.265625 67.1875 69.53125 65.234375 
L 69.53125 11.71875 
L 61.71875 11.71875 
L 61.71875 67.578125 
L 69.140625 67.578125 
z
M 43.75 53.515625 
L 43.75 69.53125 
L 19.921875 69.53125 
L 19.921875 53.515625 
z
" id="MS-Gothic-21029"/>
     </defs>
     <use xlink:href="#MS-Gothic-23665"/>
     <use x="100" xlink:href="#MS-Gothic-21475"/>
     <use x="200" xlink:href="#MS-Gothic-38525"/>
     <use x="300" xlink:href="#MS-Gothic-19990"/>
     <use x="400" xlink:href="#MS-Gothic-12398"/>
     <use x="500" xlink:href="#MS-Gothic-26376"/>
     <use x="600" xlink:href="#MS-Gothic-21029"/>
     <use x="700" xlink:href="#MS-Gothic-20986"/>
     <use x="800" xlink:href="#MS-Gothic-28436"/>
     <use x="900" xlink:href="#MS-Gothic-22238"/>
     <use x="1000" xlink:href="#MS-Gothic-25968"/>
    </g>
   </g>
  </g>
 </g>
 <defs>
  <clipPath id="p0cb7821cb0">
   <rect height="2217.6" width="3348" x="540" y="345.6"/>
  </clipPath>
 </defs>
</svg>
