<?xml version="1.0" encoding="utf-8" standalone="no"?>
<!DOCTYPE svg PUBLIC "-//W3C//DTD SVG 1.1//EN"
  "http://www.w3.org/Graphics/SVG/1.1/DTD/svg11.dtd">
<!-- Created with matplotlib (https://matplotlib.org/) -->
<svg height="2880pt" version="1.1" viewBox="0 0 4320 2880" width="4320pt" xmlns="http://www.w3.org/2000/svg" xmlns:xlink="http://www.w3.org/1999/xlink">
 <metadata>
  <rdf:RDF xmlns:cc="http://creativecommons.org/ns#" xmlns:dc="http://purl.org/dc/elements/1.1/" xmlns:rdf="http://www.w3.org/1999/02/22-rdf-syntax-ns#">
   <cc:Work>
    <dc:type rdf:resource="http://purl.org/dc/dcmitype/StillImage"/>
    <dc:date>2023-02-05T11:38:45.987922</dc:date>
    <dc:format>image/svg+xml</dc:format>
    <dc:creator>
     <cc:Agent>
      <dc:title>Matplotlib v3.3.4, https://matplotlib.org/</dc:title>
     </cc:Agent>
    </dc:creator>
   </cc:Work>
  </rdf:RDF>
 </metadata>
 <defs>
  <style type="text/css">*{stroke-linecap:butt;stroke-linejoin:round;}</style>
 </defs>
 <g id="figure_1">
  <g id="patch_1">
   <path d="M 0 2880 
L 4320 2880 
L 4320 0 
L 0 0 
z
" style="fill:#ffffff;"/>
  </g>
  <g id="axes_1">
   <g id="patch_2">
    <path d="M 540 2563.2 
L 3888 2563.2 
L 3888 345.6 
L 540 345.6 
z
" style="fill:#ffffff;"/>
   </g>
   <g id="matplotlib.axis_1">
    <g id="xtick_1">
     <g id="line2d_1">
      <defs>
       <path d="M 0 0 
L 0 3.5 
" id="m677fa3b1c5" style="stroke:#000000;stroke-width:0.8;"/>
      </defs>
      <g>
       <use style="stroke:#000000;stroke-width:0.8;" x="692.181818" xlink:href="#m677fa3b1c5" y="2563.2"/>
      </g>
     </g>
     <g id="text_1">
      <!-- '19-3 -->
      <g transform="translate(660.931818 2589.438281)scale(0.25 -0.25)">
       <defs>
        <path d="M 12.5 70.3125 
L 8.59375 70.3125 
L 8.59375 78.90625 
L 17.578125 78.90625 
L 17.578125 70.3125 
L 12.5 58.59375 
L 8.59375 58.59375 
z
" id="MS-Gothic-39"/>
        <path d="M 21.484375 0.78125 
L 21.484375 31.25 
L 21.484375 61.328125 
L 9.765625 61.328125 
L 9.765625 66.015625 
Q 23.4375 66.015625 25.78125 76.953125 
L 30.46875 76.953125 
L 30.46875 0.78125 
z
" id="MS-Gothic-49"/>
        <path d="M 35.15625 72.265625 
Q 44.140625 63.28125 44.140625 39.84375 
Q 44.140625 16.015625 33.59375 5.46875 
Q 28.90625 0.78125 21.875 0.78125 
Q 16.015625 0.78125 12.5 4.296875 
Q 6.25 10.546875 5.859375 18.359375 
L 14.84375 18.359375 
Q 14.84375 13.28125 18.359375 9.765625 
Q 19.921875 8.203125 22.65625 8.203125 
Q 25.390625 8.203125 27.734375 10.546875 
Q 33.59375 16.40625 35.15625 35.15625 
Q 30.859375 26.171875 21.875 26.171875 
Q 16.015625 26.171875 11.328125 30.859375 
Q 5.078125 37.109375 5.078125 51.5625 
Q 5.078125 64.84375 12.109375 71.875 
Q 17.1875 76.953125 23.828125 76.953125 
Q 30.46875 76.953125 35.15625 72.265625 
z
M 29.296875 67.578125 
Q 26.953125 69.921875 23.4375 69.921875 
Q 21.09375 69.921875 18.359375 67.1875 
Q 14.0625 62.890625 14.0625 51.5625 
Q 14.0625 39.453125 17.96875 35.546875 
Q 20.3125 33.203125 23.4375 33.203125 
Q 26.953125 33.203125 29.6875 35.9375 
Q 34.375 40.625 34.375 50 
Q 34.375 62.5 29.296875 67.578125 
z
" id="MS-Gothic-57"/>
        <path d="M 46.875 39.0625 
L 46.875 32.8125 
L 2.34375 32.8125 
L 2.34375 39.0625 
z
" id="MS-Gothic-45"/>
        <path d="M 13.28125 23.4375 
Q 12.890625 14.84375 16.796875 10.9375 
Q 19.53125 8.203125 24.21875 8.203125 
Q 28.125 8.203125 31.640625 11.71875 
Q 35.15625 15.234375 35.15625 23.4375 
Q 35.15625 29.6875 30.859375 33.984375 
Q 27.734375 37.109375 21.484375 36.71875 
L 21.484375 43.359375 
Q 27.734375 43.75 30.859375 46.875 
Q 33.984375 50 33.984375 56.25 
Q 33.984375 64.0625 30.46875 67.578125 
Q 28.125 69.921875 24.609375 69.921875 
Q 21.09375 69.921875 18.75 67.578125 
Q 14.84375 63.671875 14.453125 55.859375 
L 5.859375 55.859375 
Q 6.25 66.015625 12.5 72.265625 
Q 17.1875 76.953125 24.609375 76.953125 
Q 32.421875 76.953125 37.109375 72.265625 
Q 42.578125 66.796875 42.578125 57.8125 
Q 42.578125 49.609375 38.28125 45.3125 
Q 34.375 41.40625 30.859375 40.234375 
Q 35.9375 38.671875 38.671875 35.9375 
Q 44.140625 30.46875 44.140625 22.65625 
Q 44.140625 12.5 37.890625 6.25 
Q 32.421875 0.78125 24.21875 0.78125 
Q 15.234375 0.78125 10.15625 5.859375 
Q 4.296875 11.71875 4.296875 23.4375 
L 13.28125 23.4375 
z
" id="MS-Gothic-51"/>
       </defs>
       <use xlink:href="#MS-Gothic-39"/>
       <use x="50" xlink:href="#MS-Gothic-49"/>
       <use x="100" xlink:href="#MS-Gothic-57"/>
       <use x="150" xlink:href="#MS-Gothic-45"/>
       <use x="200" xlink:href="#MS-Gothic-51"/>
      </g>
     </g>
    </g>
    <g id="xtick_2">
     <g id="line2d_2">
      <g>
       <use style="stroke:#000000;stroke-width:0.8;" x="755.590909" xlink:href="#m677fa3b1c5" y="2563.2"/>
      </g>
     </g>
     <g id="text_2">
      <!-- '19-4 -->
      <g transform="translate(724.340909 2589.438281)scale(0.25 -0.25)">
       <defs>
        <path d="M 29.296875 0.78125 
L 29.296875 9.765625 
L 29.296875 18.75 
L 3.125 18.75 
L 3.125 26.171875 
L 29.296875 76.953125 
L 38.28125 76.953125 
L 38.28125 26.171875 
L 46.484375 26.171875 
L 46.484375 18.75 
L 38.28125 18.75 
L 38.28125 0.78125 
z
M 29.296875 26.171875 
L 29.296875 60.546875 
L 11.71875 26.171875 
z
" id="MS-Gothic-52"/>
       </defs>
       <use xlink:href="#MS-Gothic-39"/>
       <use x="50" xlink:href="#MS-Gothic-49"/>
       <use x="100" xlink:href="#MS-Gothic-57"/>
       <use x="150" xlink:href="#MS-Gothic-45"/>
       <use x="200" xlink:href="#MS-Gothic-52"/>
      </g>
     </g>
    </g>
    <g id="xtick_3">
     <g id="line2d_3">
      <g>
       <use style="stroke:#000000;stroke-width:0.8;" x="819" xlink:href="#m677fa3b1c5" y="2563.2"/>
      </g>
     </g>
     <g id="text_3">
      <!-- '19-5 -->
      <g transform="translate(787.75 2589.438281)scale(0.25 -0.25)">
       <defs>
        <path d="M 13.28125 22.265625 
Q 13.28125 14.453125 17.1875 10.546875 
Q 19.53125 8.203125 23.828125 8.203125 
Q 27.34375 8.203125 30.46875 11.328125 
Q 35.15625 16.015625 35.15625 26.953125 
Q 35.15625 37.109375 31.25 41.015625 
Q 28.90625 43.359375 25.78125 43.359375 
Q 18.75 43.359375 14.453125 35.15625 
L 6.640625 35.15625 
L 8.984375 76.953125 
L 42.578125 76.953125 
L 42.578125 69.53125 
L 16.40625 69.53125 
L 14.84375 44.140625 
Q 19.921875 50 27.734375 50 
Q 33.59375 50 37.890625 45.703125 
Q 44.140625 39.453125 44.140625 26.953125 
Q 44.140625 13.671875 36.71875 6.25 
Q 31.25 0.78125 23.4375 0.78125 
Q 15.234375 0.78125 10.546875 5.46875 
Q 4.6875 11.328125 4.296875 22.265625 
L 13.28125 22.265625 
z
" id="MS-Gothic-53"/>
       </defs>
       <use xlink:href="#MS-Gothic-39"/>
       <use x="50" xlink:href="#MS-Gothic-49"/>
       <use x="100" xlink:href="#MS-Gothic-57"/>
       <use x="150" xlink:href="#MS-Gothic-45"/>
       <use x="200" xlink:href="#MS-Gothic-53"/>
      </g>
     </g>
    </g>
    <g id="xtick_4">
     <g id="line2d_4">
      <g>
       <use style="stroke:#000000;stroke-width:0.8;" x="882.409091" xlink:href="#m677fa3b1c5" y="2563.2"/>
      </g>
     </g>
     <g id="text_4">
      <!-- '19-6 -->
      <g transform="translate(851.159091 2589.438281)scale(0.25 -0.25)">
       <defs>
        <path d="M 34.765625 59.375 
Q 34.765625 65.234375 32.03125 67.96875 
Q 30.46875 69.53125 28.125 69.53125 
Q 25 69.53125 22.65625 67.1875 
Q 16.015625 60.546875 14.453125 41.015625 
Q 19.921875 50 27.734375 50 
Q 33.59375 50 38.28125 45.3125 
Q 44.53125 39.0625 44.53125 26.171875 
Q 44.53125 12.109375 37.890625 5.46875 
Q 33.203125 0.78125 25.78125 0.78125 
Q 19.140625 0.78125 13.671875 6.25 
Q 5.46875 14.453125 5.46875 37.890625 
Q 5.46875 60.9375 16.796875 72.265625 
Q 21.484375 76.953125 28.515625 76.953125 
Q 34.375 76.953125 37.890625 73.4375 
Q 43.359375 67.96875 43.75 59.375 
L 34.765625 59.375 
z
M 26.171875 42.96875 
Q 22.65625 42.96875 19.921875 40.234375 
Q 15.234375 35.546875 15.234375 27.734375 
Q 15.234375 15.625 20.703125 10.15625 
Q 23.046875 7.8125 26.171875 7.8125 
Q 29.296875 7.8125 32.03125 10.546875 
Q 35.546875 14.0625 35.546875 26.171875 
Q 35.546875 36.71875 31.640625 40.625 
Q 29.296875 42.96875 26.171875 42.96875 
z
" id="MS-Gothic-54"/>
       </defs>
       <use xlink:href="#MS-Gothic-39"/>
       <use x="50" xlink:href="#MS-Gothic-49"/>
       <use x="100" xlink:href="#MS-Gothic-57"/>
       <use x="150" xlink:href="#MS-Gothic-45"/>
       <use x="200" xlink:href="#MS-Gothic-54"/>
      </g>
     </g>
    </g>
    <g id="xtick_5">
     <g id="line2d_5">
      <g>
       <use style="stroke:#000000;stroke-width:0.8;" x="945.818182" xlink:href="#m677fa3b1c5" y="2563.2"/>
      </g>
     </g>
     <g id="text_5">
      <!-- '19-7 -->
      <g transform="translate(914.568182 2589.438281)scale(0.25 -0.25)">
       <defs>
        <path d="M 16.015625 0.78125 
L 35.15625 69.53125 
L 6.25 69.53125 
L 6.25 76.953125 
L 43.359375 76.953125 
L 43.359375 68.75 
L 25 0.78125 
z
" id="MS-Gothic-55"/>
       </defs>
       <use xlink:href="#MS-Gothic-39"/>
       <use x="50" xlink:href="#MS-Gothic-49"/>
       <use x="100" xlink:href="#MS-Gothic-57"/>
       <use x="150" xlink:href="#MS-Gothic-45"/>
       <use x="200" xlink:href="#MS-Gothic-55"/>
      </g>
     </g>
    </g>
    <g id="xtick_6">
     <g id="line2d_6">
      <g>
       <use style="stroke:#000000;stroke-width:0.8;" x="1009.227273" xlink:href="#m677fa3b1c5" y="2563.2"/>
      </g>
     </g>
     <g id="text_6">
      <!-- '19-8 -->
      <g transform="translate(977.977273 2589.438281)scale(0.25 -0.25)">
       <defs>
        <path d="M 24.609375 36.328125 
Q 20.3125 36.328125 17.1875 33.203125 
Q 13.28125 29.296875 13.28125 22.65625 
Q 13.28125 14.84375 17.1875 10.9375 
Q 20.3125 7.8125 24.609375 7.8125 
Q 28.90625 7.8125 32.03125 10.9375 
Q 35.9375 14.84375 35.9375 22.65625 
Q 35.9375 29.296875 32.03125 33.203125 
Q 28.90625 36.328125 24.609375 36.328125 
z
M 32.421875 39.84375 
Q 35.9375 38.671875 38.671875 35.9375 
Q 44.921875 29.6875 44.921875 22.65625 
Q 44.921875 12.109375 38.671875 5.859375 
Q 33.59375 0.78125 24.609375 0.78125 
Q 15.625 0.78125 10.546875 5.859375 
Q 4.296875 12.109375 4.296875 22.65625 
Q 4.296875 29.6875 10.546875 35.9375 
Q 13.28125 38.671875 16.796875 39.84375 
Q 13.671875 41.015625 11.71875 42.96875 
Q 6.25 48.4375 6.25 55.859375 
L 6.25 56.25 
Q 6.25 66.015625 12.109375 71.875 
Q 17.1875 76.953125 24.609375 76.953125 
Q 32.03125 76.953125 37.109375 71.875 
Q 42.96875 66.015625 42.96875 56.25 
L 42.96875 55.859375 
Q 42.96875 48.4375 37.5 42.96875 
Q 35.546875 41.015625 32.421875 39.84375 
z
M 24.609375 69.921875 
Q 20.703125 69.921875 17.96875 67.1875 
Q 14.84375 64.0625 14.84375 56.25 
L 14.84375 55.859375 
Q 14.84375 48.828125 17.96875 45.703125 
Q 20.703125 42.96875 24.609375 42.96875 
Q 28.515625 42.96875 31.25 45.703125 
Q 34.375 48.828125 34.375 55.859375 
L 34.375 56.25 
Q 34.375 64.0625 31.25 67.1875 
Q 28.515625 69.921875 24.609375 69.921875 
z
" id="MS-Gothic-56"/>
       </defs>
       <use xlink:href="#MS-Gothic-39"/>
       <use x="50" xlink:href="#MS-Gothic-49"/>
       <use x="100" xlink:href="#MS-Gothic-57"/>
       <use x="150" xlink:href="#MS-Gothic-45"/>
       <use x="200" xlink:href="#MS-Gothic-56"/>
      </g>
     </g>
    </g>
    <g id="xtick_7">
     <g id="line2d_7">
      <g>
       <use style="stroke:#000000;stroke-width:0.8;" x="1072.636364" xlink:href="#m677fa3b1c5" y="2563.2"/>
      </g>
     </g>
     <g id="text_7">
      <!-- '19-9 -->
      <g transform="translate(1041.386364 2589.438281)scale(0.25 -0.25)">
       <use xlink:href="#MS-Gothic-39"/>
       <use x="50" xlink:href="#MS-Gothic-49"/>
       <use x="100" xlink:href="#MS-Gothic-57"/>
       <use x="150" xlink:href="#MS-Gothic-45"/>
       <use x="200" xlink:href="#MS-Gothic-57"/>
      </g>
     </g>
    </g>
    <g id="xtick_8">
     <g id="line2d_8">
      <g>
       <use style="stroke:#000000;stroke-width:0.8;" x="1136.045455" xlink:href="#m677fa3b1c5" y="2563.2"/>
      </g>
     </g>
     <g id="text_8">
      <!-- '19-10 -->
      <g transform="translate(1098.545455 2589.438281)scale(0.25 -0.25)">
       <defs>
        <path d="M 3.125 39.0625 
Q 3.125 62.109375 12.5 71.484375 
Q 17.96875 76.953125 24.609375 76.953125 
Q 31.25 76.953125 36.71875 71.484375 
Q 46.09375 62.109375 46.09375 39.0625 
Q 46.09375 15.625 36.71875 6.25 
Q 31.25 0.78125 24.609375 0.78125 
Q 17.96875 0.78125 12.5 6.25 
Q 3.125 15.625 3.125 39.0625 
z
M 37.109375 39.0625 
Q 37.109375 59.765625 29.6875 67.1875 
Q 27.34375 69.53125 24.609375 69.53125 
Q 21.875 69.53125 19.53125 67.1875 
Q 12.109375 59.375 12.109375 39.0625 
Q 12.109375 17.96875 19.53125 10.546875 
Q 21.875 8.203125 24.609375 8.203125 
Q 27.34375 8.203125 29.6875 10.546875 
Q 37.109375 17.96875 37.109375 39.0625 
z
" id="MS-Gothic-48"/>
       </defs>
       <use xlink:href="#MS-Gothic-39"/>
       <use x="50" xlink:href="#MS-Gothic-49"/>
       <use x="100" xlink:href="#MS-Gothic-57"/>
       <use x="150" xlink:href="#MS-Gothic-45"/>
       <use x="200" xlink:href="#MS-Gothic-49"/>
       <use x="250" xlink:href="#MS-Gothic-48"/>
      </g>
     </g>
    </g>
    <g id="xtick_9">
     <g id="line2d_9">
      <g>
       <use style="stroke:#000000;stroke-width:0.8;" x="1199.454545" xlink:href="#m677fa3b1c5" y="2563.2"/>
      </g>
     </g>
     <g id="text_9">
      <!-- '19-11 -->
      <g transform="translate(1161.954545 2589.438281)scale(0.25 -0.25)">
       <use xlink:href="#MS-Gothic-39"/>
       <use x="50" xlink:href="#MS-Gothic-49"/>
       <use x="100" xlink:href="#MS-Gothic-57"/>
       <use x="150" xlink:href="#MS-Gothic-45"/>
       <use x="200" xlink:href="#MS-Gothic-49"/>
       <use x="250" xlink:href="#MS-Gothic-49"/>
      </g>
     </g>
    </g>
    <g id="xtick_10">
     <g id="line2d_10">
      <g>
       <use style="stroke:#000000;stroke-width:0.8;" x="1262.863636" xlink:href="#m677fa3b1c5" y="2563.2"/>
      </g>
     </g>
     <g id="text_10">
      <!-- '19-12 -->
      <g transform="translate(1225.363636 2589.438281)scale(0.25 -0.25)">
       <defs>
        <path d="M 44.53125 8.203125 
L 44.53125 0.78125 
L 4.6875 0.78125 
L 4.6875 7.03125 
Q 13.671875 23.828125 26.953125 39.0625 
Q 34.375 47.65625 34.375 57.03125 
Q 34.375 63.671875 30.859375 67.1875 
Q 28.515625 69.53125 24.609375 69.53125 
Q 21.484375 69.53125 18.359375 66.40625 
Q 14.84375 62.890625 14.84375 51.953125 
L 6.25 51.953125 
Q 6.640625 66.015625 12.890625 72.265625 
Q 17.578125 76.953125 25.390625 76.953125 
Q 32.8125 76.953125 37.890625 71.875 
Q 43.359375 66.40625 43.359375 56.640625 
Q 43.359375 45.3125 32.8125 33.203125 
Q 21.484375 20.3125 14.0625 8.203125 
z
" id="MS-Gothic-50"/>
       </defs>
       <use xlink:href="#MS-Gothic-39"/>
       <use x="50" xlink:href="#MS-Gothic-49"/>
       <use x="100" xlink:href="#MS-Gothic-57"/>
       <use x="150" xlink:href="#MS-Gothic-45"/>
       <use x="200" xlink:href="#MS-Gothic-49"/>
       <use x="250" xlink:href="#MS-Gothic-50"/>
      </g>
     </g>
    </g>
    <g id="xtick_11">
     <g id="line2d_11">
      <g>
       <use style="stroke:#000000;stroke-width:0.8;" x="1326.272727" xlink:href="#m677fa3b1c5" y="2563.2"/>
      </g>
     </g>
     <g id="text_11">
      <!-- '20-1 -->
      <g transform="translate(1295.022727 2589.438281)scale(0.25 -0.25)">
       <use xlink:href="#MS-Gothic-39"/>
       <use x="50" xlink:href="#MS-Gothic-50"/>
       <use x="100" xlink:href="#MS-Gothic-48"/>
       <use x="150" xlink:href="#MS-Gothic-45"/>
       <use x="200" xlink:href="#MS-Gothic-49"/>
      </g>
     </g>
    </g>
    <g id="xtick_12">
     <g id="line2d_12">
      <g>
       <use style="stroke:#000000;stroke-width:0.8;" x="1389.681818" xlink:href="#m677fa3b1c5" y="2563.2"/>
      </g>
     </g>
     <g id="text_12">
      <!-- '20-2 -->
      <g transform="translate(1358.431818 2589.438281)scale(0.25 -0.25)">
       <use xlink:href="#MS-Gothic-39"/>
       <use x="50" xlink:href="#MS-Gothic-50"/>
       <use x="100" xlink:href="#MS-Gothic-48"/>
       <use x="150" xlink:href="#MS-Gothic-45"/>
       <use x="200" xlink:href="#MS-Gothic-50"/>
      </g>
     </g>
    </g>
    <g id="xtick_13">
     <g id="line2d_13">
      <g>
       <use style="stroke:#000000;stroke-width:0.8;" x="1453.090909" xlink:href="#m677fa3b1c5" y="2563.2"/>
      </g>
     </g>
     <g id="text_13">
      <!-- '20-3 -->
      <g transform="translate(1421.840909 2589.438281)scale(0.25 -0.25)">
       <use xlink:href="#MS-Gothic-39"/>
       <use x="50" xlink:href="#MS-Gothic-50"/>
       <use x="100" xlink:href="#MS-Gothic-48"/>
       <use x="150" xlink:href="#MS-Gothic-45"/>
       <use x="200" xlink:href="#MS-Gothic-51"/>
      </g>
     </g>
    </g>
    <g id="xtick_14">
     <g id="line2d_14">
      <g>
       <use style="stroke:#000000;stroke-width:0.8;" x="1516.5" xlink:href="#m677fa3b1c5" y="2563.2"/>
      </g>
     </g>
     <g id="text_14">
      <!-- '20-4 -->
      <g transform="translate(1485.25 2589.438281)scale(0.25 -0.25)">
       <use xlink:href="#MS-Gothic-39"/>
       <use x="50" xlink:href="#MS-Gothic-50"/>
       <use x="100" xlink:href="#MS-Gothic-48"/>
       <use x="150" xlink:href="#MS-Gothic-45"/>
       <use x="200" xlink:href="#MS-Gothic-52"/>
      </g>
     </g>
    </g>
    <g id="xtick_15">
     <g id="line2d_15">
      <g>
       <use style="stroke:#000000;stroke-width:0.8;" x="1579.909091" xlink:href="#m677fa3b1c5" y="2563.2"/>
      </g>
     </g>
     <g id="text_15">
      <!-- '20-5 -->
      <g transform="translate(1548.659091 2589.438281)scale(0.25 -0.25)">
       <use xlink:href="#MS-Gothic-39"/>
       <use x="50" xlink:href="#MS-Gothic-50"/>
       <use x="100" xlink:href="#MS-Gothic-48"/>
       <use x="150" xlink:href="#MS-Gothic-45"/>
       <use x="200" xlink:href="#MS-Gothic-53"/>
      </g>
     </g>
    </g>
    <g id="xtick_16">
     <g id="line2d_16">
      <g>
       <use style="stroke:#000000;stroke-width:0.8;" x="1643.318182" xlink:href="#m677fa3b1c5" y="2563.2"/>
      </g>
     </g>
     <g id="text_16">
      <!-- '20-6 -->
      <g transform="translate(1612.068182 2589.438281)scale(0.25 -0.25)">
       <use xlink:href="#MS-Gothic-39"/>
       <use x="50" xlink:href="#MS-Gothic-50"/>
       <use x="100" xlink:href="#MS-Gothic-48"/>
       <use x="150" xlink:href="#MS-Gothic-45"/>
       <use x="200" xlink:href="#MS-Gothic-54"/>
      </g>
     </g>
    </g>
    <g id="xtick_17">
     <g id="line2d_17">
      <g>
       <use style="stroke:#000000;stroke-width:0.8;" x="1706.727273" xlink:href="#m677fa3b1c5" y="2563.2"/>
      </g>
     </g>
     <g id="text_17">
      <!-- '20-7 -->
      <g transform="translate(1675.477273 2589.438281)scale(0.25 -0.25)">
       <use xlink:href="#MS-Gothic-39"/>
       <use x="50" xlink:href="#MS-Gothic-50"/>
       <use x="100" xlink:href="#MS-Gothic-48"/>
       <use x="150" xlink:href="#MS-Gothic-45"/>
       <use x="200" xlink:href="#MS-Gothic-55"/>
      </g>
     </g>
    </g>
    <g id="xtick_18">
     <g id="line2d_18">
      <g>
       <use style="stroke:#000000;stroke-width:0.8;" x="1770.136364" xlink:href="#m677fa3b1c5" y="2563.2"/>
      </g>
     </g>
     <g id="text_18">
      <!-- '20-8 -->
      <g transform="translate(1738.886364 2589.438281)scale(0.25 -0.25)">
       <use xlink:href="#MS-Gothic-39"/>
       <use x="50" xlink:href="#MS-Gothic-50"/>
       <use x="100" xlink:href="#MS-Gothic-48"/>
       <use x="150" xlink:href="#MS-Gothic-45"/>
       <use x="200" xlink:href="#MS-Gothic-56"/>
      </g>
     </g>
    </g>
    <g id="xtick_19">
     <g id="line2d_19">
      <g>
       <use style="stroke:#000000;stroke-width:0.8;" x="1833.545455" xlink:href="#m677fa3b1c5" y="2563.2"/>
      </g>
     </g>
     <g id="text_19">
      <!-- '20-9 -->
      <g transform="translate(1802.295455 2589.438281)scale(0.25 -0.25)">
       <use xlink:href="#MS-Gothic-39"/>
       <use x="50" xlink:href="#MS-Gothic-50"/>
       <use x="100" xlink:href="#MS-Gothic-48"/>
       <use x="150" xlink:href="#MS-Gothic-45"/>
       <use x="200" xlink:href="#MS-Gothic-57"/>
      </g>
     </g>
    </g>
    <g id="xtick_20">
     <g id="line2d_20">
      <g>
       <use style="stroke:#000000;stroke-width:0.8;" x="1896.954545" xlink:href="#m677fa3b1c5" y="2563.2"/>
      </g>
     </g>
     <g id="text_20">
      <!-- '20-10 -->
      <g transform="translate(1859.454545 2589.438281)scale(0.25 -0.25)">
       <use xlink:href="#MS-Gothic-39"/>
       <use x="50" xlink:href="#MS-Gothic-50"/>
       <use x="100" xlink:href="#MS-Gothic-48"/>
       <use x="150" xlink:href="#MS-Gothic-45"/>
       <use x="200" xlink:href="#MS-Gothic-49"/>
       <use x="250" xlink:href="#MS-Gothic-48"/>
      </g>
     </g>
    </g>
    <g id="xtick_21">
     <g id="line2d_21">
      <g>
       <use style="stroke:#000000;stroke-width:0.8;" x="1960.363636" xlink:href="#m677fa3b1c5" y="2563.2"/>
      </g>
     </g>
     <g id="text_21">
      <!-- '20-11 -->
      <g transform="translate(1922.863636 2589.438281)scale(0.25 -0.25)">
       <use xlink:href="#MS-Gothic-39"/>
       <use x="50" xlink:href="#MS-Gothic-50"/>
       <use x="100" xlink:href="#MS-Gothic-48"/>
       <use x="150" xlink:href="#MS-Gothic-45"/>
       <use x="200" xlink:href="#MS-Gothic-49"/>
       <use x="250" xlink:href="#MS-Gothic-49"/>
      </g>
     </g>
    </g>
    <g id="xtick_22">
     <g id="line2d_22">
      <g>
       <use style="stroke:#000000;stroke-width:0.8;" x="2023.772727" xlink:href="#m677fa3b1c5" y="2563.2"/>
      </g>
     </g>
     <g id="text_22">
      <!-- '20-12 -->
      <g transform="translate(1986.272727 2589.438281)scale(0.25 -0.25)">
       <use xlink:href="#MS-Gothic-39"/>
       <use x="50" xlink:href="#MS-Gothic-50"/>
       <use x="100" xlink:href="#MS-Gothic-48"/>
       <use x="150" xlink:href="#MS-Gothic-45"/>
       <use x="200" xlink:href="#MS-Gothic-49"/>
       <use x="250" xlink:href="#MS-Gothic-50"/>
      </g>
     </g>
    </g>
    <g id="xtick_23">
     <g id="line2d_23">
      <g>
       <use style="stroke:#000000;stroke-width:0.8;" x="2087.181818" xlink:href="#m677fa3b1c5" y="2563.2"/>
      </g>
     </g>
     <g id="text_23">
      <!-- '21-1 -->
      <g transform="translate(2055.931818 2589.438281)scale(0.25 -0.25)">
       <use xlink:href="#MS-Gothic-39"/>
       <use x="50" xlink:href="#MS-Gothic-50"/>
       <use x="100" xlink:href="#MS-Gothic-49"/>
       <use x="150" xlink:href="#MS-Gothic-45"/>
       <use x="200" xlink:href="#MS-Gothic-49"/>
      </g>
     </g>
    </g>
    <g id="xtick_24">
     <g id="line2d_24">
      <g>
       <use style="stroke:#000000;stroke-width:0.8;" x="2150.590909" xlink:href="#m677fa3b1c5" y="2563.2"/>
      </g>
     </g>
     <g id="text_24">
      <!-- '21-2 -->
      <g transform="translate(2119.340909 2589.438281)scale(0.25 -0.25)">
       <use xlink:href="#MS-Gothic-39"/>
       <use x="50" xlink:href="#MS-Gothic-50"/>
       <use x="100" xlink:href="#MS-Gothic-49"/>
       <use x="150" xlink:href="#MS-Gothic-45"/>
       <use x="200" xlink:href="#MS-Gothic-50"/>
      </g>
     </g>
    </g>
    <g id="xtick_25">
     <g id="line2d_25">
      <g>
       <use style="stroke:#000000;stroke-width:0.8;" x="2214" xlink:href="#m677fa3b1c5" y="2563.2"/>
      </g>
     </g>
     <g id="text_25">
      <!-- '21-3 -->
      <g transform="translate(2182.75 2589.438281)scale(0.25 -0.25)">
       <use xlink:href="#MS-Gothic-39"/>
       <use x="50" xlink:href="#MS-Gothic-50"/>
       <use x="100" xlink:href="#MS-Gothic-49"/>
       <use x="150" xlink:href="#MS-Gothic-45"/>
       <use x="200" xlink:href="#MS-Gothic-51"/>
      </g>
     </g>
    </g>
    <g id="xtick_26">
     <g id="line2d_26">
      <g>
       <use style="stroke:#000000;stroke-width:0.8;" x="2277.409091" xlink:href="#m677fa3b1c5" y="2563.2"/>
      </g>
     </g>
     <g id="text_26">
      <!-- '21-4 -->
      <g transform="translate(2246.159091 2589.438281)scale(0.25 -0.25)">
       <use xlink:href="#MS-Gothic-39"/>
       <use x="50" xlink:href="#MS-Gothic-50"/>
       <use x="100" xlink:href="#MS-Gothic-49"/>
       <use x="150" xlink:href="#MS-Gothic-45"/>
       <use x="200" xlink:href="#MS-Gothic-52"/>
      </g>
     </g>
    </g>
    <g id="xtick_27">
     <g id="line2d_27">
      <g>
       <use style="stroke:#000000;stroke-width:0.8;" x="2340.818182" xlink:href="#m677fa3b1c5" y="2563.2"/>
      </g>
     </g>
     <g id="text_27">
      <!-- '21-5 -->
      <g transform="translate(2309.568182 2589.438281)scale(0.25 -0.25)">
       <use xlink:href="#MS-Gothic-39"/>
       <use x="50" xlink:href="#MS-Gothic-50"/>
       <use x="100" xlink:href="#MS-Gothic-49"/>
       <use x="150" xlink:href="#MS-Gothic-45"/>
       <use x="200" xlink:href="#MS-Gothic-53"/>
      </g>
     </g>
    </g>
    <g id="xtick_28">
     <g id="line2d_28">
      <g>
       <use style="stroke:#000000;stroke-width:0.8;" x="2404.227273" xlink:href="#m677fa3b1c5" y="2563.2"/>
      </g>
     </g>
     <g id="text_28">
      <!-- '21-6 -->
      <g transform="translate(2372.977273 2589.438281)scale(0.25 -0.25)">
       <use xlink:href="#MS-Gothic-39"/>
       <use x="50" xlink:href="#MS-Gothic-50"/>
       <use x="100" xlink:href="#MS-Gothic-49"/>
       <use x="150" xlink:href="#MS-Gothic-45"/>
       <use x="200" xlink:href="#MS-Gothic-54"/>
      </g>
     </g>
    </g>
    <g id="xtick_29">
     <g id="line2d_29">
      <g>
       <use style="stroke:#000000;stroke-width:0.8;" x="2467.636364" xlink:href="#m677fa3b1c5" y="2563.2"/>
      </g>
     </g>
     <g id="text_29">
      <!-- '21-7 -->
      <g transform="translate(2436.386364 2589.438281)scale(0.25 -0.25)">
       <use xlink:href="#MS-Gothic-39"/>
       <use x="50" xlink:href="#MS-Gothic-50"/>
       <use x="100" xlink:href="#MS-Gothic-49"/>
       <use x="150" xlink:href="#MS-Gothic-45"/>
       <use x="200" xlink:href="#MS-Gothic-55"/>
      </g>
     </g>
    </g>
    <g id="xtick_30">
     <g id="line2d_30">
      <g>
       <use style="stroke:#000000;stroke-width:0.8;" x="2531.045455" xlink:href="#m677fa3b1c5" y="2563.2"/>
      </g>
     </g>
     <g id="text_30">
      <!-- '21-8 -->
      <g transform="translate(2499.795455 2589.438281)scale(0.25 -0.25)">
       <use xlink:href="#MS-Gothic-39"/>
       <use x="50" xlink:href="#MS-Gothic-50"/>
       <use x="100" xlink:href="#MS-Gothic-49"/>
       <use x="150" xlink:href="#MS-Gothic-45"/>
       <use x="200" xlink:href="#MS-Gothic-56"/>
      </g>
     </g>
    </g>
    <g id="xtick_31">
     <g id="line2d_31">
      <g>
       <use style="stroke:#000000;stroke-width:0.8;" x="2594.454545" xlink:href="#m677fa3b1c5" y="2563.2"/>
      </g>
     </g>
     <g id="text_31">
      <!-- '21-9 -->
      <g transform="translate(2563.204545 2589.438281)scale(0.25 -0.25)">
       <use xlink:href="#MS-Gothic-39"/>
       <use x="50" xlink:href="#MS-Gothic-50"/>
       <use x="100" xlink:href="#MS-Gothic-49"/>
       <use x="150" xlink:href="#MS-Gothic-45"/>
       <use x="200" xlink:href="#MS-Gothic-57"/>
      </g>
     </g>
    </g>
    <g id="xtick_32">
     <g id="line2d_32">
      <g>
       <use style="stroke:#000000;stroke-width:0.8;" x="2657.863636" xlink:href="#m677fa3b1c5" y="2563.2"/>
      </g>
     </g>
     <g id="text_32">
      <!-- '21-10 -->
      <g transform="translate(2620.363636 2589.438281)scale(0.25 -0.25)">
       <use xlink:href="#MS-Gothic-39"/>
       <use x="50" xlink:href="#MS-Gothic-50"/>
       <use x="100" xlink:href="#MS-Gothic-49"/>
       <use x="150" xlink:href="#MS-Gothic-45"/>
       <use x="200" xlink:href="#MS-Gothic-49"/>
       <use x="250" xlink:href="#MS-Gothic-48"/>
      </g>
     </g>
    </g>
    <g id="xtick_33">
     <g id="line2d_33">
      <g>
       <use style="stroke:#000000;stroke-width:0.8;" x="2721.272727" xlink:href="#m677fa3b1c5" y="2563.2"/>
      </g>
     </g>
     <g id="text_33">
      <!-- '21-11 -->
      <g transform="translate(2683.772727 2589.438281)scale(0.25 -0.25)">
       <use xlink:href="#MS-Gothic-39"/>
       <use x="50" xlink:href="#MS-Gothic-50"/>
       <use x="100" xlink:href="#MS-Gothic-49"/>
       <use x="150" xlink:href="#MS-Gothic-45"/>
       <use x="200" xlink:href="#MS-Gothic-49"/>
       <use x="250" xlink:href="#MS-Gothic-49"/>
      </g>
     </g>
    </g>
    <g id="xtick_34">
     <g id="line2d_34">
      <g>
       <use style="stroke:#000000;stroke-width:0.8;" x="2784.681818" xlink:href="#m677fa3b1c5" y="2563.2"/>
      </g>
     </g>
     <g id="text_34">
      <!-- '21-12 -->
      <g transform="translate(2747.181818 2589.438281)scale(0.25 -0.25)">
       <use xlink:href="#MS-Gothic-39"/>
       <use x="50" xlink:href="#MS-Gothic-50"/>
       <use x="100" xlink:href="#MS-Gothic-49"/>
       <use x="150" xlink:href="#MS-Gothic-45"/>
       <use x="200" xlink:href="#MS-Gothic-49"/>
       <use x="250" xlink:href="#MS-Gothic-50"/>
      </g>
     </g>
    </g>
    <g id="xtick_35">
     <g id="line2d_35">
      <g>
       <use style="stroke:#000000;stroke-width:0.8;" x="2848.090909" xlink:href="#m677fa3b1c5" y="2563.2"/>
      </g>
     </g>
     <g id="text_35">
      <!-- '22-1 -->
      <g transform="translate(2816.840909 2589.438281)scale(0.25 -0.25)">
       <use xlink:href="#MS-Gothic-39"/>
       <use x="50" xlink:href="#MS-Gothic-50"/>
       <use x="100" xlink:href="#MS-Gothic-50"/>
       <use x="150" xlink:href="#MS-Gothic-45"/>
       <use x="200" xlink:href="#MS-Gothic-49"/>
      </g>
     </g>
    </g>
    <g id="xtick_36">
     <g id="line2d_36">
      <g>
       <use style="stroke:#000000;stroke-width:0.8;" x="2911.5" xlink:href="#m677fa3b1c5" y="2563.2"/>
      </g>
     </g>
     <g id="text_36">
      <!-- '22-2 -->
      <g transform="translate(2880.25 2589.438281)scale(0.25 -0.25)">
       <use xlink:href="#MS-Gothic-39"/>
       <use x="50" xlink:href="#MS-Gothic-50"/>
       <use x="100" xlink:href="#MS-Gothic-50"/>
       <use x="150" xlink:href="#MS-Gothic-45"/>
       <use x="200" xlink:href="#MS-Gothic-50"/>
      </g>
     </g>
    </g>
    <g id="xtick_37">
     <g id="line2d_37">
      <g>
       <use style="stroke:#000000;stroke-width:0.8;" x="2974.909091" xlink:href="#m677fa3b1c5" y="2563.2"/>
      </g>
     </g>
     <g id="text_37">
      <!-- '22-3 -->
      <g transform="translate(2943.659091 2589.438281)scale(0.25 -0.25)">
       <use xlink:href="#MS-Gothic-39"/>
       <use x="50" xlink:href="#MS-Gothic-50"/>
       <use x="100" xlink:href="#MS-Gothic-50"/>
       <use x="150" xlink:href="#MS-Gothic-45"/>
       <use x="200" xlink:href="#MS-Gothic-51"/>
      </g>
     </g>
    </g>
    <g id="xtick_38">
     <g id="line2d_38">
      <g>
       <use style="stroke:#000000;stroke-width:0.8;" x="3038.318182" xlink:href="#m677fa3b1c5" y="2563.2"/>
      </g>
     </g>
     <g id="text_38">
      <!-- '22-4 -->
      <g transform="translate(3007.068182 2589.438281)scale(0.25 -0.25)">
       <use xlink:href="#MS-Gothic-39"/>
       <use x="50" xlink:href="#MS-Gothic-50"/>
       <use x="100" xlink:href="#MS-Gothic-50"/>
       <use x="150" xlink:href="#MS-Gothic-45"/>
       <use x="200" xlink:href="#MS-Gothic-52"/>
      </g>
     </g>
    </g>
    <g id="xtick_39">
     <g id="line2d_39">
      <g>
       <use style="stroke:#000000;stroke-width:0.8;" x="3101.727273" xlink:href="#m677fa3b1c5" y="2563.2"/>
      </g>
     </g>
     <g id="text_39">
      <!-- '22-5 -->
      <g transform="translate(3070.477273 2589.438281)scale(0.25 -0.25)">
       <use xlink:href="#MS-Gothic-39"/>
       <use x="50" xlink:href="#MS-Gothic-50"/>
       <use x="100" xlink:href="#MS-Gothic-50"/>
       <use x="150" xlink:href="#MS-Gothic-45"/>
       <use x="200" xlink:href="#MS-Gothic-53"/>
      </g>
     </g>
    </g>
    <g id="xtick_40">
     <g id="line2d_40">
      <g>
       <use style="stroke:#000000;stroke-width:0.8;" x="3165.136364" xlink:href="#m677fa3b1c5" y="2563.2"/>
      </g>
     </g>
     <g id="text_40">
      <!-- '22-6 -->
      <g transform="translate(3133.886364 2589.438281)scale(0.25 -0.25)">
       <use xlink:href="#MS-Gothic-39"/>
       <use x="50" xlink:href="#MS-Gothic-50"/>
       <use x="100" xlink:href="#MS-Gothic-50"/>
       <use x="150" xlink:href="#MS-Gothic-45"/>
       <use x="200" xlink:href="#MS-Gothic-54"/>
      </g>
     </g>
    </g>
    <g id="xtick_41">
     <g id="line2d_41">
      <g>
       <use style="stroke:#000000;stroke-width:0.8;" x="3228.545455" xlink:href="#m677fa3b1c5" y="2563.2"/>
      </g>
     </g>
     <g id="text_41">
      <!-- '22-7 -->
      <g transform="translate(3197.295455 2589.438281)scale(0.25 -0.25)">
       <use xlink:href="#MS-Gothic-39"/>
       <use x="50" xlink:href="#MS-Gothic-50"/>
       <use x="100" xlink:href="#MS-Gothic-50"/>
       <use x="150" xlink:href="#MS-Gothic-45"/>
       <use x="200" xlink:href="#MS-Gothic-55"/>
      </g>
     </g>
    </g>
    <g id="xtick_42">
     <g id="line2d_42">
      <g>
       <use style="stroke:#000000;stroke-width:0.8;" x="3291.954545" xlink:href="#m677fa3b1c5" y="2563.2"/>
      </g>
     </g>
     <g id="text_42">
      <!-- '22-8 -->
      <g transform="translate(3260.704545 2589.438281)scale(0.25 -0.25)">
       <use xlink:href="#MS-Gothic-39"/>
       <use x="50" xlink:href="#MS-Gothic-50"/>
       <use x="100" xlink:href="#MS-Gothic-50"/>
       <use x="150" xlink:href="#MS-Gothic-45"/>
       <use x="200" xlink:href="#MS-Gothic-56"/>
      </g>
     </g>
    </g>
    <g id="xtick_43">
     <g id="line2d_43">
      <g>
       <use style="stroke:#000000;stroke-width:0.8;" x="3355.363636" xlink:href="#m677fa3b1c5" y="2563.2"/>
      </g>
     </g>
     <g id="text_43">
      <!-- '22-9 -->
      <g transform="translate(3324.113636 2589.438281)scale(0.25 -0.25)">
       <use xlink:href="#MS-Gothic-39"/>
       <use x="50" xlink:href="#MS-Gothic-50"/>
       <use x="100" xlink:href="#MS-Gothic-50"/>
       <use x="150" xlink:href="#MS-Gothic-45"/>
       <use x="200" xlink:href="#MS-Gothic-57"/>
      </g>
     </g>
    </g>
    <g id="xtick_44">
     <g id="line2d_44">
      <g>
       <use style="stroke:#000000;stroke-width:0.8;" x="3418.772727" xlink:href="#m677fa3b1c5" y="2563.2"/>
      </g>
     </g>
     <g id="text_44">
      <!-- '22-10 -->
      <g transform="translate(3381.272727 2589.438281)scale(0.25 -0.25)">
       <use xlink:href="#MS-Gothic-39"/>
       <use x="50" xlink:href="#MS-Gothic-50"/>
       <use x="100" xlink:href="#MS-Gothic-50"/>
       <use x="150" xlink:href="#MS-Gothic-45"/>
       <use x="200" xlink:href="#MS-Gothic-49"/>
       <use x="250" xlink:href="#MS-Gothic-48"/>
      </g>
     </g>
    </g>
    <g id="xtick_45">
     <g id="line2d_45">
      <g>
       <use style="stroke:#000000;stroke-width:0.8;" x="3482.181818" xlink:href="#m677fa3b1c5" y="2563.2"/>
      </g>
     </g>
     <g id="text_45">
      <!-- '22-11 -->
      <g transform="translate(3444.681818 2589.438281)scale(0.25 -0.25)">
       <use xlink:href="#MS-Gothic-39"/>
       <use x="50" xlink:href="#MS-Gothic-50"/>
       <use x="100" xlink:href="#MS-Gothic-50"/>
       <use x="150" xlink:href="#MS-Gothic-45"/>
       <use x="200" xlink:href="#MS-Gothic-49"/>
       <use x="250" xlink:href="#MS-Gothic-49"/>
      </g>
     </g>
    </g>
    <g id="xtick_46">
     <g id="line2d_46">
      <g>
       <use style="stroke:#000000;stroke-width:0.8;" x="3545.590909" xlink:href="#m677fa3b1c5" y="2563.2"/>
      </g>
     </g>
     <g id="text_46">
      <!-- '22-12 -->
      <g transform="translate(3508.090909 2589.438281)scale(0.25 -0.25)">
       <use xlink:href="#MS-Gothic-39"/>
       <use x="50" xlink:href="#MS-Gothic-50"/>
       <use x="100" xlink:href="#MS-Gothic-50"/>
       <use x="150" xlink:href="#MS-Gothic-45"/>
       <use x="200" xlink:href="#MS-Gothic-49"/>
       <use x="250" xlink:href="#MS-Gothic-50"/>
      </g>
     </g>
    </g>
    <g id="xtick_47">
     <g id="line2d_47">
      <g>
       <use style="stroke:#000000;stroke-width:0.8;" x="3609" xlink:href="#m677fa3b1c5" y="2563.2"/>
      </g>
     </g>
     <g id="text_47">
      <!-- '23-1 -->
      <g transform="translate(3577.75 2589.438281)scale(0.25 -0.25)">
       <use xlink:href="#MS-Gothic-39"/>
       <use x="50" xlink:href="#MS-Gothic-50"/>
       <use x="100" xlink:href="#MS-Gothic-51"/>
       <use x="150" xlink:href="#MS-Gothic-45"/>
       <use x="200" xlink:href="#MS-Gothic-49"/>
      </g>
     </g>
    </g>
    <g id="xtick_48">
     <g id="line2d_48">
      <g>
       <use style="stroke:#000000;stroke-width:0.8;" x="3672.409091" xlink:href="#m677fa3b1c5" y="2563.2"/>
      </g>
     </g>
     <g id="text_48">
      <!-- '23-2 -->
      <g transform="translate(3641.159091 2589.438281)scale(0.25 -0.25)">
       <use xlink:href="#MS-Gothic-39"/>
       <use x="50" xlink:href="#MS-Gothic-50"/>
       <use x="100" xlink:href="#MS-Gothic-51"/>
       <use x="150" xlink:href="#MS-Gothic-45"/>
       <use x="200" xlink:href="#MS-Gothic-50"/>
      </g>
     </g>
    </g>
    <g id="xtick_49">
     <g id="line2d_49">
      <g>
       <use style="stroke:#000000;stroke-width:0.8;" x="3735.818182" xlink:href="#m677fa3b1c5" y="2563.2"/>
      </g>
     </g>
     <g id="text_49">
      <!-- '23-3 -->
      <g transform="translate(3704.568182 2589.438281)scale(0.25 -0.25)">
       <use xlink:href="#MS-Gothic-39"/>
       <use x="50" xlink:href="#MS-Gothic-50"/>
       <use x="100" xlink:href="#MS-Gothic-51"/>
       <use x="150" xlink:href="#MS-Gothic-45"/>
       <use x="200" xlink:href="#MS-Gothic-51"/>
      </g>
     </g>
    </g>
    <g id="text_50">
     <!-- 年-月 -->
     <g transform="translate(2139 2642.832812)scale(0.6 -0.6)">
      <defs>
       <path d="M 31.25 60.9375 
Q 23.828125 48.046875 12.890625 39.453125 
L 7.421875 46.484375 
Q 23.4375 58.203125 29.296875 80.46875 
L 38.28125 78.125 
Q 39.84375 76.5625 37.109375 76.171875 
L 33.984375 68.359375 
L 89.0625 68.359375 
L 89.0625 60.9375 
L 60.546875 60.9375 
L 60.546875 47.65625 
L 83.984375 47.65625 
L 83.984375 40.234375 
L 60.546875 40.234375 
L 60.546875 22.65625 
L 93.359375 22.65625 
L 93.359375 15.234375 
L 60.546875 15.234375 
L 60.546875 -8.203125 
L 52.734375 -8.203125 
L 52.734375 15.234375 
L 7.8125 15.234375 
L 7.8125 22.65625 
L 25.390625 22.65625 
L 25.390625 47.65625 
L 52.734375 47.65625 
L 52.734375 60.9375 
L 31.25 60.9375 
z
M 33.203125 22.65625 
L 52.734375 22.65625 
L 52.734375 40.234375 
L 33.203125 40.234375 
z
" id="MS-Gothic-24180"/>
       <path d="M 70.703125 22.65625 
L 33.59375 22.65625 
Q 33.59375 5.859375 16.40625 -8.984375 
L 9.765625 -1.5625 
Q 25.78125 8.59375 25.78125 28.90625 
L 25.78125 76.5625 
L 78.515625 76.5625 
L 78.515625 -0.390625 
Q 78.515625 -6.640625 71.875 -6.640625 
L 62.5 -6.640625 
L 60.9375 1.953125 
L 69.140625 1.953125 
Q 70.703125 1.953125 70.703125 3.515625 
z
M 33.59375 31.25 
L 70.703125 31.25 
L 70.703125 45.3125 
L 33.59375 45.3125 
z
M 33.59375 53.90625 
L 70.703125 53.90625 
L 70.703125 67.96875 
L 33.59375 67.96875 
z
" id="MS-Gothic-26376"/>
      </defs>
      <use xlink:href="#MS-Gothic-24180"/>
      <use x="100" xlink:href="#MS-Gothic-45"/>
      <use x="150" xlink:href="#MS-Gothic-26376"/>
     </g>
    </g>
   </g>
   <g id="matplotlib.axis_2">
    <g id="ytick_1">
     <g id="line2d_50">
      <defs>
       <path d="M 0 0 
L -3.5 0 
" id="ma9cea9a4dc" style="stroke:#000000;stroke-width:0.8;"/>
      </defs>
      <g>
       <use style="stroke:#000000;stroke-width:0.8;" x="540" xlink:href="#ma9cea9a4dc" y="2506.338462"/>
      </g>
     </g>
     <g id="text_51">
      <!-- 0 -->
      <g transform="translate(518 2517.88143)scale(0.3 -0.3)">
       <use xlink:href="#MS-Gothic-48"/>
      </g>
     </g>
    </g>
    <g id="ytick_2">
     <g id="line2d_51">
      <g>
       <use style="stroke:#000000;stroke-width:0.8;" x="540" xlink:href="#ma9cea9a4dc" y="2392.615385"/>
      </g>
     </g>
     <g id="text_52">
      <!-- 2 -->
      <g transform="translate(518 2404.158353)scale(0.3 -0.3)">
       <use xlink:href="#MS-Gothic-50"/>
      </g>
     </g>
    </g>
    <g id="ytick_3">
     <g id="line2d_52">
      <g>
       <use style="stroke:#000000;stroke-width:0.8;" x="540" xlink:href="#ma9cea9a4dc" y="2278.892308"/>
      </g>
     </g>
     <g id="text_53">
      <!-- 4 -->
      <g transform="translate(518 2290.435276)scale(0.3 -0.3)">
       <use xlink:href="#MS-Gothic-52"/>
      </g>
     </g>
    </g>
    <g id="ytick_4">
     <g id="line2d_53">
      <g>
       <use style="stroke:#000000;stroke-width:0.8;" x="540" xlink:href="#ma9cea9a4dc" y="2165.169231"/>
      </g>
     </g>
     <g id="text_54">
      <!-- 6 -->
      <g transform="translate(518 2176.7122)scale(0.3 -0.3)">
       <use xlink:href="#MS-Gothic-54"/>
      </g>
     </g>
    </g>
    <g id="ytick_5">
     <g id="line2d_54">
      <g>
       <use style="stroke:#000000;stroke-width:0.8;" x="540" xlink:href="#ma9cea9a4dc" y="2051.446154"/>
      </g>
     </g>
     <g id="text_55">
      <!-- 8 -->
      <g transform="translate(518 2062.989123)scale(0.3 -0.3)">
       <use xlink:href="#MS-Gothic-56"/>
      </g>
     </g>
    </g>
    <g id="ytick_6">
     <g id="line2d_55">
      <g>
       <use style="stroke:#000000;stroke-width:0.8;" x="540" xlink:href="#ma9cea9a4dc" y="1937.723077"/>
      </g>
     </g>
     <g id="text_56">
      <!-- 10 -->
      <g transform="translate(503 1949.266046)scale(0.3 -0.3)">
       <use xlink:href="#MS-Gothic-49"/>
       <use x="50" xlink:href="#MS-Gothic-48"/>
      </g>
     </g>
    </g>
    <g id="ytick_7">
     <g id="line2d_56">
      <g>
       <use style="stroke:#000000;stroke-width:0.8;" x="540" xlink:href="#ma9cea9a4dc" y="1824"/>
      </g>
     </g>
     <g id="text_57">
      <!-- 12 -->
      <g transform="translate(503 1835.542969)scale(0.3 -0.3)">
       <use xlink:href="#MS-Gothic-49"/>
       <use x="50" xlink:href="#MS-Gothic-50"/>
      </g>
     </g>
    </g>
    <g id="ytick_8">
     <g id="line2d_57">
      <g>
       <use style="stroke:#000000;stroke-width:0.8;" x="540" xlink:href="#ma9cea9a4dc" y="1710.276923"/>
      </g>
     </g>
     <g id="text_58">
      <!-- 14 -->
      <g transform="translate(503 1721.819892)scale(0.3 -0.3)">
       <use xlink:href="#MS-Gothic-49"/>
       <use x="50" xlink:href="#MS-Gothic-52"/>
      </g>
     </g>
    </g>
    <g id="ytick_9">
     <g id="line2d_58">
      <g>
       <use style="stroke:#000000;stroke-width:0.8;" x="540" xlink:href="#ma9cea9a4dc" y="1596.553846"/>
      </g>
     </g>
     <g id="text_59">
      <!-- 16 -->
      <g transform="translate(503 1608.096815)scale(0.3 -0.3)">
       <use xlink:href="#MS-Gothic-49"/>
       <use x="50" xlink:href="#MS-Gothic-54"/>
      </g>
     </g>
    </g>
    <g id="ytick_10">
     <g id="line2d_59">
      <g>
       <use style="stroke:#000000;stroke-width:0.8;" x="540" xlink:href="#ma9cea9a4dc" y="1482.830769"/>
      </g>
     </g>
     <g id="text_60">
      <!-- 18 -->
      <g transform="translate(503 1494.373738)scale(0.3 -0.3)">
       <use xlink:href="#MS-Gothic-49"/>
       <use x="50" xlink:href="#MS-Gothic-56"/>
      </g>
     </g>
    </g>
    <g id="ytick_11">
     <g id="line2d_60">
      <g>
       <use style="stroke:#000000;stroke-width:0.8;" x="540" xlink:href="#ma9cea9a4dc" y="1369.107692"/>
      </g>
     </g>
     <g id="text_61">
      <!-- 20 -->
      <g transform="translate(503 1380.650661)scale(0.3 -0.3)">
       <use xlink:href="#MS-Gothic-50"/>
       <use x="50" xlink:href="#MS-Gothic-48"/>
      </g>
     </g>
    </g>
    <g id="ytick_12">
     <g id="line2d_61">
      <g>
       <use style="stroke:#000000;stroke-width:0.8;" x="540" xlink:href="#ma9cea9a4dc" y="1255.384615"/>
      </g>
     </g>
     <g id="text_62">
      <!-- 22 -->
      <g transform="translate(503 1266.927584)scale(0.3 -0.3)">
       <use xlink:href="#MS-Gothic-50"/>
       <use x="50" xlink:href="#MS-Gothic-50"/>
      </g>
     </g>
    </g>
    <g id="ytick_13">
     <g id="line2d_62">
      <g>
       <use style="stroke:#000000;stroke-width:0.8;" x="540" xlink:href="#ma9cea9a4dc" y="1141.661538"/>
      </g>
     </g>
     <g id="text_63">
      <!-- 24 -->
      <g transform="translate(503 1153.204507)scale(0.3 -0.3)">
       <use xlink:href="#MS-Gothic-50"/>
       <use x="50" xlink:href="#MS-Gothic-52"/>
      </g>
     </g>
    </g>
    <g id="ytick_14">
     <g id="line2d_63">
      <g>
       <use style="stroke:#000000;stroke-width:0.8;" x="540" xlink:href="#ma9cea9a4dc" y="1027.938462"/>
      </g>
     </g>
     <g id="text_64">
      <!-- 26 -->
      <g transform="translate(503 1039.48143)scale(0.3 -0.3)">
       <use xlink:href="#MS-Gothic-50"/>
       <use x="50" xlink:href="#MS-Gothic-54"/>
      </g>
     </g>
    </g>
    <g id="ytick_15">
     <g id="line2d_64">
      <g>
       <use style="stroke:#000000;stroke-width:0.8;" x="540" xlink:href="#ma9cea9a4dc" y="914.215385"/>
      </g>
     </g>
     <g id="text_65">
      <!-- 28 -->
      <g transform="translate(503 925.758353)scale(0.3 -0.3)">
       <use xlink:href="#MS-Gothic-50"/>
       <use x="50" xlink:href="#MS-Gothic-56"/>
      </g>
     </g>
    </g>
    <g id="ytick_16">
     <g id="line2d_65">
      <g>
       <use style="stroke:#000000;stroke-width:0.8;" x="540" xlink:href="#ma9cea9a4dc" y="800.492308"/>
      </g>
     </g>
     <g id="text_66">
      <!-- 30 -->
      <g transform="translate(503 812.035276)scale(0.3 -0.3)">
       <use xlink:href="#MS-Gothic-51"/>
       <use x="50" xlink:href="#MS-Gothic-48"/>
      </g>
     </g>
    </g>
    <g id="ytick_17">
     <g id="line2d_66">
      <g>
       <use style="stroke:#000000;stroke-width:0.8;" x="540" xlink:href="#ma9cea9a4dc" y="686.769231"/>
      </g>
     </g>
     <g id="text_67">
      <!-- 32 -->
      <g transform="translate(503 698.3122)scale(0.3 -0.3)">
       <use xlink:href="#MS-Gothic-51"/>
       <use x="50" xlink:href="#MS-Gothic-50"/>
      </g>
     </g>
    </g>
    <g id="ytick_18">
     <g id="line2d_67">
      <g>
       <use style="stroke:#000000;stroke-width:0.8;" x="540" xlink:href="#ma9cea9a4dc" y="573.046154"/>
      </g>
     </g>
     <g id="text_68">
      <!-- 34 -->
      <g transform="translate(503 584.589123)scale(0.3 -0.3)">
       <use xlink:href="#MS-Gothic-51"/>
       <use x="50" xlink:href="#MS-Gothic-52"/>
      </g>
     </g>
    </g>
    <g id="ytick_19">
     <g id="line2d_68">
      <g>
       <use style="stroke:#000000;stroke-width:0.8;" x="540" xlink:href="#ma9cea9a4dc" y="459.323077"/>
      </g>
     </g>
     <g id="text_69">
      <!-- 36 -->
      <g transform="translate(503 470.866046)scale(0.3 -0.3)">
       <use xlink:href="#MS-Gothic-51"/>
       <use x="50" xlink:href="#MS-Gothic-54"/>
      </g>
     </g>
    </g>
    <g id="ytick_20">
     <g id="line2d_69">
      <g>
       <use style="stroke:#000000;stroke-width:0.8;" x="540" xlink:href="#ma9cea9a4dc" y="345.6"/>
      </g>
     </g>
     <g id="text_70">
      <!-- 38 -->
      <g transform="translate(503 357.142969)scale(0.3 -0.3)">
       <use xlink:href="#MS-Gothic-51"/>
       <use x="50" xlink:href="#MS-Gothic-56"/>
      </g>
     </g>
    </g>
    <g id="text_71">
     <!-- 出演回数 -->
     <g transform="translate(491.265625 1574.4)rotate(-90)scale(0.6 -0.6)">
      <defs>
       <path d="M 22.265625 70.703125 
Q 25.390625 70.3125 22.65625 68.359375 
L 22.65625 47.265625 
L 45.703125 47.265625 
L 45.703125 78.515625 
L 53.125 78.515625 
Q 56.25 78.125 53.515625 76.171875 
L 53.515625 47.265625 
L 76.171875 47.265625 
L 76.171875 70.3125 
L 83.59375 70.3125 
Q 86.71875 69.921875 83.984375 67.96875 
L 83.984375 36.328125 
L 76.171875 36.328125 
L 76.171875 39.84375 
L 53.515625 39.84375 
L 53.515625 6.25 
L 79.296875 6.25 
L 79.296875 30.078125 
L 86.71875 30.078125 
Q 89.84375 29.6875 87.109375 27.734375 
L 87.109375 -5.46875 
L 79.296875 -5.46875 
L 79.296875 -1.171875 
L 18.75 -1.171875 
L 18.75 -6.640625 
L 10.9375 -6.640625 
L 10.9375 30.46875 
L 18.359375 30.46875 
Q 21.484375 30.078125 18.75 28.125 
L 18.75 6.25 
L 45.703125 6.25 
L 45.703125 39.84375 
L 22.65625 39.84375 
L 22.65625 35.546875 
L 14.84375 35.546875 
L 14.84375 70.703125 
z
" id="MS-Gothic-20986"/>
       <path d="M 27.734375 21.875 
Q 23.046875 8.203125 13.671875 -6.25 
Q 13.671875 -8.984375 12.109375 -8.59375 
L 4.6875 -1.5625 
Q 16.015625 12.890625 20.3125 26.953125 
z
M 35.15625 43.359375 
L 57.8125 43.359375 
L 57.8125 50.390625 
L 41.40625 50.390625 
L 41.40625 56.640625 
L 82.421875 56.640625 
L 82.421875 50.390625 
L 65.625 50.390625 
L 65.625 43.359375 
L 88.28125 43.359375 
L 88.28125 9.765625 
L 35.15625 9.765625 
z
M 71.484375 8.59375 
Q 80.859375 3.125 94.921875 0 
L 91.015625 -8.203125 
Q 79.296875 -5.859375 66.796875 3.125 
z
M 26.953125 -1.171875 
Q 39.0625 1.171875 49.609375 8.203125 
L 54.6875 3.125 
Q 57.03125 0 53.125 1.5625 
Q 41.40625 -6.25 31.25 -8.59375 
z
M 57.8125 16.015625 
L 57.8125 23.4375 
L 42.96875 23.4375 
L 42.96875 16.015625 
z
M 80.46875 16.015625 
L 80.46875 23.4375 
L 65.625 23.4375 
L 65.625 16.015625 
z
M 80.46875 37.109375 
L 65.625 37.109375 
L 65.625 29.6875 
L 80.46875 29.6875 
z
M 57.8125 29.6875 
L 57.8125 37.109375 
L 42.96875 37.109375 
L 42.96875 29.6875 
z
M 85.546875 51.5625 
L 85.546875 63.671875 
L 37.890625 63.671875 
L 37.890625 51.5625 
L 30.078125 51.5625 
L 30.078125 71.09375 
L 56.25 71.09375 
L 56.25 80.859375 
L 65.625 80.859375 
Q 68.359375 79.6875 65.234375 78.125 
L 65.234375 71.09375 
L 93.359375 71.09375 
L 93.359375 51.5625 
z
M 23.046875 59.765625 
Q 16.796875 64.84375 10.546875 69.53125 
L 15.625 76.5625 
Q 23.046875 72.65625 28.125 67.578125 
z
M 19.53125 36.71875 
Q 12.890625 42.1875 7.03125 46.484375 
L 12.109375 53.90625 
Q 17.96875 50.78125 25 44.53125 
z
" id="MS-Gothic-28436"/>
       <path d="M 39.0625 26.953125 
L 60.9375 26.953125 
L 60.9375 47.65625 
L 39.0625 47.65625 
z
M 60.9375 15.625 
L 60.9375 19.53125 
L 39.0625 19.53125 
L 39.0625 15.234375 
L 31.25 15.234375 
L 31.25 55.078125 
L 68.75 55.078125 
L 68.75 15.625 
z
M 18.359375 4.6875 
L 81.25 4.6875 
L 81.25 68.359375 
L 18.359375 68.359375 
z
M 81.25 -6.25 
L 81.25 -2.734375 
L 18.359375 -2.734375 
L 18.359375 -8.203125 
L 10.546875 -8.203125 
L 10.546875 75.78125 
L 89.0625 75.78125 
L 89.0625 -6.25 
z
" id="MS-Gothic-22238"/>
       <path d="M 72.65625 21.484375 
Q 78.125 32.03125 79.296875 53.515625 
L 66.015625 53.515625 
Q 67.1875 32.03125 72.65625 21.484375 
z
M 87.109375 53.515625 
Q 86.328125 29.296875 77.734375 14.453125 
Q 83.984375 6.640625 95.3125 0.78125 
L 90.234375 -7.8125 
Q 77.734375 0.390625 72.65625 7.8125 
Q 63.671875 -2.34375 44.921875 -9.765625 
L 41.015625 -1.953125 
Q 61.328125 6.25 67.96875 14.84375 
Q 61.328125 27.734375 60.546875 40.625 
Q 58.203125 34.765625 55.859375 31.640625 
L 49.21875 36.71875 
Q 60.9375 53.90625 63.28125 79.296875 
L 71.484375 77.34375 
Q 73.828125 75.78125 70.3125 75 
Q 69.140625 67.96875 67.1875 60.9375 
L 93.75 60.9375 
L 93.75 53.515625 
L 87.109375 53.515625 
z
M 50.78125 72.265625 
Q 48.4375 66.40625 45.3125 62.5 
L 39.0625 66.015625 
Q 42.1875 71.09375 44.921875 77.734375 
L 51.953125 74.21875 
Q 53.515625 72.65625 50.78125 72.265625 
z
M 25.78125 17.1875 
Q 31.25 15.625 35.546875 13.671875 
Q 38.671875 17.1875 40.625 24.21875 
L 29.296875 24.21875 
Q 27.734375 20.703125 25.78125 17.1875 
z
M 20.3125 7.421875 
L 14.0625 10.9375 
Q 17.96875 16.796875 21.875 24.21875 
L 7.03125 24.21875 
L 7.03125 30.46875 
L 24.21875 30.46875 
Q 26.5625 35.546875 27.734375 39.0625 
L 35.15625 37.109375 
Q 36.71875 35.546875 33.984375 35.15625 
L 31.640625 30.46875 
L 53.90625 30.46875 
L 53.90625 24.21875 
L 48.046875 24.21875 
Q 46.09375 16.40625 42.1875 10.9375 
Q 45.703125 9.375 49.609375 7.03125 
L 46.09375 0.78125 
Q 41.796875 3.515625 38.28125 5.078125 
Q 28.125 -5.078125 10.9375 -7.421875 
L 8.203125 -0.390625 
Q 23.4375 1.171875 31.640625 8.203125 
Q 27.34375 10.15625 23.046875 11.71875 
z
M 28.125 80.859375 
L 34.375 80.859375 
Q 37.5 80.46875 34.765625 78.515625 
L 34.765625 61.71875 
L 54.6875 61.71875 
L 54.6875 55.46875 
L 38.28125 55.46875 
Q 42.578125 50.390625 51.5625 45.703125 
L 47.265625 39.0625 
Q 40.625 42.96875 34.765625 50 
L 34.765625 40.625 
L 28.125 40.625 
L 28.125 48.046875 
Q 21.875 40.234375 10.9375 33.984375 
L 5.859375 40.234375 
Q 17.96875 46.484375 25.78125 55.46875 
L 7.8125 55.46875 
L 7.8125 61.71875 
L 28.125 61.71875 
z
M 17.1875 62.890625 
Q 14.453125 68.75 10.15625 73.046875 
L 16.40625 76.953125 
Q 21.09375 72.265625 23.4375 67.1875 
L 17.1875 62.890625 
z
" id="MS-Gothic-25968"/>
      </defs>
      <use xlink:href="#MS-Gothic-20986"/>
      <use x="100" xlink:href="#MS-Gothic-28436"/>
      <use x="200" xlink:href="#MS-Gothic-22238"/>
      <use x="300" xlink:href="#MS-Gothic-25968"/>
     </g>
    </g>
   </g>
   <g id="line2d_70">
    <path clip-path="url(#p5364f74b9c)" d="M 692.181818 1824 
L 755.590909 2108.307692 
L 819 2392.615385 
L 882.409091 2449.476923 
L 945.818182 2051.446154 
L 1009.227273 2335.753846 
L 1072.636364 2335.753846 
L 1136.045455 1994.584615 
L 1199.454545 2051.446154 
L 1262.863636 2165.169231 
L 1326.272727 2392.615385 
L 1389.681818 2278.892308 
L 1453.090909 2335.753846 
L 1516.5 2222.030769 
L 1579.909091 2392.615385 
L 1643.318182 2278.892308 
L 1706.727273 2222.030769 
L 1770.136364 2506.338462 
L 1833.545455 2108.307692 
L 1896.954545 2108.307692 
L 1960.363636 2506.338462 
L 2023.772727 2222.030769 
L 2087.181818 2392.615385 
L 2150.590909 2278.892308 
L 2214 2278.892308 
L 2277.409091 1539.692308 
L 2340.818182 1539.692308 
L 2404.227273 1369.107692 
L 2467.636364 2165.169231 
L 2531.045455 2278.892308 
L 2594.454545 2278.892308 
L 2657.863636 2506.338462 
L 2721.272727 2506.338462 
L 2784.681818 2449.476923 
L 2848.090909 2506.338462 
L 2911.5 2506.338462 
L 2974.909091 2506.338462 
L 3038.318182 2449.476923 
L 3101.727273 2506.338462 
L 3165.136364 2449.476923 
L 3228.545455 2449.476923 
L 3291.954545 2449.476923 
L 3355.363636 2449.476923 
L 3418.772727 2506.338462 
L 3482.181818 2506.338462 
L 3545.590909 2506.338462 
L 3609 2506.338462 
L 3672.409091 2506.338462 
L 3735.818182 2506.338462 
" style="fill:none;stroke:#1f77b4;stroke-linecap:square;stroke-width:4;"/>
    <defs>
     <path d="M 0 10 
C 2.652031 10 5.195799 8.946337 7.071068 7.071068 
C 8.946337 5.195799 10 2.652031 10 0 
C 10 -2.652031 8.946337 -5.195799 7.071068 -7.071068 
C 5.195799 -8.946337 2.652031 -10 0 -10 
C -2.652031 -10 -5.195799 -8.946337 -7.071068 -7.071068 
C -8.946337 -5.195799 -10 -2.652031 -10 0 
C -10 2.652031 -8.946337 5.195799 -7.071068 7.071068 
C -5.195799 8.946337 -2.652031 10 0 10 
z
" id="mc3120fcd38" style="stroke:#1f77b4;"/>
    </defs>
    <g clip-path="url(#p5364f74b9c)">
     <use style="fill:#1f77b4;stroke:#1f77b4;" x="692.181818" xlink:href="#mc3120fcd38" y="1824"/>
     <use style="fill:#1f77b4;stroke:#1f77b4;" x="755.590909" xlink:href="#mc3120fcd38" y="2108.307692"/>
     <use style="fill:#1f77b4;stroke:#1f77b4;" x="819" xlink:href="#mc3120fcd38" y="2392.615385"/>
     <use style="fill:#1f77b4;stroke:#1f77b4;" x="882.409091" xlink:href="#mc3120fcd38" y="2449.476923"/>
     <use style="fill:#1f77b4;stroke:#1f77b4;" x="945.818182" xlink:href="#mc3120fcd38" y="2051.446154"/>
     <use style="fill:#1f77b4;stroke:#1f77b4;" x="1009.227273" xlink:href="#mc3120fcd38" y="2335.753846"/>
     <use style="fill:#1f77b4;stroke:#1f77b4;" x="1072.636364" xlink:href="#mc3120fcd38" y="2335.753846"/>
     <use style="fill:#1f77b4;stroke:#1f77b4;" x="1136.045455" xlink:href="#mc3120fcd38" y="1994.584615"/>
     <use style="fill:#1f77b4;stroke:#1f77b4;" x="1199.454545" xlink:href="#mc3120fcd38" y="2051.446154"/>
     <use style="fill:#1f77b4;stroke:#1f77b4;" x="1262.863636" xlink:href="#mc3120fcd38" y="2165.169231"/>
     <use style="fill:#1f77b4;stroke:#1f77b4;" x="1326.272727" xlink:href="#mc3120fcd38" y="2392.615385"/>
     <use style="fill:#1f77b4;stroke:#1f77b4;" x="1389.681818" xlink:href="#mc3120fcd38" y="2278.892308"/>
     <use style="fill:#1f77b4;stroke:#1f77b4;" x="1453.090909" xlink:href="#mc3120fcd38" y="2335.753846"/>
     <use style="fill:#1f77b4;stroke:#1f77b4;" x="1516.5" xlink:href="#mc3120fcd38" y="2222.030769"/>
     <use style="fill:#1f77b4;stroke:#1f77b4;" x="1579.909091" xlink:href="#mc3120fcd38" y="2392.615385"/>
     <use style="fill:#1f77b4;stroke:#1f77b4;" x="1643.318182" xlink:href="#mc3120fcd38" y="2278.892308"/>
     <use style="fill:#1f77b4;stroke:#1f77b4;" x="1706.727273" xlink:href="#mc3120fcd38" y="2222.030769"/>
     <use style="fill:#1f77b4;stroke:#1f77b4;" x="1770.136364" xlink:href="#mc3120fcd38" y="2506.338462"/>
     <use style="fill:#1f77b4;stroke:#1f77b4;" x="1833.545455" xlink:href="#mc3120fcd38" y="2108.307692"/>
     <use style="fill:#1f77b4;stroke:#1f77b4;" x="1896.954545" xlink:href="#mc3120fcd38" y="2108.307692"/>
     <use style="fill:#1f77b4;stroke:#1f77b4;" x="1960.363636" xlink:href="#mc3120fcd38" y="2506.338462"/>
     <use style="fill:#1f77b4;stroke:#1f77b4;" x="2023.772727" xlink:href="#mc3120fcd38" y="2222.030769"/>
     <use style="fill:#1f77b4;stroke:#1f77b4;" x="2087.181818" xlink:href="#mc3120fcd38" y="2392.615385"/>
     <use style="fill:#1f77b4;stroke:#1f77b4;" x="2150.590909" xlink:href="#mc3120fcd38" y="2278.892308"/>
     <use style="fill:#1f77b4;stroke:#1f77b4;" x="2214" xlink:href="#mc3120fcd38" y="2278.892308"/>
     <use style="fill:#1f77b4;stroke:#1f77b4;" x="2277.409091" xlink:href="#mc3120fcd38" y="1539.692308"/>
     <use style="fill:#1f77b4;stroke:#1f77b4;" x="2340.818182" xlink:href="#mc3120fcd38" y="1539.692308"/>
     <use style="fill:#1f77b4;stroke:#1f77b4;" x="2404.227273" xlink:href="#mc3120fcd38" y="1369.107692"/>
     <use style="fill:#1f77b4;stroke:#1f77b4;" x="2467.636364" xlink:href="#mc3120fcd38" y="2165.169231"/>
     <use style="fill:#1f77b4;stroke:#1f77b4;" x="2531.045455" xlink:href="#mc3120fcd38" y="2278.892308"/>
     <use style="fill:#1f77b4;stroke:#1f77b4;" x="2594.454545" xlink:href="#mc3120fcd38" y="2278.892308"/>
     <use style="fill:#1f77b4;stroke:#1f77b4;" x="2657.863636" xlink:href="#mc3120fcd38" y="2506.338462"/>
     <use style="fill:#1f77b4;stroke:#1f77b4;" x="2721.272727" xlink:href="#mc3120fcd38" y="2506.338462"/>
     <use style="fill:#1f77b4;stroke:#1f77b4;" x="2784.681818" xlink:href="#mc3120fcd38" y="2449.476923"/>
     <use style="fill:#1f77b4;stroke:#1f77b4;" x="2848.090909" xlink:href="#mc3120fcd38" y="2506.338462"/>
     <use style="fill:#1f77b4;stroke:#1f77b4;" x="2911.5" xlink:href="#mc3120fcd38" y="2506.338462"/>
     <use style="fill:#1f77b4;stroke:#1f77b4;" x="2974.909091" xlink:href="#mc3120fcd38" y="2506.338462"/>
     <use style="fill:#1f77b4;stroke:#1f77b4;" x="3038.318182" xlink:href="#mc3120fcd38" y="2449.476923"/>
     <use style="fill:#1f77b4;stroke:#1f77b4;" x="3101.727273" xlink:href="#mc3120fcd38" y="2506.338462"/>
     <use style="fill:#1f77b4;stroke:#1f77b4;" x="3165.136364" xlink:href="#mc3120fcd38" y="2449.476923"/>
     <use style="fill:#1f77b4;stroke:#1f77b4;" x="3228.545455" xlink:href="#mc3120fcd38" y="2449.476923"/>
     <use style="fill:#1f77b4;stroke:#1f77b4;" x="3291.954545" xlink:href="#mc3120fcd38" y="2449.476923"/>
     <use style="fill:#1f77b4;stroke:#1f77b4;" x="3355.363636" xlink:href="#mc3120fcd38" y="2449.476923"/>
     <use style="fill:#1f77b4;stroke:#1f77b4;" x="3418.772727" xlink:href="#mc3120fcd38" y="2506.338462"/>
     <use style="fill:#1f77b4;stroke:#1f77b4;" x="3482.181818" xlink:href="#mc3120fcd38" y="2506.338462"/>
     <use style="fill:#1f77b4;stroke:#1f77b4;" x="3545.590909" xlink:href="#mc3120fcd38" y="2506.338462"/>
     <use style="fill:#1f77b4;stroke:#1f77b4;" x="3609" xlink:href="#mc3120fcd38" y="2506.338462"/>
     <use style="fill:#1f77b4;stroke:#1f77b4;" x="3672.409091" xlink:href="#mc3120fcd38" y="2506.338462"/>
     <use style="fill:#1f77b4;stroke:#1f77b4;" x="3735.818182" xlink:href="#mc3120fcd38" y="2506.338462"/>
    </g>
   </g>
   <g id="patch_3">
    <path d="M 540 2563.2 
L 540 345.6 
" style="fill:none;stroke:#000000;stroke-linecap:square;stroke-linejoin:miter;stroke-width:0.8;"/>
   </g>
   <g id="patch_4">
    <path d="M 3888 2563.2 
L 3888 345.6 
" style="fill:none;stroke:#000000;stroke-linecap:square;stroke-linejoin:miter;stroke-width:0.8;"/>
   </g>
   <g id="patch_5">
    <path d="M 540 2563.2 
L 3888 2563.2 
" style="fill:none;stroke:#000000;stroke-linecap:square;stroke-linejoin:miter;stroke-width:0.8;"/>
   </g>
   <g id="patch_6">
    <path d="M 540 345.6 
L 3888 345.6 
" style="fill:none;stroke:#000000;stroke-linecap:square;stroke-linejoin:miter;stroke-width:0.8;"/>
   </g>
   <g id="text_72">
    <!-- 小坂菜緒の出演回数推移 -->
    <g transform="translate(1774 335.2875)scale(0.8 -0.8)">
     <defs>
      <path d="M 6.25 16.015625 
Q 19.921875 36.328125 23.4375 60.15625 
L 32.8125 57.8125 
Q 35.9375 56.640625 32.421875 55.46875 
Q 27.734375 32.03125 14.84375 10.546875 
z
M 73.046875 60.15625 
Q 87.109375 41.40625 94.53125 20.3125 
L 84.765625 16.015625 
Q 77.734375 37.890625 65.625 56.25 
L 73.046875 60.15625 
z
M 44.140625 3.515625 
Q 45.703125 3.515625 45.703125 5.078125 
L 45.703125 76.171875 
L 54.296875 76.171875 
Q 58.203125 75.390625 54.6875 73.046875 
L 54.6875 0 
Q 54.6875 -5.078125 49.609375 -5.078125 
L 38.671875 -5.078125 
L 35.546875 3.515625 
L 44.140625 3.515625 
z
" id="MS-Gothic-23567"/>
      <path d="M 75.78125 13.671875 
Q 81.25 8.203125 94.53125 1.5625 
L 91.015625 -7.03125 
Q 78.125 -1.5625 69.921875 7.421875 
Q 60.546875 -2.734375 46.484375 -8.59375 
L 41.796875 -0.78125 
Q 57.421875 5.078125 64.84375 13.671875 
Q 57.03125 25.78125 54.6875 44.140625 
L 49.609375 44.140625 
L 49.609375 32.03125 
Q 49.609375 8.203125 29.296875 -7.03125 
L 23.4375 0 
Q 41.796875 11.328125 41.796875 33.203125 
L 41.796875 75.78125 
L 91.40625 75.78125 
L 91.40625 68.359375 
L 49.609375 68.359375 
L 49.609375 51.5625 
L 80.859375 51.5625 
L 81.640625 53.515625 
L 89.453125 48.828125 
L 88.28125 47.265625 
Q 84.765625 26.953125 75.78125 13.671875 
z
M 38.671875 21.875 
Q 32.8125 17.96875 10.9375 8.984375 
Q 9.765625 5.859375 8.984375 7.421875 
L 5.46875 16.796875 
Q 12.109375 18.75 18.75 21.09375 
L 18.75 51.953125 
L 7.421875 51.953125 
L 7.421875 59.375 
L 18.75 59.375 
L 18.75 79.6875 
L 26.171875 79.6875 
Q 29.296875 79.296875 26.5625 77.34375 
L 26.5625 59.375 
L 38.28125 59.375 
L 38.28125 51.953125 
L 26.5625 51.953125 
L 26.5625 24.21875 
Q 32.03125 26.5625 37.109375 28.90625 
z
M 62.5 44.140625 
Q 64.84375 28.515625 70.703125 20.3125 
Q 77.34375 31.25 78.90625 44.140625 
z
" id="MS-Gothic-22338"/>
      <path d="M 53.90625 32.8125 
Q 57.03125 32.421875 54.296875 30.46875 
L 54.296875 26.171875 
L 92.1875 26.171875 
L 92.1875 18.75 
L 59.375 18.75 
Q 73.4375 7.03125 94.53125 3.125 
L 91.40625 -5.46875 
Q 67.96875 0 54.296875 14.0625 
L 54.296875 -8.59375 
L 46.484375 -8.59375 
L 46.484375 12.109375 
Q 31.640625 -2.34375 8.59375 -6.640625 
L 5.078125 1.953125 
Q 28.90625 5.859375 42.578125 18.75 
L 8.203125 18.75 
L 8.203125 26.171875 
L 46.484375 26.171875 
L 46.484375 32.8125 
L 47.265625 32.8125 
Q 45.703125 38.28125 42.578125 43.359375 
L 51.171875 46.875 
Q 54.6875 42.578125 56.25 35.9375 
L 48.828125 32.8125 
L 53.90625 32.8125 
z
M 14.453125 53.90625 
Q 63.28125 55.46875 80.859375 57.8125 
L 85.15625 51.171875 
Q 85.9375 49.21875 82.421875 50.390625 
Q 58.203125 48.046875 16.015625 47.265625 
z
M 25.78125 45.703125 
Q 30.078125 41.40625 32.421875 33.59375 
L 23.4375 30.078125 
Q 21.09375 37.109375 17.578125 42.1875 
z
M 67.578125 33.59375 
Q 72.65625 40.625 77.34375 48.046875 
L 85.546875 43.359375 
Q 86.71875 42.578125 83.59375 41.796875 
Q 79.296875 35.546875 74.609375 29.6875 
z
M 31.640625 72.265625 
L 31.640625 80.46875 
L 39.0625 80.46875 
Q 42.1875 80.078125 39.453125 78.125 
L 39.453125 72.265625 
L 60.15625 72.265625 
L 60.15625 80.46875 
L 67.578125 80.46875 
Q 70.703125 80.078125 67.96875 78.125 
L 67.96875 72.265625 
L 92.1875 72.265625 
L 92.1875 64.84375 
L 67.96875 64.84375 
L 67.96875 61.328125 
L 60.15625 61.328125 
L 60.15625 64.84375 
L 39.453125 64.84375 
L 39.453125 59.375 
L 31.640625 59.375 
L 31.640625 64.84375 
L 8.203125 64.84375 
L 8.203125 72.265625 
z
" id="MS-Gothic-33756"/>
      <path d="M 75.390625 45.703125 
Q 71.875 41.796875 66.015625 36.71875 
L 88.671875 36.71875 
L 88.671875 -8.203125 
L 82.03125 -8.203125 
L 82.03125 -3.90625 
L 60.15625 -3.90625 
L 60.15625 -8.984375 
L 53.515625 -8.984375 
L 53.515625 26.5625 
Q 50 23.828125 43.75 21.09375 
L 40.234375 27.734375 
Q 55.078125 35.15625 65.625 45.703125 
L 42.1875 45.703125 
L 42.1875 53.125 
L 61.328125 53.125 
L 61.328125 63.28125 
L 48.046875 63.28125 
L 48.046875 70.703125 
L 61.328125 70.703125 
L 61.328125 82.03125 
L 68.75 82.03125 
Q 71.875 81.640625 69.140625 79.6875 
L 69.140625 70.703125 
L 78.90625 70.703125 
L 78.90625 63.28125 
L 69.140625 63.28125 
L 69.140625 53.125 
L 71.875 53.125 
Q 80.078125 62.109375 85.546875 73.4375 
L 92.1875 69.53125 
Q 94.921875 67.578125 91.40625 67.578125 
Q 85.9375 59.375 80.859375 53.125 
L 95.703125 53.125 
L 95.703125 45.703125 
L 75.390625 45.703125 
z
M 9.375 30.859375 
Q 8.984375 28.125 7.421875 29.6875 
L 5.078125 38.28125 
L 13.28125 38.671875 
Q 17.1875 42.578125 19.921875 46.484375 
Q 13.671875 53.125 6.25 58.203125 
L 10.15625 64.0625 
Q 12.5 62.5 14.0625 60.9375 
Q 21.09375 71.875 25 80.46875 
L 32.03125 76.953125 
Q 35.546875 75 31.640625 75 
Q 27.734375 69.140625 19.140625 57.03125 
Q 20.703125 55.859375 24.21875 52.34375 
Q 29.6875 59.765625 34.375 68.359375 
L 40.234375 63.671875 
Q 43.359375 60.9375 39.84375 61.71875 
Q 31.25 50.78125 21.484375 38.671875 
L 35.15625 39.84375 
Q 33.984375 42.96875 32.03125 46.09375 
L 37.890625 48.4375 
Q 42.578125 42.578125 45.703125 33.59375 
L 38.671875 30.078125 
Q 37.890625 33.203125 37.109375 34.765625 
L 29.296875 33.59375 
L 29.296875 -9.375 
L 21.484375 -9.375 
L 21.484375 32.421875 
L 9.375 30.859375 
z
M 82.03125 20.3125 
L 82.03125 29.296875 
L 60.15625 29.296875 
L 60.15625 20.3125 
z
M 60.15625 12.890625 
L 60.15625 3.515625 
L 82.03125 3.515625 
L 82.03125 12.890625 
z
M 37.5 26.953125 
Q 41.40625 20.3125 42.96875 8.984375 
L 35.9375 6.25 
Q 34.765625 16.015625 32.03125 24.609375 
z
M 17.96875 25.390625 
Q 19.53125 23.828125 16.796875 23.4375 
Q 16.796875 14.0625 13.28125 0.78125 
L 6.25 3.125 
Q 10.15625 16.40625 10.15625 26.5625 
z
" id="MS-Gothic-32210"/>
      <path d="M 53.90625 55.078125 
Q 47.265625 16.015625 37.890625 6.640625 
Q 32.8125 1.5625 27.34375 1.5625 
Q 21.09375 1.5625 17.578125 5.078125 
Q 8.203125 14.453125 8.203125 28.515625 
Q 8.203125 45.703125 20.3125 57.8125 
Q 33.59375 71.09375 52.734375 71.09375 
Q 69.921875 71.09375 79.6875 61.328125 
Q 90.625 50.390625 90.625 35.546875 
Q 90.625 19.53125 80.46875 9.375 
Q 73.828125 2.734375 60.15625 -3.515625 
L 51.953125 4.6875 
Q 65.625 8.984375 73.4375 16.796875 
Q 80.859375 24.21875 80.859375 34.765625 
Q 80.859375 47.265625 72.65625 55.46875 
Q 64.453125 63.671875 46.875 62.890625 
L 53.90625 59.375 
Q 58.59375 57.421875 53.90625 55.078125 
z
M 44.921875 62.5 
Q 34.765625 60.15625 27.34375 52.734375 
Q 17.1875 42.578125 17.1875 27.734375 
Q 17.1875 18.75 23.046875 12.890625 
Q 24.21875 11.71875 26.5625 11.71875 
Q 28.90625 11.71875 31.640625 14.453125 
Q 40.625 23.4375 44.921875 62.5 
z
" id="MS-Gothic-12398"/>
      <path d="M 32.8125 46.875 
Q 45.703125 58.984375 52.734375 82.03125 
L 60.546875 79.6875 
Q 62.5 78.125 59.765625 77.734375 
Q 56.640625 69.921875 53.515625 63.28125 
L 65.234375 63.28125 
Q 69.53125 72.265625 71.875 79.296875 
L 79.296875 76.5625 
Q 80.859375 75 78.125 74.609375 
Q 75.390625 68.359375 72.65625 63.28125 
L 92.578125 63.28125 
L 92.578125 55.859375 
L 72.65625 55.859375 
L 72.65625 43.75 
L 88.671875 43.75 
L 88.671875 36.328125 
L 72.65625 36.328125 
L 72.65625 23.828125 
L 88.671875 23.828125 
L 88.671875 16.40625 
L 72.65625 16.40625 
L 72.65625 1.953125 
L 94.921875 1.953125 
L 94.921875 -5.46875 
L 51.953125 -5.46875 
L 51.953125 -8.984375 
L 44.140625 -8.984375 
L 44.140625 47.65625 
Q 41.40625 43.75 38.28125 40.625 
z
M 13.28125 -8.203125 
L 11.71875 -0.78125 
L 18.359375 -0.78125 
Q 19.921875 -0.78125 19.921875 0.78125 
L 19.921875 25 
L 9.765625 22.65625 
Q 9.375 19.921875 7.8125 21.484375 
L 6.25 30.46875 
L 19.921875 33.203125 
L 19.921875 53.90625 
L 7.8125 53.90625 
L 7.8125 61.328125 
L 19.921875 61.328125 
L 19.921875 81.25 
L 27.34375 81.25 
Q 30.46875 80.859375 27.734375 78.90625 
L 27.734375 61.328125 
L 37.890625 61.328125 
L 37.890625 53.90625 
L 27.734375 53.90625 
L 27.734375 34.765625 
L 37.890625 37.5 
L 39.0625 30.46875 
L 27.734375 26.953125 
L 27.734375 -1.953125 
Q 27.734375 -8.203125 21.484375 -8.203125 
z
M 51.953125 1.953125 
L 64.84375 1.953125 
L 64.84375 16.40625 
L 51.953125 16.40625 
z
M 51.953125 23.828125 
L 64.84375 23.828125 
L 64.84375 36.328125 
L 51.953125 36.328125 
z
M 51.953125 43.75 
L 64.84375 43.75 
L 64.84375 55.859375 
L 51.953125 55.859375 
z
" id="MS-Gothic-25512"/>
      <path d="M 83.203125 70.3125 
L 84.375 71.875 
L 90.625 66.796875 
L 89.453125 65.625 
Q 79.296875 48.046875 69.53125 42.1875 
L 73.4375 41.015625 
Q 76.171875 39.84375 73.046875 38.671875 
Q 72.265625 35.9375 71.09375 33.984375 
L 87.890625 33.984375 
L 89.0625 35.546875 
L 96.09375 30.46875 
L 94.53125 28.90625 
Q 82.03125 -4.296875 43.75 -8.59375 
L 40.625 -1.171875 
Q 58.984375 0.78125 69.53125 8.59375 
Q 64.0625 14.0625 58.59375 17.96875 
Q 53.515625 13.671875 44.921875 10.15625 
L 41.40625 17.1875 
Q 60.546875 25 66.40625 41.015625 
Q 60.546875 35.546875 45.3125 31.640625 
L 41.796875 38.671875 
Q 56.640625 41.796875 64.0625 46.875 
Q 60.15625 51.5625 54.6875 55.078125 
Q 51.953125 52.34375 49.21875 50.390625 
L 43.75 56.25 
Q 56.640625 67.1875 60.15625 79.6875 
L 67.1875 77.34375 
Q 69.921875 76.171875 66.796875 75 
Q 66.40625 72.65625 64.84375 70.3125 
z
M 30.078125 55.078125 
L 42.96875 55.078125 
L 42.96875 47.65625 
L 30.078125 47.65625 
L 30.078125 37.890625 
Q 37.890625 34.375 44.921875 27.34375 
L 39.84375 20.3125 
Q 33.59375 26.5625 30.078125 29.296875 
L 30.078125 -8.59375 
L 22.265625 -8.59375 
L 22.265625 30.078125 
Q 19.921875 22.265625 9.375 10.15625 
L 3.515625 17.578125 
Q 17.96875 31.25 21.484375 47.65625 
L 6.25 47.65625 
L 6.25 55.078125 
L 22.265625 55.078125 
L 22.265625 67.96875 
Q 14.453125 66.796875 8.203125 66.015625 
L 6.25 73.4375 
Q 21.875 75 38.671875 79.6875 
L 42.96875 73.828125 
Q 44.53125 71.484375 41.015625 72.265625 
Q 35.546875 70.703125 30.078125 69.53125 
z
M 58.59375 59.765625 
Q 64.453125 56.640625 69.921875 51.953125 
Q 75.78125 57.421875 79.6875 64.0625 
L 61.71875 64.0625 
Q 60.15625 61.328125 58.59375 59.765625 
z
M 62.890625 22.65625 
Q 68.359375 19.53125 75.390625 13.28125 
Q 81.25 17.578125 85.546875 27.734375 
L 67.578125 27.734375 
Q 65.234375 24.609375 62.890625 22.65625 
z
" id="MS-Gothic-31227"/>
     </defs>
     <use xlink:href="#MS-Gothic-23567"/>
     <use x="100" xlink:href="#MS-Gothic-22338"/>
     <use x="200" xlink:href="#MS-Gothic-33756"/>
     <use x="300" xlink:href="#MS-Gothic-32210"/>
     <use x="400" xlink:href="#MS-Gothic-12398"/>
     <use x="500" xlink:href="#MS-Gothic-20986"/>
     <use x="600" xlink:href="#MS-Gothic-28436"/>
     <use x="700" xlink:href="#MS-Gothic-22238"/>
     <use x="800" xlink:href="#MS-Gothic-25968"/>
     <use x="900" xlink:href="#MS-Gothic-25512"/>
     <use x="1000" xlink:href="#MS-Gothic-31227"/>
    </g>
   </g>
  </g>
 </g>
 <defs>
  <clipPath id="p5364f74b9c">
   <rect height="2217.6" width="3348" x="540" y="345.6"/>
  </clipPath>
 </defs>
</svg>
