<?xml version="1.0" encoding="utf-8" standalone="no"?>
<!DOCTYPE svg PUBLIC "-//W3C//DTD SVG 1.1//EN"
  "http://www.w3.org/Graphics/SVG/1.1/DTD/svg11.dtd">
<!-- Created with matplotlib (https://matplotlib.org/) -->
<svg height="2880pt" version="1.1" viewBox="0 0 4320 2880" width="4320pt" xmlns="http://www.w3.org/2000/svg" xmlns:xlink="http://www.w3.org/1999/xlink">
 <metadata>
  <rdf:RDF xmlns:cc="http://creativecommons.org/ns#" xmlns:dc="http://purl.org/dc/elements/1.1/" xmlns:rdf="http://www.w3.org/1999/02/22-rdf-syntax-ns#">
   <cc:Work>
    <dc:type rdf:resource="http://purl.org/dc/dcmitype/StillImage"/>
    <dc:date>2022-10-13T13:36:10.338354</dc:date>
    <dc:format>image/svg+xml</dc:format>
    <dc:creator>
     <cc:Agent>
      <dc:title>Matplotlib v3.3.4, https://matplotlib.org/</dc:title>
     </cc:Agent>
    </dc:creator>
   </cc:Work>
  </rdf:RDF>
 </metadata>
 <defs>
  <style type="text/css">*{stroke-linecap:butt;stroke-linejoin:round;}</style>
 </defs>
 <g id="figure_1">
  <g id="patch_1">
   <path d="M 0 2880 
L 4320 2880 
L 4320 0 
L 0 0 
z
" style="fill:#ffffff;"/>
  </g>
  <g id="axes_1">
   <g id="patch_2">
    <path d="M 540 2563.2 
L 3888 2563.2 
L 3888 345.6 
L 540 345.6 
z
" style="fill:#ffffff;"/>
   </g>
   <g id="matplotlib.axis_1">
    <g id="xtick_1">
     <g id="line2d_1">
      <defs>
       <path d="M 0 0 
L 0 3.5 
" id="mdfc0d4992c" style="stroke:#000000;stroke-width:0.8;"/>
      </defs>
      <g>
       <use style="stroke:#000000;stroke-width:0.8;" x="692.181818" xlink:href="#mdfc0d4992c" y="2563.2"/>
      </g>
     </g>
    </g>
    <g id="xtick_2">
     <g id="line2d_2">
      <g>
       <use style="stroke:#000000;stroke-width:0.8;" x="762.964059" xlink:href="#mdfc0d4992c" y="2563.2"/>
      </g>
     </g>
    </g>
    <g id="xtick_3">
     <g id="line2d_3">
      <g>
       <use style="stroke:#000000;stroke-width:0.8;" x="833.7463" xlink:href="#mdfc0d4992c" y="2563.2"/>
      </g>
     </g>
    </g>
    <g id="xtick_4">
     <g id="line2d_4">
      <g>
       <use style="stroke:#000000;stroke-width:0.8;" x="904.528541" xlink:href="#mdfc0d4992c" y="2563.2"/>
      </g>
     </g>
    </g>
    <g id="xtick_5">
     <g id="line2d_5">
      <g>
       <use style="stroke:#000000;stroke-width:0.8;" x="975.310782" xlink:href="#mdfc0d4992c" y="2563.2"/>
      </g>
     </g>
    </g>
    <g id="xtick_6">
     <g id="line2d_6">
      <g>
       <use style="stroke:#000000;stroke-width:0.8;" x="1046.093023" xlink:href="#mdfc0d4992c" y="2563.2"/>
      </g>
     </g>
    </g>
    <g id="xtick_7">
     <g id="line2d_7">
      <g>
       <use style="stroke:#000000;stroke-width:0.8;" x="1116.875264" xlink:href="#mdfc0d4992c" y="2563.2"/>
      </g>
     </g>
    </g>
    <g id="xtick_8">
     <g id="line2d_8">
      <g>
       <use style="stroke:#000000;stroke-width:0.8;" x="1187.657505" xlink:href="#mdfc0d4992c" y="2563.2"/>
      </g>
     </g>
    </g>
    <g id="xtick_9">
     <g id="line2d_9">
      <g>
       <use style="stroke:#000000;stroke-width:0.8;" x="1258.439746" xlink:href="#mdfc0d4992c" y="2563.2"/>
      </g>
     </g>
    </g>
    <g id="xtick_10">
     <g id="line2d_10">
      <g>
       <use style="stroke:#000000;stroke-width:0.8;" x="1329.221987" xlink:href="#mdfc0d4992c" y="2563.2"/>
      </g>
     </g>
    </g>
    <g id="xtick_11">
     <g id="line2d_11">
      <g>
       <use style="stroke:#000000;stroke-width:0.8;" x="1400.004228" xlink:href="#mdfc0d4992c" y="2563.2"/>
      </g>
     </g>
    </g>
    <g id="xtick_12">
     <g id="line2d_12">
      <g>
       <use style="stroke:#000000;stroke-width:0.8;" x="1470.786469" xlink:href="#mdfc0d4992c" y="2563.2"/>
      </g>
     </g>
    </g>
    <g id="xtick_13">
     <g id="line2d_13">
      <g>
       <use style="stroke:#000000;stroke-width:0.8;" x="1541.56871" xlink:href="#mdfc0d4992c" y="2563.2"/>
      </g>
     </g>
    </g>
    <g id="xtick_14">
     <g id="line2d_14">
      <g>
       <use style="stroke:#000000;stroke-width:0.8;" x="1612.350951" xlink:href="#mdfc0d4992c" y="2563.2"/>
      </g>
     </g>
    </g>
    <g id="xtick_15">
     <g id="line2d_15">
      <g>
       <use style="stroke:#000000;stroke-width:0.8;" x="1683.133192" xlink:href="#mdfc0d4992c" y="2563.2"/>
      </g>
     </g>
    </g>
    <g id="xtick_16">
     <g id="line2d_16">
      <g>
       <use style="stroke:#000000;stroke-width:0.8;" x="1753.915433" xlink:href="#mdfc0d4992c" y="2563.2"/>
      </g>
     </g>
    </g>
    <g id="xtick_17">
     <g id="line2d_17">
      <g>
       <use style="stroke:#000000;stroke-width:0.8;" x="1824.697674" xlink:href="#mdfc0d4992c" y="2563.2"/>
      </g>
     </g>
    </g>
    <g id="xtick_18">
     <g id="line2d_18">
      <g>
       <use style="stroke:#000000;stroke-width:0.8;" x="1895.479915" xlink:href="#mdfc0d4992c" y="2563.2"/>
      </g>
     </g>
    </g>
    <g id="xtick_19">
     <g id="line2d_19">
      <g>
       <use style="stroke:#000000;stroke-width:0.8;" x="1966.262156" xlink:href="#mdfc0d4992c" y="2563.2"/>
      </g>
     </g>
    </g>
    <g id="xtick_20">
     <g id="line2d_20">
      <g>
       <use style="stroke:#000000;stroke-width:0.8;" x="2037.044397" xlink:href="#mdfc0d4992c" y="2563.2"/>
      </g>
     </g>
    </g>
    <g id="xtick_21">
     <g id="line2d_21">
      <g>
       <use style="stroke:#000000;stroke-width:0.8;" x="2107.826638" xlink:href="#mdfc0d4992c" y="2563.2"/>
      </g>
     </g>
    </g>
    <g id="xtick_22">
     <g id="line2d_22">
      <g>
       <use style="stroke:#000000;stroke-width:0.8;" x="2178.608879" xlink:href="#mdfc0d4992c" y="2563.2"/>
      </g>
     </g>
    </g>
    <g id="xtick_23">
     <g id="line2d_23">
      <g>
       <use style="stroke:#000000;stroke-width:0.8;" x="2249.391121" xlink:href="#mdfc0d4992c" y="2563.2"/>
      </g>
     </g>
    </g>
    <g id="xtick_24">
     <g id="line2d_24">
      <g>
       <use style="stroke:#000000;stroke-width:0.8;" x="2320.173362" xlink:href="#mdfc0d4992c" y="2563.2"/>
      </g>
     </g>
    </g>
    <g id="xtick_25">
     <g id="line2d_25">
      <g>
       <use style="stroke:#000000;stroke-width:0.8;" x="2390.955603" xlink:href="#mdfc0d4992c" y="2563.2"/>
      </g>
     </g>
    </g>
    <g id="xtick_26">
     <g id="line2d_26">
      <g>
       <use style="stroke:#000000;stroke-width:0.8;" x="2461.737844" xlink:href="#mdfc0d4992c" y="2563.2"/>
      </g>
     </g>
    </g>
    <g id="xtick_27">
     <g id="line2d_27">
      <g>
       <use style="stroke:#000000;stroke-width:0.8;" x="2532.520085" xlink:href="#mdfc0d4992c" y="2563.2"/>
      </g>
     </g>
    </g>
    <g id="xtick_28">
     <g id="line2d_28">
      <g>
       <use style="stroke:#000000;stroke-width:0.8;" x="2603.302326" xlink:href="#mdfc0d4992c" y="2563.2"/>
      </g>
     </g>
    </g>
    <g id="xtick_29">
     <g id="line2d_29">
      <g>
       <use style="stroke:#000000;stroke-width:0.8;" x="2674.084567" xlink:href="#mdfc0d4992c" y="2563.2"/>
      </g>
     </g>
    </g>
    <g id="xtick_30">
     <g id="line2d_30">
      <g>
       <use style="stroke:#000000;stroke-width:0.8;" x="2744.866808" xlink:href="#mdfc0d4992c" y="2563.2"/>
      </g>
     </g>
    </g>
    <g id="xtick_31">
     <g id="line2d_31">
      <g>
       <use style="stroke:#000000;stroke-width:0.8;" x="2815.649049" xlink:href="#mdfc0d4992c" y="2563.2"/>
      </g>
     </g>
    </g>
    <g id="xtick_32">
     <g id="line2d_32">
      <g>
       <use style="stroke:#000000;stroke-width:0.8;" x="2886.43129" xlink:href="#mdfc0d4992c" y="2563.2"/>
      </g>
     </g>
    </g>
    <g id="xtick_33">
     <g id="line2d_33">
      <g>
       <use style="stroke:#000000;stroke-width:0.8;" x="2957.213531" xlink:href="#mdfc0d4992c" y="2563.2"/>
      </g>
     </g>
    </g>
    <g id="xtick_34">
     <g id="line2d_34">
      <g>
       <use style="stroke:#000000;stroke-width:0.8;" x="3027.995772" xlink:href="#mdfc0d4992c" y="2563.2"/>
      </g>
     </g>
    </g>
    <g id="xtick_35">
     <g id="line2d_35">
      <g>
       <use style="stroke:#000000;stroke-width:0.8;" x="3098.778013" xlink:href="#mdfc0d4992c" y="2563.2"/>
      </g>
     </g>
    </g>
    <g id="xtick_36">
     <g id="line2d_36">
      <g>
       <use style="stroke:#000000;stroke-width:0.8;" x="3169.560254" xlink:href="#mdfc0d4992c" y="2563.2"/>
      </g>
     </g>
    </g>
    <g id="xtick_37">
     <g id="line2d_37">
      <g>
       <use style="stroke:#000000;stroke-width:0.8;" x="3240.342495" xlink:href="#mdfc0d4992c" y="2563.2"/>
      </g>
     </g>
    </g>
    <g id="xtick_38">
     <g id="line2d_38">
      <g>
       <use style="stroke:#000000;stroke-width:0.8;" x="3311.124736" xlink:href="#mdfc0d4992c" y="2563.2"/>
      </g>
     </g>
    </g>
    <g id="xtick_39">
     <g id="line2d_39">
      <g>
       <use style="stroke:#000000;stroke-width:0.8;" x="3381.906977" xlink:href="#mdfc0d4992c" y="2563.2"/>
      </g>
     </g>
    </g>
    <g id="xtick_40">
     <g id="line2d_40">
      <g>
       <use style="stroke:#000000;stroke-width:0.8;" x="3452.689218" xlink:href="#mdfc0d4992c" y="2563.2"/>
      </g>
     </g>
    </g>
    <g id="xtick_41">
     <g id="line2d_41">
      <g>
       <use style="stroke:#000000;stroke-width:0.8;" x="3523.471459" xlink:href="#mdfc0d4992c" y="2563.2"/>
      </g>
     </g>
    </g>
    <g id="xtick_42">
     <g id="line2d_42">
      <g>
       <use style="stroke:#000000;stroke-width:0.8;" x="3594.2537" xlink:href="#mdfc0d4992c" y="2563.2"/>
      </g>
     </g>
    </g>
    <g id="xtick_43">
     <g id="line2d_43">
      <g>
       <use style="stroke:#000000;stroke-width:0.8;" x="3665.035941" xlink:href="#mdfc0d4992c" y="2563.2"/>
      </g>
     </g>
    </g>
    <g id="xtick_44">
     <g id="line2d_44">
      <g>
       <use style="stroke:#000000;stroke-width:0.8;" x="3735.818182" xlink:href="#mdfc0d4992c" y="2563.2"/>
      </g>
     </g>
    </g>
    <g id="text_1">
     <!-- 年-月 -->
     <g transform="translate(2139 2620.371875)scale(0.6 -0.6)">
      <defs>
       <path d="M 31.25 60.9375 
Q 23.828125 48.046875 12.890625 39.453125 
L 7.421875 46.484375 
Q 23.4375 58.203125 29.296875 80.46875 
L 38.28125 78.125 
Q 39.84375 76.5625 37.109375 76.171875 
L 33.984375 68.359375 
L 89.0625 68.359375 
L 89.0625 60.9375 
L 60.546875 60.9375 
L 60.546875 47.65625 
L 83.984375 47.65625 
L 83.984375 40.234375 
L 60.546875 40.234375 
L 60.546875 22.65625 
L 93.359375 22.65625 
L 93.359375 15.234375 
L 60.546875 15.234375 
L 60.546875 -8.203125 
L 52.734375 -8.203125 
L 52.734375 15.234375 
L 7.8125 15.234375 
L 7.8125 22.65625 
L 25.390625 22.65625 
L 25.390625 47.65625 
L 52.734375 47.65625 
L 52.734375 60.9375 
L 31.25 60.9375 
z
M 33.203125 22.65625 
L 52.734375 22.65625 
L 52.734375 40.234375 
L 33.203125 40.234375 
z
" id="MS-Gothic-24180"/>
       <path d="M 46.875 39.0625 
L 46.875 32.8125 
L 2.34375 32.8125 
L 2.34375 39.0625 
z
" id="MS-Gothic-45"/>
       <path d="M 70.703125 22.65625 
L 33.59375 22.65625 
Q 33.59375 5.859375 16.40625 -8.984375 
L 9.765625 -1.5625 
Q 25.78125 8.59375 25.78125 28.90625 
L 25.78125 76.5625 
L 78.515625 76.5625 
L 78.515625 -0.390625 
Q 78.515625 -6.640625 71.875 -6.640625 
L 62.5 -6.640625 
L 60.9375 1.953125 
L 69.140625 1.953125 
Q 70.703125 1.953125 70.703125 3.515625 
z
M 33.59375 31.25 
L 70.703125 31.25 
L 70.703125 45.3125 
L 33.59375 45.3125 
z
M 33.59375 53.90625 
L 70.703125 53.90625 
L 70.703125 67.96875 
L 33.59375 67.96875 
z
" id="MS-Gothic-26376"/>
      </defs>
      <use xlink:href="#MS-Gothic-24180"/>
      <use x="100" xlink:href="#MS-Gothic-45"/>
      <use x="150" xlink:href="#MS-Gothic-26376"/>
     </g>
    </g>
   </g>
   <g id="matplotlib.axis_2">
    <g id="ytick_1">
     <g id="line2d_45">
      <defs>
       <path d="M 0 0 
L -3.5 0 
" id="m3683bbf58f" style="stroke:#000000;stroke-width:0.8;"/>
      </defs>
      <g>
       <use style="stroke:#000000;stroke-width:0.8;" x="540" xlink:href="#m3683bbf58f" y="2462.906533"/>
      </g>
     </g>
     <g id="text_2">
      <!-- 0 -->
      <g transform="translate(513.9125 2474.304189)scale(0.3 -0.3)">
       <defs>
        <path d="M 31.78125 66.40625 
Q 24.171875 66.40625 20.328125 58.90625 
Q 16.5 51.421875 16.5 36.375 
Q 16.5 21.390625 20.328125 13.890625 
Q 24.171875 6.390625 31.78125 6.390625 
Q 39.453125 6.390625 43.28125 13.890625 
Q 47.125 21.390625 47.125 36.375 
Q 47.125 51.421875 43.28125 58.90625 
Q 39.453125 66.40625 31.78125 66.40625 
z
M 31.78125 74.21875 
Q 44.046875 74.21875 50.515625 64.515625 
Q 56.984375 54.828125 56.984375 36.375 
Q 56.984375 17.96875 50.515625 8.265625 
Q 44.046875 -1.421875 31.78125 -1.421875 
Q 19.53125 -1.421875 13.0625 8.265625 
Q 6.59375 17.96875 6.59375 36.375 
Q 6.59375 54.828125 13.0625 64.515625 
Q 19.53125 74.21875 31.78125 74.21875 
z
" id="DejaVuSans-48"/>
       </defs>
       <use xlink:href="#DejaVuSans-48"/>
      </g>
     </g>
    </g>
    <g id="ytick_2">
     <g id="line2d_46">
      <g>
       <use style="stroke:#000000;stroke-width:0.8;" x="540" xlink:href="#m3683bbf58f" y="2351.469347"/>
      </g>
     </g>
     <g id="text_3">
      <!-- 2 -->
      <g transform="translate(513.9125 2362.867003)scale(0.3 -0.3)">
       <defs>
        <path d="M 19.1875 8.296875 
L 53.609375 8.296875 
L 53.609375 0 
L 7.328125 0 
L 7.328125 8.296875 
Q 12.9375 14.109375 22.625 23.890625 
Q 32.328125 33.6875 34.8125 36.53125 
Q 39.546875 41.84375 41.421875 45.53125 
Q 43.3125 49.21875 43.3125 52.78125 
Q 43.3125 58.59375 39.234375 62.25 
Q 35.15625 65.921875 28.609375 65.921875 
Q 23.96875 65.921875 18.8125 64.3125 
Q 13.671875 62.703125 7.8125 59.421875 
L 7.8125 69.390625 
Q 13.765625 71.78125 18.9375 73 
Q 24.125 74.21875 28.421875 74.21875 
Q 39.75 74.21875 46.484375 68.546875 
Q 53.21875 62.890625 53.21875 53.421875 
Q 53.21875 48.921875 51.53125 44.890625 
Q 49.859375 40.875 45.40625 35.40625 
Q 44.1875 33.984375 37.640625 27.21875 
Q 31.109375 20.453125 19.1875 8.296875 
z
" id="DejaVuSans-50"/>
       </defs>
       <use xlink:href="#DejaVuSans-50"/>
      </g>
     </g>
    </g>
    <g id="ytick_3">
     <g id="line2d_47">
      <g>
       <use style="stroke:#000000;stroke-width:0.8;" x="540" xlink:href="#m3683bbf58f" y="2240.032161"/>
      </g>
     </g>
     <g id="text_4">
      <!-- 4 -->
      <g transform="translate(513.9125 2251.429817)scale(0.3 -0.3)">
       <defs>
        <path d="M 37.796875 64.3125 
L 12.890625 25.390625 
L 37.796875 25.390625 
z
M 35.203125 72.90625 
L 47.609375 72.90625 
L 47.609375 25.390625 
L 58.015625 25.390625 
L 58.015625 17.1875 
L 47.609375 17.1875 
L 47.609375 0 
L 37.796875 0 
L 37.796875 17.1875 
L 4.890625 17.1875 
L 4.890625 26.703125 
z
" id="DejaVuSans-52"/>
       </defs>
       <use xlink:href="#DejaVuSans-52"/>
      </g>
     </g>
    </g>
    <g id="ytick_4">
     <g id="line2d_48">
      <g>
       <use style="stroke:#000000;stroke-width:0.8;" x="540" xlink:href="#m3683bbf58f" y="2128.594975"/>
      </g>
     </g>
     <g id="text_5">
      <!-- 6 -->
      <g transform="translate(513.9125 2139.992631)scale(0.3 -0.3)">
       <defs>
        <path d="M 33.015625 40.375 
Q 26.375 40.375 22.484375 35.828125 
Q 18.609375 31.296875 18.609375 23.390625 
Q 18.609375 15.53125 22.484375 10.953125 
Q 26.375 6.390625 33.015625 6.390625 
Q 39.65625 6.390625 43.53125 10.953125 
Q 47.40625 15.53125 47.40625 23.390625 
Q 47.40625 31.296875 43.53125 35.828125 
Q 39.65625 40.375 33.015625 40.375 
z
M 52.59375 71.296875 
L 52.59375 62.3125 
Q 48.875 64.0625 45.09375 64.984375 
Q 41.3125 65.921875 37.59375 65.921875 
Q 27.828125 65.921875 22.671875 59.328125 
Q 17.53125 52.734375 16.796875 39.40625 
Q 19.671875 43.65625 24.015625 45.921875 
Q 28.375 48.1875 33.59375 48.1875 
Q 44.578125 48.1875 50.953125 41.515625 
Q 57.328125 34.859375 57.328125 23.390625 
Q 57.328125 12.15625 50.6875 5.359375 
Q 44.046875 -1.421875 33.015625 -1.421875 
Q 20.359375 -1.421875 13.671875 8.265625 
Q 6.984375 17.96875 6.984375 36.375 
Q 6.984375 53.65625 15.1875 63.9375 
Q 23.390625 74.21875 37.203125 74.21875 
Q 40.921875 74.21875 44.703125 73.484375 
Q 48.484375 72.75 52.59375 71.296875 
z
" id="DejaVuSans-54"/>
       </defs>
       <use xlink:href="#DejaVuSans-54"/>
      </g>
     </g>
    </g>
    <g id="ytick_5">
     <g id="line2d_49">
      <g>
       <use style="stroke:#000000;stroke-width:0.8;" x="540" xlink:href="#m3683bbf58f" y="2017.157789"/>
      </g>
     </g>
     <g id="text_6">
      <!-- 8 -->
      <g transform="translate(513.9125 2028.555445)scale(0.3 -0.3)">
       <defs>
        <path d="M 31.78125 34.625 
Q 24.75 34.625 20.71875 30.859375 
Q 16.703125 27.09375 16.703125 20.515625 
Q 16.703125 13.921875 20.71875 10.15625 
Q 24.75 6.390625 31.78125 6.390625 
Q 38.8125 6.390625 42.859375 10.171875 
Q 46.921875 13.96875 46.921875 20.515625 
Q 46.921875 27.09375 42.890625 30.859375 
Q 38.875 34.625 31.78125 34.625 
z
M 21.921875 38.8125 
Q 15.578125 40.375 12.03125 44.71875 
Q 8.5 49.078125 8.5 55.328125 
Q 8.5 64.0625 14.71875 69.140625 
Q 20.953125 74.21875 31.78125 74.21875 
Q 42.671875 74.21875 48.875 69.140625 
Q 55.078125 64.0625 55.078125 55.328125 
Q 55.078125 49.078125 51.53125 44.71875 
Q 48 40.375 41.703125 38.8125 
Q 48.828125 37.15625 52.796875 32.3125 
Q 56.78125 27.484375 56.78125 20.515625 
Q 56.78125 9.90625 50.3125 4.234375 
Q 43.84375 -1.421875 31.78125 -1.421875 
Q 19.734375 -1.421875 13.25 4.234375 
Q 6.78125 9.90625 6.78125 20.515625 
Q 6.78125 27.484375 10.78125 32.3125 
Q 14.796875 37.15625 21.921875 38.8125 
z
M 18.3125 54.390625 
Q 18.3125 48.734375 21.84375 45.5625 
Q 25.390625 42.390625 31.78125 42.390625 
Q 38.140625 42.390625 41.71875 45.5625 
Q 45.3125 48.734375 45.3125 54.390625 
Q 45.3125 60.0625 41.71875 63.234375 
Q 38.140625 66.40625 31.78125 66.40625 
Q 25.390625 66.40625 21.84375 63.234375 
Q 18.3125 60.0625 18.3125 54.390625 
z
" id="DejaVuSans-56"/>
       </defs>
       <use xlink:href="#DejaVuSans-56"/>
      </g>
     </g>
    </g>
    <g id="ytick_6">
     <g id="line2d_50">
      <g>
       <use style="stroke:#000000;stroke-width:0.8;" x="540" xlink:href="#m3683bbf58f" y="1905.720603"/>
      </g>
     </g>
     <g id="text_7">
      <!-- 10 -->
      <g transform="translate(494.825 1917.118259)scale(0.3 -0.3)">
       <defs>
        <path d="M 12.40625 8.296875 
L 28.515625 8.296875 
L 28.515625 63.921875 
L 10.984375 60.40625 
L 10.984375 69.390625 
L 28.421875 72.90625 
L 38.28125 72.90625 
L 38.28125 8.296875 
L 54.390625 8.296875 
L 54.390625 0 
L 12.40625 0 
z
" id="DejaVuSans-49"/>
       </defs>
       <use xlink:href="#DejaVuSans-49"/>
       <use x="63.623047" xlink:href="#DejaVuSans-48"/>
      </g>
     </g>
    </g>
    <g id="ytick_7">
     <g id="line2d_51">
      <g>
       <use style="stroke:#000000;stroke-width:0.8;" x="540" xlink:href="#m3683bbf58f" y="1794.283417"/>
      </g>
     </g>
     <g id="text_8">
      <!-- 12 -->
      <g transform="translate(494.825 1805.681073)scale(0.3 -0.3)">
       <use xlink:href="#DejaVuSans-49"/>
       <use x="63.623047" xlink:href="#DejaVuSans-50"/>
      </g>
     </g>
    </g>
    <g id="ytick_8">
     <g id="line2d_52">
      <g>
       <use style="stroke:#000000;stroke-width:0.8;" x="540" xlink:href="#m3683bbf58f" y="1682.846231"/>
      </g>
     </g>
     <g id="text_9">
      <!-- 14 -->
      <g transform="translate(494.825 1694.243887)scale(0.3 -0.3)">
       <use xlink:href="#DejaVuSans-49"/>
       <use x="63.623047" xlink:href="#DejaVuSans-52"/>
      </g>
     </g>
    </g>
    <g id="ytick_9">
     <g id="line2d_53">
      <g>
       <use style="stroke:#000000;stroke-width:0.8;" x="540" xlink:href="#m3683bbf58f" y="1571.409045"/>
      </g>
     </g>
     <g id="text_10">
      <!-- 16 -->
      <g transform="translate(494.825 1582.806701)scale(0.3 -0.3)">
       <use xlink:href="#DejaVuSans-49"/>
       <use x="63.623047" xlink:href="#DejaVuSans-54"/>
      </g>
     </g>
    </g>
    <g id="ytick_10">
     <g id="line2d_54">
      <g>
       <use style="stroke:#000000;stroke-width:0.8;" x="540" xlink:href="#m3683bbf58f" y="1459.971859"/>
      </g>
     </g>
     <g id="text_11">
      <!-- 18 -->
      <g transform="translate(494.825 1471.369516)scale(0.3 -0.3)">
       <use xlink:href="#DejaVuSans-49"/>
       <use x="63.623047" xlink:href="#DejaVuSans-56"/>
      </g>
     </g>
    </g>
    <g id="ytick_11">
     <g id="line2d_55">
      <g>
       <use style="stroke:#000000;stroke-width:0.8;" x="540" xlink:href="#m3683bbf58f" y="1348.534673"/>
      </g>
     </g>
     <g id="text_12">
      <!-- 20 -->
      <g transform="translate(494.825 1359.93233)scale(0.3 -0.3)">
       <use xlink:href="#DejaVuSans-50"/>
       <use x="63.623047" xlink:href="#DejaVuSans-48"/>
      </g>
     </g>
    </g>
    <g id="ytick_12">
     <g id="line2d_56">
      <g>
       <use style="stroke:#000000;stroke-width:0.8;" x="540" xlink:href="#m3683bbf58f" y="1237.097487"/>
      </g>
     </g>
     <g id="text_13">
      <!-- 22 -->
      <g transform="translate(494.825 1248.495144)scale(0.3 -0.3)">
       <use xlink:href="#DejaVuSans-50"/>
       <use x="63.623047" xlink:href="#DejaVuSans-50"/>
      </g>
     </g>
    </g>
    <g id="ytick_13">
     <g id="line2d_57">
      <g>
       <use style="stroke:#000000;stroke-width:0.8;" x="540" xlink:href="#m3683bbf58f" y="1125.660302"/>
      </g>
     </g>
     <g id="text_14">
      <!-- 24 -->
      <g transform="translate(494.825 1137.057958)scale(0.3 -0.3)">
       <use xlink:href="#DejaVuSans-50"/>
       <use x="63.623047" xlink:href="#DejaVuSans-52"/>
      </g>
     </g>
    </g>
    <g id="ytick_14">
     <g id="line2d_58">
      <g>
       <use style="stroke:#000000;stroke-width:0.8;" x="540" xlink:href="#m3683bbf58f" y="1014.223116"/>
      </g>
     </g>
     <g id="text_15">
      <!-- 26 -->
      <g transform="translate(494.825 1025.620772)scale(0.3 -0.3)">
       <use xlink:href="#DejaVuSans-50"/>
       <use x="63.623047" xlink:href="#DejaVuSans-54"/>
      </g>
     </g>
    </g>
    <g id="ytick_15">
     <g id="line2d_59">
      <g>
       <use style="stroke:#000000;stroke-width:0.8;" x="540" xlink:href="#m3683bbf58f" y="902.78593"/>
      </g>
     </g>
     <g id="text_16">
      <!-- 28 -->
      <g transform="translate(494.825 914.183586)scale(0.3 -0.3)">
       <use xlink:href="#DejaVuSans-50"/>
       <use x="63.623047" xlink:href="#DejaVuSans-56"/>
      </g>
     </g>
    </g>
    <g id="ytick_16">
     <g id="line2d_60">
      <g>
       <use style="stroke:#000000;stroke-width:0.8;" x="540" xlink:href="#m3683bbf58f" y="791.348744"/>
      </g>
     </g>
     <g id="text_17">
      <!-- 30 -->
      <g transform="translate(494.825 802.7464)scale(0.3 -0.3)">
       <defs>
        <path d="M 40.578125 39.3125 
Q 47.65625 37.796875 51.625 33 
Q 55.609375 28.21875 55.609375 21.1875 
Q 55.609375 10.40625 48.1875 4.484375 
Q 40.765625 -1.421875 27.09375 -1.421875 
Q 22.515625 -1.421875 17.65625 -0.515625 
Q 12.796875 0.390625 7.625 2.203125 
L 7.625 11.71875 
Q 11.71875 9.328125 16.59375 8.109375 
Q 21.484375 6.890625 26.8125 6.890625 
Q 36.078125 6.890625 40.9375 10.546875 
Q 45.796875 14.203125 45.796875 21.1875 
Q 45.796875 27.640625 41.28125 31.265625 
Q 36.765625 34.90625 28.71875 34.90625 
L 20.21875 34.90625 
L 20.21875 43.015625 
L 29.109375 43.015625 
Q 36.375 43.015625 40.234375 45.921875 
Q 44.09375 48.828125 44.09375 54.296875 
Q 44.09375 59.90625 40.109375 62.90625 
Q 36.140625 65.921875 28.71875 65.921875 
Q 24.65625 65.921875 20.015625 65.03125 
Q 15.375 64.15625 9.8125 62.3125 
L 9.8125 71.09375 
Q 15.4375 72.65625 20.34375 73.4375 
Q 25.25 74.21875 29.59375 74.21875 
Q 40.828125 74.21875 47.359375 69.109375 
Q 53.90625 64.015625 53.90625 55.328125 
Q 53.90625 49.265625 50.4375 45.09375 
Q 46.96875 40.921875 40.578125 39.3125 
z
" id="DejaVuSans-51"/>
       </defs>
       <use xlink:href="#DejaVuSans-51"/>
       <use x="63.623047" xlink:href="#DejaVuSans-48"/>
      </g>
     </g>
    </g>
    <g id="ytick_17">
     <g id="line2d_61">
      <g>
       <use style="stroke:#000000;stroke-width:0.8;" x="540" xlink:href="#m3683bbf58f" y="679.911558"/>
      </g>
     </g>
     <g id="text_18">
      <!-- 32 -->
      <g transform="translate(494.825 691.309214)scale(0.3 -0.3)">
       <use xlink:href="#DejaVuSans-51"/>
       <use x="63.623047" xlink:href="#DejaVuSans-50"/>
      </g>
     </g>
    </g>
    <g id="ytick_18">
     <g id="line2d_62">
      <g>
       <use style="stroke:#000000;stroke-width:0.8;" x="540" xlink:href="#m3683bbf58f" y="568.474372"/>
      </g>
     </g>
     <g id="text_19">
      <!-- 34 -->
      <g transform="translate(494.825 579.872028)scale(0.3 -0.3)">
       <use xlink:href="#DejaVuSans-51"/>
       <use x="63.623047" xlink:href="#DejaVuSans-52"/>
      </g>
     </g>
    </g>
    <g id="ytick_19">
     <g id="line2d_63">
      <g>
       <use style="stroke:#000000;stroke-width:0.8;" x="540" xlink:href="#m3683bbf58f" y="457.037186"/>
      </g>
     </g>
     <g id="text_20">
      <!-- 36 -->
      <g transform="translate(494.825 468.434842)scale(0.3 -0.3)">
       <use xlink:href="#DejaVuSans-51"/>
       <use x="63.623047" xlink:href="#DejaVuSans-54"/>
      </g>
     </g>
    </g>
    <g id="ytick_20">
     <g id="line2d_64">
      <g>
       <use style="stroke:#000000;stroke-width:0.8;" x="540" xlink:href="#m3683bbf58f" y="345.6"/>
      </g>
     </g>
     <g id="text_21">
      <!-- 38 -->
      <g transform="translate(494.825 356.997656)scale(0.3 -0.3)">
       <use xlink:href="#DejaVuSans-51"/>
       <use x="63.623047" xlink:href="#DejaVuSans-56"/>
      </g>
     </g>
    </g>
    <g id="text_22">
     <!-- 出演回数 -->
     <g transform="translate(483.090625 1574.4)rotate(-90)scale(0.6 -0.6)">
      <defs>
       <path d="M 22.265625 70.703125 
Q 25.390625 70.3125 22.65625 68.359375 
L 22.65625 47.265625 
L 45.703125 47.265625 
L 45.703125 78.515625 
L 53.125 78.515625 
Q 56.25 78.125 53.515625 76.171875 
L 53.515625 47.265625 
L 76.171875 47.265625 
L 76.171875 70.3125 
L 83.59375 70.3125 
Q 86.71875 69.921875 83.984375 67.96875 
L 83.984375 36.328125 
L 76.171875 36.328125 
L 76.171875 39.84375 
L 53.515625 39.84375 
L 53.515625 6.25 
L 79.296875 6.25 
L 79.296875 30.078125 
L 86.71875 30.078125 
Q 89.84375 29.6875 87.109375 27.734375 
L 87.109375 -5.46875 
L 79.296875 -5.46875 
L 79.296875 -1.171875 
L 18.75 -1.171875 
L 18.75 -6.640625 
L 10.9375 -6.640625 
L 10.9375 30.46875 
L 18.359375 30.46875 
Q 21.484375 30.078125 18.75 28.125 
L 18.75 6.25 
L 45.703125 6.25 
L 45.703125 39.84375 
L 22.65625 39.84375 
L 22.65625 35.546875 
L 14.84375 35.546875 
L 14.84375 70.703125 
z
" id="MS-Gothic-20986"/>
       <path d="M 27.734375 21.875 
Q 23.046875 8.203125 13.671875 -6.25 
Q 13.671875 -8.984375 12.109375 -8.59375 
L 4.6875 -1.5625 
Q 16.015625 12.890625 20.3125 26.953125 
z
M 35.15625 43.359375 
L 57.8125 43.359375 
L 57.8125 50.390625 
L 41.40625 50.390625 
L 41.40625 56.640625 
L 82.421875 56.640625 
L 82.421875 50.390625 
L 65.625 50.390625 
L 65.625 43.359375 
L 88.28125 43.359375 
L 88.28125 9.765625 
L 35.15625 9.765625 
z
M 71.484375 8.59375 
Q 80.859375 3.125 94.921875 0 
L 91.015625 -8.203125 
Q 79.296875 -5.859375 66.796875 3.125 
z
M 26.953125 -1.171875 
Q 39.0625 1.171875 49.609375 8.203125 
L 54.6875 3.125 
Q 57.03125 0 53.125 1.5625 
Q 41.40625 -6.25 31.25 -8.59375 
z
M 57.8125 16.015625 
L 57.8125 23.4375 
L 42.96875 23.4375 
L 42.96875 16.015625 
z
M 80.46875 16.015625 
L 80.46875 23.4375 
L 65.625 23.4375 
L 65.625 16.015625 
z
M 80.46875 37.109375 
L 65.625 37.109375 
L 65.625 29.6875 
L 80.46875 29.6875 
z
M 57.8125 29.6875 
L 57.8125 37.109375 
L 42.96875 37.109375 
L 42.96875 29.6875 
z
M 85.546875 51.5625 
L 85.546875 63.671875 
L 37.890625 63.671875 
L 37.890625 51.5625 
L 30.078125 51.5625 
L 30.078125 71.09375 
L 56.25 71.09375 
L 56.25 80.859375 
L 65.625 80.859375 
Q 68.359375 79.6875 65.234375 78.125 
L 65.234375 71.09375 
L 93.359375 71.09375 
L 93.359375 51.5625 
z
M 23.046875 59.765625 
Q 16.796875 64.84375 10.546875 69.53125 
L 15.625 76.5625 
Q 23.046875 72.65625 28.125 67.578125 
z
M 19.53125 36.71875 
Q 12.890625 42.1875 7.03125 46.484375 
L 12.109375 53.90625 
Q 17.96875 50.78125 25 44.53125 
z
" id="MS-Gothic-28436"/>
       <path d="M 39.0625 26.953125 
L 60.9375 26.953125 
L 60.9375 47.65625 
L 39.0625 47.65625 
z
M 60.9375 15.625 
L 60.9375 19.53125 
L 39.0625 19.53125 
L 39.0625 15.234375 
L 31.25 15.234375 
L 31.25 55.078125 
L 68.75 55.078125 
L 68.75 15.625 
z
M 18.359375 4.6875 
L 81.25 4.6875 
L 81.25 68.359375 
L 18.359375 68.359375 
z
M 81.25 -6.25 
L 81.25 -2.734375 
L 18.359375 -2.734375 
L 18.359375 -8.203125 
L 10.546875 -8.203125 
L 10.546875 75.78125 
L 89.0625 75.78125 
L 89.0625 -6.25 
z
" id="MS-Gothic-22238"/>
       <path d="M 72.65625 21.484375 
Q 78.125 32.03125 79.296875 53.515625 
L 66.015625 53.515625 
Q 67.1875 32.03125 72.65625 21.484375 
z
M 87.109375 53.515625 
Q 86.328125 29.296875 77.734375 14.453125 
Q 83.984375 6.640625 95.3125 0.78125 
L 90.234375 -7.8125 
Q 77.734375 0.390625 72.65625 7.8125 
Q 63.671875 -2.34375 44.921875 -9.765625 
L 41.015625 -1.953125 
Q 61.328125 6.25 67.96875 14.84375 
Q 61.328125 27.734375 60.546875 40.625 
Q 58.203125 34.765625 55.859375 31.640625 
L 49.21875 36.71875 
Q 60.9375 53.90625 63.28125 79.296875 
L 71.484375 77.34375 
Q 73.828125 75.78125 70.3125 75 
Q 69.140625 67.96875 67.1875 60.9375 
L 93.75 60.9375 
L 93.75 53.515625 
L 87.109375 53.515625 
z
M 50.78125 72.265625 
Q 48.4375 66.40625 45.3125 62.5 
L 39.0625 66.015625 
Q 42.1875 71.09375 44.921875 77.734375 
L 51.953125 74.21875 
Q 53.515625 72.65625 50.78125 72.265625 
z
M 25.78125 17.1875 
Q 31.25 15.625 35.546875 13.671875 
Q 38.671875 17.1875 40.625 24.21875 
L 29.296875 24.21875 
Q 27.734375 20.703125 25.78125 17.1875 
z
M 20.3125 7.421875 
L 14.0625 10.9375 
Q 17.96875 16.796875 21.875 24.21875 
L 7.03125 24.21875 
L 7.03125 30.46875 
L 24.21875 30.46875 
Q 26.5625 35.546875 27.734375 39.0625 
L 35.15625 37.109375 
Q 36.71875 35.546875 33.984375 35.15625 
L 31.640625 30.46875 
L 53.90625 30.46875 
L 53.90625 24.21875 
L 48.046875 24.21875 
Q 46.09375 16.40625 42.1875 10.9375 
Q 45.703125 9.375 49.609375 7.03125 
L 46.09375 0.78125 
Q 41.796875 3.515625 38.28125 5.078125 
Q 28.125 -5.078125 10.9375 -7.421875 
L 8.203125 -0.390625 
Q 23.4375 1.171875 31.640625 8.203125 
Q 27.34375 10.15625 23.046875 11.71875 
z
M 28.125 80.859375 
L 34.375 80.859375 
Q 37.5 80.46875 34.765625 78.515625 
L 34.765625 61.71875 
L 54.6875 61.71875 
L 54.6875 55.46875 
L 38.28125 55.46875 
Q 42.578125 50.390625 51.5625 45.703125 
L 47.265625 39.0625 
Q 40.625 42.96875 34.765625 50 
L 34.765625 40.625 
L 28.125 40.625 
L 28.125 48.046875 
Q 21.875 40.234375 10.9375 33.984375 
L 5.859375 40.234375 
Q 17.96875 46.484375 25.78125 55.46875 
L 7.8125 55.46875 
L 7.8125 61.71875 
L 28.125 61.71875 
z
M 17.1875 62.890625 
Q 14.453125 68.75 10.15625 73.046875 
L 16.40625 76.953125 
Q 21.09375 72.265625 23.4375 67.1875 
L 17.1875 62.890625 
z
" id="MS-Gothic-25968"/>
      </defs>
      <use xlink:href="#MS-Gothic-20986"/>
      <use x="100" xlink:href="#MS-Gothic-28436"/>
      <use x="200" xlink:href="#MS-Gothic-22238"/>
      <use x="300" xlink:href="#MS-Gothic-25968"/>
     </g>
    </g>
   </g>
   <g id="line2d_65">
    <path clip-path="url(#p5c91420bb3)" d="M 692.181818 1459.971859 
L 762.964059 1682.846231 
L 833.7463 2017.157789 
L 904.528541 2017.157789 
L 975.310782 1905.720603 
L 1046.093023 1961.439196 
L 1116.875264 2017.157789 
L 1187.657505 1515.690452 
L 1258.439746 1738.564824 
L 1329.221987 1682.846231 
L 1400.004228 1961.439196 
L 1470.786469 1794.283417 
L 1541.56871 1794.283417 
L 1612.350951 2128.594975 
L 1683.133192 2072.876382 
L 1753.915433 1905.720603 
L 1824.697674 1850.00201 
L 1895.479915 1850.00201 
L 1966.262156 1738.564824 
L 2037.044397 2017.157789 
L 2107.826638 2184.313568 
L 2178.608879 1682.846231 
L 2249.391121 1961.439196 
L 2320.173362 1627.127638 
L 2390.955603 1738.564824 
L 2461.737844 1404.253266 
L 2532.520085 457.037186 
L 2603.302326 1459.971859 
L 2674.084567 1961.439196 
L 2744.866808 1850.00201 
L 2815.649049 1850.00201 
L 2886.43129 2017.157789 
L 2957.213531 2072.876382 
L 3027.995772 2240.032161 
L 3098.778013 1905.720603 
L 3169.560254 2295.750754 
L 3240.342495 2351.469347 
L 3311.124736 2351.469347 
L 3381.906977 2184.313568 
L 3452.689218 2128.594975 
L 3523.471459 2072.876382 
L 3594.2537 1794.283417 
L 3665.035941 2128.594975 
L 3735.818182 2240.032161 
" style="fill:none;stroke:#1f77b4;stroke-linecap:square;stroke-width:1.5;"/>
    <defs>
     <path d="M 0 3 
C 0.795609 3 1.55874 2.683901 2.12132 2.12132 
C 2.683901 1.55874 3 0.795609 3 0 
C 3 -0.795609 2.683901 -1.55874 2.12132 -2.12132 
C 1.55874 -2.683901 0.795609 -3 0 -3 
C -0.795609 -3 -1.55874 -2.683901 -2.12132 -2.12132 
C -2.683901 -1.55874 -3 -0.795609 -3 0 
C -3 0.795609 -2.683901 1.55874 -2.12132 2.12132 
C -1.55874 2.683901 -0.795609 3 0 3 
z
" id="m077a7f9856" style="stroke:#1f77b4;"/>
    </defs>
    <g clip-path="url(#p5c91420bb3)">
     <use style="fill:#1f77b4;stroke:#1f77b4;" x="692.181818" xlink:href="#m077a7f9856" y="1459.971859"/>
     <use style="fill:#1f77b4;stroke:#1f77b4;" x="762.964059" xlink:href="#m077a7f9856" y="1682.846231"/>
     <use style="fill:#1f77b4;stroke:#1f77b4;" x="833.7463" xlink:href="#m077a7f9856" y="2017.157789"/>
     <use style="fill:#1f77b4;stroke:#1f77b4;" x="904.528541" xlink:href="#m077a7f9856" y="2017.157789"/>
     <use style="fill:#1f77b4;stroke:#1f77b4;" x="975.310782" xlink:href="#m077a7f9856" y="1905.720603"/>
     <use style="fill:#1f77b4;stroke:#1f77b4;" x="1046.093023" xlink:href="#m077a7f9856" y="1961.439196"/>
     <use style="fill:#1f77b4;stroke:#1f77b4;" x="1116.875264" xlink:href="#m077a7f9856" y="2017.157789"/>
     <use style="fill:#1f77b4;stroke:#1f77b4;" x="1187.657505" xlink:href="#m077a7f9856" y="1515.690452"/>
     <use style="fill:#1f77b4;stroke:#1f77b4;" x="1258.439746" xlink:href="#m077a7f9856" y="1738.564824"/>
     <use style="fill:#1f77b4;stroke:#1f77b4;" x="1329.221987" xlink:href="#m077a7f9856" y="1682.846231"/>
     <use style="fill:#1f77b4;stroke:#1f77b4;" x="1400.004228" xlink:href="#m077a7f9856" y="1961.439196"/>
     <use style="fill:#1f77b4;stroke:#1f77b4;" x="1470.786469" xlink:href="#m077a7f9856" y="1794.283417"/>
     <use style="fill:#1f77b4;stroke:#1f77b4;" x="1541.56871" xlink:href="#m077a7f9856" y="1794.283417"/>
     <use style="fill:#1f77b4;stroke:#1f77b4;" x="1612.350951" xlink:href="#m077a7f9856" y="2128.594975"/>
     <use style="fill:#1f77b4;stroke:#1f77b4;" x="1683.133192" xlink:href="#m077a7f9856" y="2072.876382"/>
     <use style="fill:#1f77b4;stroke:#1f77b4;" x="1753.915433" xlink:href="#m077a7f9856" y="1905.720603"/>
     <use style="fill:#1f77b4;stroke:#1f77b4;" x="1824.697674" xlink:href="#m077a7f9856" y="1850.00201"/>
     <use style="fill:#1f77b4;stroke:#1f77b4;" x="1895.479915" xlink:href="#m077a7f9856" y="1850.00201"/>
     <use style="fill:#1f77b4;stroke:#1f77b4;" x="1966.262156" xlink:href="#m077a7f9856" y="1738.564824"/>
     <use style="fill:#1f77b4;stroke:#1f77b4;" x="2037.044397" xlink:href="#m077a7f9856" y="2017.157789"/>
     <use style="fill:#1f77b4;stroke:#1f77b4;" x="2107.826638" xlink:href="#m077a7f9856" y="2184.313568"/>
     <use style="fill:#1f77b4;stroke:#1f77b4;" x="2178.608879" xlink:href="#m077a7f9856" y="1682.846231"/>
     <use style="fill:#1f77b4;stroke:#1f77b4;" x="2249.391121" xlink:href="#m077a7f9856" y="1961.439196"/>
     <use style="fill:#1f77b4;stroke:#1f77b4;" x="2320.173362" xlink:href="#m077a7f9856" y="1627.127638"/>
     <use style="fill:#1f77b4;stroke:#1f77b4;" x="2390.955603" xlink:href="#m077a7f9856" y="1738.564824"/>
     <use style="fill:#1f77b4;stroke:#1f77b4;" x="2461.737844" xlink:href="#m077a7f9856" y="1404.253266"/>
     <use style="fill:#1f77b4;stroke:#1f77b4;" x="2532.520085" xlink:href="#m077a7f9856" y="457.037186"/>
     <use style="fill:#1f77b4;stroke:#1f77b4;" x="2603.302326" xlink:href="#m077a7f9856" y="1459.971859"/>
     <use style="fill:#1f77b4;stroke:#1f77b4;" x="2674.084567" xlink:href="#m077a7f9856" y="1961.439196"/>
     <use style="fill:#1f77b4;stroke:#1f77b4;" x="2744.866808" xlink:href="#m077a7f9856" y="1850.00201"/>
     <use style="fill:#1f77b4;stroke:#1f77b4;" x="2815.649049" xlink:href="#m077a7f9856" y="1850.00201"/>
     <use style="fill:#1f77b4;stroke:#1f77b4;" x="2886.43129" xlink:href="#m077a7f9856" y="2017.157789"/>
     <use style="fill:#1f77b4;stroke:#1f77b4;" x="2957.213531" xlink:href="#m077a7f9856" y="2072.876382"/>
     <use style="fill:#1f77b4;stroke:#1f77b4;" x="3027.995772" xlink:href="#m077a7f9856" y="2240.032161"/>
     <use style="fill:#1f77b4;stroke:#1f77b4;" x="3098.778013" xlink:href="#m077a7f9856" y="1905.720603"/>
     <use style="fill:#1f77b4;stroke:#1f77b4;" x="3169.560254" xlink:href="#m077a7f9856" y="2295.750754"/>
     <use style="fill:#1f77b4;stroke:#1f77b4;" x="3240.342495" xlink:href="#m077a7f9856" y="2351.469347"/>
     <use style="fill:#1f77b4;stroke:#1f77b4;" x="3311.124736" xlink:href="#m077a7f9856" y="2351.469347"/>
     <use style="fill:#1f77b4;stroke:#1f77b4;" x="3381.906977" xlink:href="#m077a7f9856" y="2184.313568"/>
     <use style="fill:#1f77b4;stroke:#1f77b4;" x="3452.689218" xlink:href="#m077a7f9856" y="2128.594975"/>
     <use style="fill:#1f77b4;stroke:#1f77b4;" x="3523.471459" xlink:href="#m077a7f9856" y="2072.876382"/>
     <use style="fill:#1f77b4;stroke:#1f77b4;" x="3594.2537" xlink:href="#m077a7f9856" y="1794.283417"/>
     <use style="fill:#1f77b4;stroke:#1f77b4;" x="3665.035941" xlink:href="#m077a7f9856" y="2128.594975"/>
     <use style="fill:#1f77b4;stroke:#1f77b4;" x="3735.818182" xlink:href="#m077a7f9856" y="2240.032161"/>
    </g>
   </g>
   <g id="line2d_66">
    <path clip-path="url(#p5c91420bb3)" d="M 692.181818 2128.594975 
L 762.964059 2072.876382 
L 833.7463 2240.032161 
L 904.528541 2184.313568 
L 975.310782 2184.313568 
L 1046.093023 2184.313568 
L 1116.875264 2017.157789 
L 1187.657505 1850.00201 
L 1258.439746 2128.594975 
L 1329.221987 2128.594975 
L 1400.004228 2072.876382 
L 1470.786469 1850.00201 
L 1541.56871 1794.283417 
L 1612.350951 2240.032161 
L 1683.133192 2184.313568 
L 1753.915433 2351.469347 
L 1824.697674 1961.439196 
L 1895.479915 1961.439196 
L 1966.262156 2128.594975 
L 2037.044397 2128.594975 
L 2107.826638 1905.720603 
L 2178.608879 1794.283417 
L 2249.391121 1905.720603 
L 2320.173362 1459.971859 
L 2390.955603 1738.564824 
L 2461.737844 1961.439196 
L 2532.520085 1069.941709 
L 2603.302326 1850.00201 
L 2674.084567 2128.594975 
L 2744.866808 1627.127638 
L 2815.649049 1682.846231 
L 2886.43129 1459.971859 
L 2957.213531 1682.846231 
L 3027.995772 1404.253266 
L 3098.778013 1738.564824 
L 3169.560254 1905.720603 
L 3240.342495 1682.846231 
L 3311.124736 2072.876382 
L 3381.906977 2017.157789 
L 3452.689218 1961.439196 
L 3523.471459 2240.032161 
L 3594.2537 1850.00201 
L 3665.035941 2128.594975 
L 3735.818182 2295.750754 
" style="fill:none;stroke:#ff7f0e;stroke-linecap:square;stroke-width:1.5;"/>
    <defs>
     <path d="M 0 3 
C 0.795609 3 1.55874 2.683901 2.12132 2.12132 
C 2.683901 1.55874 3 0.795609 3 0 
C 3 -0.795609 2.683901 -1.55874 2.12132 -2.12132 
C 1.55874 -2.683901 0.795609 -3 0 -3 
C -0.795609 -3 -1.55874 -2.683901 -2.12132 -2.12132 
C -2.683901 -1.55874 -3 -0.795609 -3 0 
C -3 0.795609 -2.683901 1.55874 -2.12132 2.12132 
C -1.55874 2.683901 -0.795609 3 0 3 
z
" id="mf2fd7ab386" style="stroke:#ff7f0e;"/>
    </defs>
    <g clip-path="url(#p5c91420bb3)">
     <use style="fill:#ff7f0e;stroke:#ff7f0e;" x="692.181818" xlink:href="#mf2fd7ab386" y="2128.594975"/>
     <use style="fill:#ff7f0e;stroke:#ff7f0e;" x="762.964059" xlink:href="#mf2fd7ab386" y="2072.876382"/>
     <use style="fill:#ff7f0e;stroke:#ff7f0e;" x="833.7463" xlink:href="#mf2fd7ab386" y="2240.032161"/>
     <use style="fill:#ff7f0e;stroke:#ff7f0e;" x="904.528541" xlink:href="#mf2fd7ab386" y="2184.313568"/>
     <use style="fill:#ff7f0e;stroke:#ff7f0e;" x="975.310782" xlink:href="#mf2fd7ab386" y="2184.313568"/>
     <use style="fill:#ff7f0e;stroke:#ff7f0e;" x="1046.093023" xlink:href="#mf2fd7ab386" y="2184.313568"/>
     <use style="fill:#ff7f0e;stroke:#ff7f0e;" x="1116.875264" xlink:href="#mf2fd7ab386" y="2017.157789"/>
     <use style="fill:#ff7f0e;stroke:#ff7f0e;" x="1187.657505" xlink:href="#mf2fd7ab386" y="1850.00201"/>
     <use style="fill:#ff7f0e;stroke:#ff7f0e;" x="1258.439746" xlink:href="#mf2fd7ab386" y="2128.594975"/>
     <use style="fill:#ff7f0e;stroke:#ff7f0e;" x="1329.221987" xlink:href="#mf2fd7ab386" y="2128.594975"/>
     <use style="fill:#ff7f0e;stroke:#ff7f0e;" x="1400.004228" xlink:href="#mf2fd7ab386" y="2072.876382"/>
     <use style="fill:#ff7f0e;stroke:#ff7f0e;" x="1470.786469" xlink:href="#mf2fd7ab386" y="1850.00201"/>
     <use style="fill:#ff7f0e;stroke:#ff7f0e;" x="1541.56871" xlink:href="#mf2fd7ab386" y="1794.283417"/>
     <use style="fill:#ff7f0e;stroke:#ff7f0e;" x="1612.350951" xlink:href="#mf2fd7ab386" y="2240.032161"/>
     <use style="fill:#ff7f0e;stroke:#ff7f0e;" x="1683.133192" xlink:href="#mf2fd7ab386" y="2184.313568"/>
     <use style="fill:#ff7f0e;stroke:#ff7f0e;" x="1753.915433" xlink:href="#mf2fd7ab386" y="2351.469347"/>
     <use style="fill:#ff7f0e;stroke:#ff7f0e;" x="1824.697674" xlink:href="#mf2fd7ab386" y="1961.439196"/>
     <use style="fill:#ff7f0e;stroke:#ff7f0e;" x="1895.479915" xlink:href="#mf2fd7ab386" y="1961.439196"/>
     <use style="fill:#ff7f0e;stroke:#ff7f0e;" x="1966.262156" xlink:href="#mf2fd7ab386" y="2128.594975"/>
     <use style="fill:#ff7f0e;stroke:#ff7f0e;" x="2037.044397" xlink:href="#mf2fd7ab386" y="2128.594975"/>
     <use style="fill:#ff7f0e;stroke:#ff7f0e;" x="2107.826638" xlink:href="#mf2fd7ab386" y="1905.720603"/>
     <use style="fill:#ff7f0e;stroke:#ff7f0e;" x="2178.608879" xlink:href="#mf2fd7ab386" y="1794.283417"/>
     <use style="fill:#ff7f0e;stroke:#ff7f0e;" x="2249.391121" xlink:href="#mf2fd7ab386" y="1905.720603"/>
     <use style="fill:#ff7f0e;stroke:#ff7f0e;" x="2320.173362" xlink:href="#mf2fd7ab386" y="1459.971859"/>
     <use style="fill:#ff7f0e;stroke:#ff7f0e;" x="2390.955603" xlink:href="#mf2fd7ab386" y="1738.564824"/>
     <use style="fill:#ff7f0e;stroke:#ff7f0e;" x="2461.737844" xlink:href="#mf2fd7ab386" y="1961.439196"/>
     <use style="fill:#ff7f0e;stroke:#ff7f0e;" x="2532.520085" xlink:href="#mf2fd7ab386" y="1069.941709"/>
     <use style="fill:#ff7f0e;stroke:#ff7f0e;" x="2603.302326" xlink:href="#mf2fd7ab386" y="1850.00201"/>
     <use style="fill:#ff7f0e;stroke:#ff7f0e;" x="2674.084567" xlink:href="#mf2fd7ab386" y="2128.594975"/>
     <use style="fill:#ff7f0e;stroke:#ff7f0e;" x="2744.866808" xlink:href="#mf2fd7ab386" y="1627.127638"/>
     <use style="fill:#ff7f0e;stroke:#ff7f0e;" x="2815.649049" xlink:href="#mf2fd7ab386" y="1682.846231"/>
     <use style="fill:#ff7f0e;stroke:#ff7f0e;" x="2886.43129" xlink:href="#mf2fd7ab386" y="1459.971859"/>
     <use style="fill:#ff7f0e;stroke:#ff7f0e;" x="2957.213531" xlink:href="#mf2fd7ab386" y="1682.846231"/>
     <use style="fill:#ff7f0e;stroke:#ff7f0e;" x="3027.995772" xlink:href="#mf2fd7ab386" y="1404.253266"/>
     <use style="fill:#ff7f0e;stroke:#ff7f0e;" x="3098.778013" xlink:href="#mf2fd7ab386" y="1738.564824"/>
     <use style="fill:#ff7f0e;stroke:#ff7f0e;" x="3169.560254" xlink:href="#mf2fd7ab386" y="1905.720603"/>
     <use style="fill:#ff7f0e;stroke:#ff7f0e;" x="3240.342495" xlink:href="#mf2fd7ab386" y="1682.846231"/>
     <use style="fill:#ff7f0e;stroke:#ff7f0e;" x="3311.124736" xlink:href="#mf2fd7ab386" y="2072.876382"/>
     <use style="fill:#ff7f0e;stroke:#ff7f0e;" x="3381.906977" xlink:href="#mf2fd7ab386" y="2017.157789"/>
     <use style="fill:#ff7f0e;stroke:#ff7f0e;" x="3452.689218" xlink:href="#mf2fd7ab386" y="1961.439196"/>
     <use style="fill:#ff7f0e;stroke:#ff7f0e;" x="3523.471459" xlink:href="#mf2fd7ab386" y="2240.032161"/>
     <use style="fill:#ff7f0e;stroke:#ff7f0e;" x="3594.2537" xlink:href="#mf2fd7ab386" y="1850.00201"/>
     <use style="fill:#ff7f0e;stroke:#ff7f0e;" x="3665.035941" xlink:href="#mf2fd7ab386" y="2128.594975"/>
     <use style="fill:#ff7f0e;stroke:#ff7f0e;" x="3735.818182" xlink:href="#mf2fd7ab386" y="2295.750754"/>
    </g>
   </g>
   <g id="line2d_67">
    <path clip-path="url(#p5c91420bb3)" d="M 692.181818 2351.469347 
L 762.964059 2351.469347 
L 833.7463 2407.18794 
L 904.528541 2184.313568 
L 975.310782 1794.283417 
L 1046.093023 2351.469347 
L 1116.875264 2407.18794 
L 1187.657505 2407.18794 
L 1258.439746 2295.750754 
L 1329.221987 2351.469347 
L 1400.004228 2407.18794 
L 1470.786469 2128.594975 
L 1541.56871 1961.439196 
L 1612.350951 2351.469347 
L 1683.133192 2407.18794 
L 1753.915433 2240.032161 
L 1824.697674 2128.594975 
L 1895.479915 2351.469347 
L 1966.262156 2295.750754 
L 2037.044397 1738.564824 
L 2107.826638 1682.846231 
L 2178.608879 1905.720603 
L 2249.391121 2240.032161 
L 2320.173362 2295.750754 
L 2390.955603 2407.18794 
L 2461.737844 2240.032161 
L 2532.520085 1404.253266 
L 2603.302326 1961.439196 
L 2674.084567 2462.906533 
L 2744.866808 1961.439196 
L 2815.649049 2128.594975 
L 2886.43129 1682.846231 
L 2957.213531 2072.876382 
L 3027.995772 1738.564824 
L 3098.778013 2017.157789 
L 3169.560254 1850.00201 
L 3240.342495 1794.283417 
L 3311.124736 1404.253266 
L 3381.906977 791.348744 
L 3452.689218 2184.313568 
L 3523.471459 1237.097487 
L 3594.2537 2072.876382 
L 3665.035941 1348.534673 
L 3735.818182 1571.409045 
" style="fill:none;stroke:#2ca02c;stroke-linecap:square;stroke-width:1.5;"/>
    <defs>
     <path d="M 0 3 
C 0.795609 3 1.55874 2.683901 2.12132 2.12132 
C 2.683901 1.55874 3 0.795609 3 0 
C 3 -0.795609 2.683901 -1.55874 2.12132 -2.12132 
C 1.55874 -2.683901 0.795609 -3 0 -3 
C -0.795609 -3 -1.55874 -2.683901 -2.12132 -2.12132 
C -2.683901 -1.55874 -3 -0.795609 -3 0 
C -3 0.795609 -2.683901 1.55874 -2.12132 2.12132 
C -1.55874 2.683901 -0.795609 3 0 3 
z
" id="m2fb21ae96a" style="stroke:#2ca02c;"/>
    </defs>
    <g clip-path="url(#p5c91420bb3)">
     <use style="fill:#2ca02c;stroke:#2ca02c;" x="692.181818" xlink:href="#m2fb21ae96a" y="2351.469347"/>
     <use style="fill:#2ca02c;stroke:#2ca02c;" x="762.964059" xlink:href="#m2fb21ae96a" y="2351.469347"/>
     <use style="fill:#2ca02c;stroke:#2ca02c;" x="833.7463" xlink:href="#m2fb21ae96a" y="2407.18794"/>
     <use style="fill:#2ca02c;stroke:#2ca02c;" x="904.528541" xlink:href="#m2fb21ae96a" y="2184.313568"/>
     <use style="fill:#2ca02c;stroke:#2ca02c;" x="975.310782" xlink:href="#m2fb21ae96a" y="1794.283417"/>
     <use style="fill:#2ca02c;stroke:#2ca02c;" x="1046.093023" xlink:href="#m2fb21ae96a" y="2351.469347"/>
     <use style="fill:#2ca02c;stroke:#2ca02c;" x="1116.875264" xlink:href="#m2fb21ae96a" y="2407.18794"/>
     <use style="fill:#2ca02c;stroke:#2ca02c;" x="1187.657505" xlink:href="#m2fb21ae96a" y="2407.18794"/>
     <use style="fill:#2ca02c;stroke:#2ca02c;" x="1258.439746" xlink:href="#m2fb21ae96a" y="2295.750754"/>
     <use style="fill:#2ca02c;stroke:#2ca02c;" x="1329.221987" xlink:href="#m2fb21ae96a" y="2351.469347"/>
     <use style="fill:#2ca02c;stroke:#2ca02c;" x="1400.004228" xlink:href="#m2fb21ae96a" y="2407.18794"/>
     <use style="fill:#2ca02c;stroke:#2ca02c;" x="1470.786469" xlink:href="#m2fb21ae96a" y="2128.594975"/>
     <use style="fill:#2ca02c;stroke:#2ca02c;" x="1541.56871" xlink:href="#m2fb21ae96a" y="1961.439196"/>
     <use style="fill:#2ca02c;stroke:#2ca02c;" x="1612.350951" xlink:href="#m2fb21ae96a" y="2351.469347"/>
     <use style="fill:#2ca02c;stroke:#2ca02c;" x="1683.133192" xlink:href="#m2fb21ae96a" y="2407.18794"/>
     <use style="fill:#2ca02c;stroke:#2ca02c;" x="1753.915433" xlink:href="#m2fb21ae96a" y="2240.032161"/>
     <use style="fill:#2ca02c;stroke:#2ca02c;" x="1824.697674" xlink:href="#m2fb21ae96a" y="2128.594975"/>
     <use style="fill:#2ca02c;stroke:#2ca02c;" x="1895.479915" xlink:href="#m2fb21ae96a" y="2351.469347"/>
     <use style="fill:#2ca02c;stroke:#2ca02c;" x="1966.262156" xlink:href="#m2fb21ae96a" y="2295.750754"/>
     <use style="fill:#2ca02c;stroke:#2ca02c;" x="2037.044397" xlink:href="#m2fb21ae96a" y="1738.564824"/>
     <use style="fill:#2ca02c;stroke:#2ca02c;" x="2107.826638" xlink:href="#m2fb21ae96a" y="1682.846231"/>
     <use style="fill:#2ca02c;stroke:#2ca02c;" x="2178.608879" xlink:href="#m2fb21ae96a" y="1905.720603"/>
     <use style="fill:#2ca02c;stroke:#2ca02c;" x="2249.391121" xlink:href="#m2fb21ae96a" y="2240.032161"/>
     <use style="fill:#2ca02c;stroke:#2ca02c;" x="2320.173362" xlink:href="#m2fb21ae96a" y="2295.750754"/>
     <use style="fill:#2ca02c;stroke:#2ca02c;" x="2390.955603" xlink:href="#m2fb21ae96a" y="2407.18794"/>
     <use style="fill:#2ca02c;stroke:#2ca02c;" x="2461.737844" xlink:href="#m2fb21ae96a" y="2240.032161"/>
     <use style="fill:#2ca02c;stroke:#2ca02c;" x="2532.520085" xlink:href="#m2fb21ae96a" y="1404.253266"/>
     <use style="fill:#2ca02c;stroke:#2ca02c;" x="2603.302326" xlink:href="#m2fb21ae96a" y="1961.439196"/>
     <use style="fill:#2ca02c;stroke:#2ca02c;" x="2674.084567" xlink:href="#m2fb21ae96a" y="2462.906533"/>
     <use style="fill:#2ca02c;stroke:#2ca02c;" x="2744.866808" xlink:href="#m2fb21ae96a" y="1961.439196"/>
     <use style="fill:#2ca02c;stroke:#2ca02c;" x="2815.649049" xlink:href="#m2fb21ae96a" y="2128.594975"/>
     <use style="fill:#2ca02c;stroke:#2ca02c;" x="2886.43129" xlink:href="#m2fb21ae96a" y="1682.846231"/>
     <use style="fill:#2ca02c;stroke:#2ca02c;" x="2957.213531" xlink:href="#m2fb21ae96a" y="2072.876382"/>
     <use style="fill:#2ca02c;stroke:#2ca02c;" x="3027.995772" xlink:href="#m2fb21ae96a" y="1738.564824"/>
     <use style="fill:#2ca02c;stroke:#2ca02c;" x="3098.778013" xlink:href="#m2fb21ae96a" y="2017.157789"/>
     <use style="fill:#2ca02c;stroke:#2ca02c;" x="3169.560254" xlink:href="#m2fb21ae96a" y="1850.00201"/>
     <use style="fill:#2ca02c;stroke:#2ca02c;" x="3240.342495" xlink:href="#m2fb21ae96a" y="1794.283417"/>
     <use style="fill:#2ca02c;stroke:#2ca02c;" x="3311.124736" xlink:href="#m2fb21ae96a" y="1404.253266"/>
     <use style="fill:#2ca02c;stroke:#2ca02c;" x="3381.906977" xlink:href="#m2fb21ae96a" y="791.348744"/>
     <use style="fill:#2ca02c;stroke:#2ca02c;" x="3452.689218" xlink:href="#m2fb21ae96a" y="2184.313568"/>
     <use style="fill:#2ca02c;stroke:#2ca02c;" x="3523.471459" xlink:href="#m2fb21ae96a" y="1237.097487"/>
     <use style="fill:#2ca02c;stroke:#2ca02c;" x="3594.2537" xlink:href="#m2fb21ae96a" y="2072.876382"/>
     <use style="fill:#2ca02c;stroke:#2ca02c;" x="3665.035941" xlink:href="#m2fb21ae96a" y="1348.534673"/>
     <use style="fill:#2ca02c;stroke:#2ca02c;" x="3735.818182" xlink:href="#m2fb21ae96a" y="1571.409045"/>
    </g>
   </g>
   <g id="line2d_68">
    <path clip-path="url(#p5c91420bb3)" d="M 692.181818 1794.283417 
L 762.964059 2072.876382 
L 833.7463 2351.469347 
L 904.528541 2407.18794 
L 975.310782 2017.157789 
L 1046.093023 2295.750754 
L 1116.875264 2295.750754 
L 1187.657505 1961.439196 
L 1258.439746 2017.157789 
L 1329.221987 2128.594975 
L 1400.004228 2351.469347 
L 1470.786469 2240.032161 
L 1541.56871 2295.750754 
L 1612.350951 2184.313568 
L 1683.133192 2351.469347 
L 1753.915433 2240.032161 
L 1824.697674 2184.313568 
L 1895.479915 2462.906533 
L 1966.262156 2072.876382 
L 2037.044397 2072.876382 
L 2107.826638 2462.906533 
L 2178.608879 2184.313568 
L 2249.391121 2351.469347 
L 2320.173362 2240.032161 
L 2390.955603 2240.032161 
L 2461.737844 1515.690452 
L 2532.520085 1515.690452 
L 2603.302326 1348.534673 
L 2674.084567 2128.594975 
L 2744.866808 2240.032161 
L 2815.649049 2240.032161 
L 2886.43129 2462.906533 
L 2957.213531 2462.906533 
L 3027.995772 2407.18794 
L 3098.778013 2462.906533 
L 3169.560254 2462.906533 
L 3240.342495 2462.906533 
L 3311.124736 2407.18794 
L 3381.906977 2462.906533 
L 3452.689218 2407.18794 
L 3523.471459 2407.18794 
L 3594.2537 2407.18794 
L 3665.035941 2407.18794 
L 3735.818182 2462.906533 
" style="fill:none;stroke:#d62728;stroke-linecap:square;stroke-width:1.5;"/>
    <defs>
     <path d="M 0 3 
C 0.795609 3 1.55874 2.683901 2.12132 2.12132 
C 2.683901 1.55874 3 0.795609 3 0 
C 3 -0.795609 2.683901 -1.55874 2.12132 -2.12132 
C 1.55874 -2.683901 0.795609 -3 0 -3 
C -0.795609 -3 -1.55874 -2.683901 -2.12132 -2.12132 
C -2.683901 -1.55874 -3 -0.795609 -3 0 
C -3 0.795609 -2.683901 1.55874 -2.12132 2.12132 
C -1.55874 2.683901 -0.795609 3 0 3 
z
" id="mf73e0e1f16" style="stroke:#d62728;"/>
    </defs>
    <g clip-path="url(#p5c91420bb3)">
     <use style="fill:#d62728;stroke:#d62728;" x="692.181818" xlink:href="#mf73e0e1f16" y="1794.283417"/>
     <use style="fill:#d62728;stroke:#d62728;" x="762.964059" xlink:href="#mf73e0e1f16" y="2072.876382"/>
     <use style="fill:#d62728;stroke:#d62728;" x="833.7463" xlink:href="#mf73e0e1f16" y="2351.469347"/>
     <use style="fill:#d62728;stroke:#d62728;" x="904.528541" xlink:href="#mf73e0e1f16" y="2407.18794"/>
     <use style="fill:#d62728;stroke:#d62728;" x="975.310782" xlink:href="#mf73e0e1f16" y="2017.157789"/>
     <use style="fill:#d62728;stroke:#d62728;" x="1046.093023" xlink:href="#mf73e0e1f16" y="2295.750754"/>
     <use style="fill:#d62728;stroke:#d62728;" x="1116.875264" xlink:href="#mf73e0e1f16" y="2295.750754"/>
     <use style="fill:#d62728;stroke:#d62728;" x="1187.657505" xlink:href="#mf73e0e1f16" y="1961.439196"/>
     <use style="fill:#d62728;stroke:#d62728;" x="1258.439746" xlink:href="#mf73e0e1f16" y="2017.157789"/>
     <use style="fill:#d62728;stroke:#d62728;" x="1329.221987" xlink:href="#mf73e0e1f16" y="2128.594975"/>
     <use style="fill:#d62728;stroke:#d62728;" x="1400.004228" xlink:href="#mf73e0e1f16" y="2351.469347"/>
     <use style="fill:#d62728;stroke:#d62728;" x="1470.786469" xlink:href="#mf73e0e1f16" y="2240.032161"/>
     <use style="fill:#d62728;stroke:#d62728;" x="1541.56871" xlink:href="#mf73e0e1f16" y="2295.750754"/>
     <use style="fill:#d62728;stroke:#d62728;" x="1612.350951" xlink:href="#mf73e0e1f16" y="2184.313568"/>
     <use style="fill:#d62728;stroke:#d62728;" x="1683.133192" xlink:href="#mf73e0e1f16" y="2351.469347"/>
     <use style="fill:#d62728;stroke:#d62728;" x="1753.915433" xlink:href="#mf73e0e1f16" y="2240.032161"/>
     <use style="fill:#d62728;stroke:#d62728;" x="1824.697674" xlink:href="#mf73e0e1f16" y="2184.313568"/>
     <use style="fill:#d62728;stroke:#d62728;" x="1895.479915" xlink:href="#mf73e0e1f16" y="2462.906533"/>
     <use style="fill:#d62728;stroke:#d62728;" x="1966.262156" xlink:href="#mf73e0e1f16" y="2072.876382"/>
     <use style="fill:#d62728;stroke:#d62728;" x="2037.044397" xlink:href="#mf73e0e1f16" y="2072.876382"/>
     <use style="fill:#d62728;stroke:#d62728;" x="2107.826638" xlink:href="#mf73e0e1f16" y="2462.906533"/>
     <use style="fill:#d62728;stroke:#d62728;" x="2178.608879" xlink:href="#mf73e0e1f16" y="2184.313568"/>
     <use style="fill:#d62728;stroke:#d62728;" x="2249.391121" xlink:href="#mf73e0e1f16" y="2351.469347"/>
     <use style="fill:#d62728;stroke:#d62728;" x="2320.173362" xlink:href="#mf73e0e1f16" y="2240.032161"/>
     <use style="fill:#d62728;stroke:#d62728;" x="2390.955603" xlink:href="#mf73e0e1f16" y="2240.032161"/>
     <use style="fill:#d62728;stroke:#d62728;" x="2461.737844" xlink:href="#mf73e0e1f16" y="1515.690452"/>
     <use style="fill:#d62728;stroke:#d62728;" x="2532.520085" xlink:href="#mf73e0e1f16" y="1515.690452"/>
     <use style="fill:#d62728;stroke:#d62728;" x="2603.302326" xlink:href="#mf73e0e1f16" y="1348.534673"/>
     <use style="fill:#d62728;stroke:#d62728;" x="2674.084567" xlink:href="#mf73e0e1f16" y="2128.594975"/>
     <use style="fill:#d62728;stroke:#d62728;" x="2744.866808" xlink:href="#mf73e0e1f16" y="2240.032161"/>
     <use style="fill:#d62728;stroke:#d62728;" x="2815.649049" xlink:href="#mf73e0e1f16" y="2240.032161"/>
     <use style="fill:#d62728;stroke:#d62728;" x="2886.43129" xlink:href="#mf73e0e1f16" y="2462.906533"/>
     <use style="fill:#d62728;stroke:#d62728;" x="2957.213531" xlink:href="#mf73e0e1f16" y="2462.906533"/>
     <use style="fill:#d62728;stroke:#d62728;" x="3027.995772" xlink:href="#mf73e0e1f16" y="2407.18794"/>
     <use style="fill:#d62728;stroke:#d62728;" x="3098.778013" xlink:href="#mf73e0e1f16" y="2462.906533"/>
     <use style="fill:#d62728;stroke:#d62728;" x="3169.560254" xlink:href="#mf73e0e1f16" y="2462.906533"/>
     <use style="fill:#d62728;stroke:#d62728;" x="3240.342495" xlink:href="#mf73e0e1f16" y="2462.906533"/>
     <use style="fill:#d62728;stroke:#d62728;" x="3311.124736" xlink:href="#mf73e0e1f16" y="2407.18794"/>
     <use style="fill:#d62728;stroke:#d62728;" x="3381.906977" xlink:href="#mf73e0e1f16" y="2462.906533"/>
     <use style="fill:#d62728;stroke:#d62728;" x="3452.689218" xlink:href="#mf73e0e1f16" y="2407.18794"/>
     <use style="fill:#d62728;stroke:#d62728;" x="3523.471459" xlink:href="#mf73e0e1f16" y="2407.18794"/>
     <use style="fill:#d62728;stroke:#d62728;" x="3594.2537" xlink:href="#mf73e0e1f16" y="2407.18794"/>
     <use style="fill:#d62728;stroke:#d62728;" x="3665.035941" xlink:href="#mf73e0e1f16" y="2407.18794"/>
     <use style="fill:#d62728;stroke:#d62728;" x="3735.818182" xlink:href="#mf73e0e1f16" y="2462.906533"/>
    </g>
   </g>
   <g id="patch_3">
    <path d="M 540 2563.2 
L 540 345.6 
" style="fill:none;stroke:#000000;stroke-linecap:square;stroke-linejoin:miter;stroke-width:0.8;"/>
   </g>
   <g id="patch_4">
    <path d="M 3888 2563.2 
L 3888 345.6 
" style="fill:none;stroke:#000000;stroke-linecap:square;stroke-linejoin:miter;stroke-width:0.8;"/>
   </g>
   <g id="patch_5">
    <path d="M 540 2563.2 
L 3888 2563.2 
" style="fill:none;stroke:#000000;stroke-linecap:square;stroke-linejoin:miter;stroke-width:0.8;"/>
   </g>
   <g id="patch_6">
    <path d="M 540 345.6 
L 3888 345.6 
" style="fill:none;stroke:#000000;stroke-linecap:square;stroke-linejoin:miter;stroke-width:0.8;"/>
   </g>
   <g id="text_23">
    <!-- 4人の出演回数推移 -->
    <g transform="translate(1874 335.2875)scale(0.8 -0.8)">
     <defs>
      <path d="M 29.296875 0.78125 
L 29.296875 9.765625 
L 29.296875 18.75 
L 3.125 18.75 
L 3.125 26.171875 
L 29.296875 76.953125 
L 38.28125 76.953125 
L 38.28125 26.171875 
L 46.484375 26.171875 
L 46.484375 18.75 
L 38.28125 18.75 
L 38.28125 0.78125 
z
M 29.296875 26.171875 
L 29.296875 60.546875 
L 11.71875 26.171875 
z
" id="MS-Gothic-52"/>
      <path d="M 44.53125 76.953125 
L 53.125 76.953125 
Q 57.03125 76.171875 53.515625 73.828125 
L 53.515625 57.8125 
Q 56.25 20.3125 93.359375 4.296875 
L 88.671875 -5.46875 
Q 61.71875 6.25 50.390625 37.109375 
Q 42.1875 7.8125 13.28125 -5.46875 
L 7.421875 3.125 
Q 44.53125 17.578125 44.53125 56.640625 
z
" id="MS-Gothic-20154"/>
      <path d="M 53.90625 55.078125 
Q 47.265625 16.015625 37.890625 6.640625 
Q 32.8125 1.5625 27.34375 1.5625 
Q 21.09375 1.5625 17.578125 5.078125 
Q 8.203125 14.453125 8.203125 28.515625 
Q 8.203125 45.703125 20.3125 57.8125 
Q 33.59375 71.09375 52.734375 71.09375 
Q 69.921875 71.09375 79.6875 61.328125 
Q 90.625 50.390625 90.625 35.546875 
Q 90.625 19.53125 80.46875 9.375 
Q 73.828125 2.734375 60.15625 -3.515625 
L 51.953125 4.6875 
Q 65.625 8.984375 73.4375 16.796875 
Q 80.859375 24.21875 80.859375 34.765625 
Q 80.859375 47.265625 72.65625 55.46875 
Q 64.453125 63.671875 46.875 62.890625 
L 53.90625 59.375 
Q 58.59375 57.421875 53.90625 55.078125 
z
M 44.921875 62.5 
Q 34.765625 60.15625 27.34375 52.734375 
Q 17.1875 42.578125 17.1875 27.734375 
Q 17.1875 18.75 23.046875 12.890625 
Q 24.21875 11.71875 26.5625 11.71875 
Q 28.90625 11.71875 31.640625 14.453125 
Q 40.625 23.4375 44.921875 62.5 
z
" id="MS-Gothic-12398"/>
      <path d="M 32.8125 46.875 
Q 45.703125 58.984375 52.734375 82.03125 
L 60.546875 79.6875 
Q 62.5 78.125 59.765625 77.734375 
Q 56.640625 69.921875 53.515625 63.28125 
L 65.234375 63.28125 
Q 69.53125 72.265625 71.875 79.296875 
L 79.296875 76.5625 
Q 80.859375 75 78.125 74.609375 
Q 75.390625 68.359375 72.65625 63.28125 
L 92.578125 63.28125 
L 92.578125 55.859375 
L 72.65625 55.859375 
L 72.65625 43.75 
L 88.671875 43.75 
L 88.671875 36.328125 
L 72.65625 36.328125 
L 72.65625 23.828125 
L 88.671875 23.828125 
L 88.671875 16.40625 
L 72.65625 16.40625 
L 72.65625 1.953125 
L 94.921875 1.953125 
L 94.921875 -5.46875 
L 51.953125 -5.46875 
L 51.953125 -8.984375 
L 44.140625 -8.984375 
L 44.140625 47.65625 
Q 41.40625 43.75 38.28125 40.625 
z
M 13.28125 -8.203125 
L 11.71875 -0.78125 
L 18.359375 -0.78125 
Q 19.921875 -0.78125 19.921875 0.78125 
L 19.921875 25 
L 9.765625 22.65625 
Q 9.375 19.921875 7.8125 21.484375 
L 6.25 30.46875 
L 19.921875 33.203125 
L 19.921875 53.90625 
L 7.8125 53.90625 
L 7.8125 61.328125 
L 19.921875 61.328125 
L 19.921875 81.25 
L 27.34375 81.25 
Q 30.46875 80.859375 27.734375 78.90625 
L 27.734375 61.328125 
L 37.890625 61.328125 
L 37.890625 53.90625 
L 27.734375 53.90625 
L 27.734375 34.765625 
L 37.890625 37.5 
L 39.0625 30.46875 
L 27.734375 26.953125 
L 27.734375 -1.953125 
Q 27.734375 -8.203125 21.484375 -8.203125 
z
M 51.953125 1.953125 
L 64.84375 1.953125 
L 64.84375 16.40625 
L 51.953125 16.40625 
z
M 51.953125 23.828125 
L 64.84375 23.828125 
L 64.84375 36.328125 
L 51.953125 36.328125 
z
M 51.953125 43.75 
L 64.84375 43.75 
L 64.84375 55.859375 
L 51.953125 55.859375 
z
" id="MS-Gothic-25512"/>
      <path d="M 83.203125 70.3125 
L 84.375 71.875 
L 90.625 66.796875 
L 89.453125 65.625 
Q 79.296875 48.046875 69.53125 42.1875 
L 73.4375 41.015625 
Q 76.171875 39.84375 73.046875 38.671875 
Q 72.265625 35.9375 71.09375 33.984375 
L 87.890625 33.984375 
L 89.0625 35.546875 
L 96.09375 30.46875 
L 94.53125 28.90625 
Q 82.03125 -4.296875 43.75 -8.59375 
L 40.625 -1.171875 
Q 58.984375 0.78125 69.53125 8.59375 
Q 64.0625 14.0625 58.59375 17.96875 
Q 53.515625 13.671875 44.921875 10.15625 
L 41.40625 17.1875 
Q 60.546875 25 66.40625 41.015625 
Q 60.546875 35.546875 45.3125 31.640625 
L 41.796875 38.671875 
Q 56.640625 41.796875 64.0625 46.875 
Q 60.15625 51.5625 54.6875 55.078125 
Q 51.953125 52.34375 49.21875 50.390625 
L 43.75 56.25 
Q 56.640625 67.1875 60.15625 79.6875 
L 67.1875 77.34375 
Q 69.921875 76.171875 66.796875 75 
Q 66.40625 72.65625 64.84375 70.3125 
z
M 30.078125 55.078125 
L 42.96875 55.078125 
L 42.96875 47.65625 
L 30.078125 47.65625 
L 30.078125 37.890625 
Q 37.890625 34.375 44.921875 27.34375 
L 39.84375 20.3125 
Q 33.59375 26.5625 30.078125 29.296875 
L 30.078125 -8.59375 
L 22.265625 -8.59375 
L 22.265625 30.078125 
Q 19.921875 22.265625 9.375 10.15625 
L 3.515625 17.578125 
Q 17.96875 31.25 21.484375 47.65625 
L 6.25 47.65625 
L 6.25 55.078125 
L 22.265625 55.078125 
L 22.265625 67.96875 
Q 14.453125 66.796875 8.203125 66.015625 
L 6.25 73.4375 
Q 21.875 75 38.671875 79.6875 
L 42.96875 73.828125 
Q 44.53125 71.484375 41.015625 72.265625 
Q 35.546875 70.703125 30.078125 69.53125 
z
M 58.59375 59.765625 
Q 64.453125 56.640625 69.921875 51.953125 
Q 75.78125 57.421875 79.6875 64.0625 
L 61.71875 64.0625 
Q 60.15625 61.328125 58.59375 59.765625 
z
M 62.890625 22.65625 
Q 68.359375 19.53125 75.390625 13.28125 
Q 81.25 17.578125 85.546875 27.734375 
L 67.578125 27.734375 
Q 65.234375 24.609375 62.890625 22.65625 
z
" id="MS-Gothic-31227"/>
     </defs>
     <use xlink:href="#MS-Gothic-52"/>
     <use x="50" xlink:href="#MS-Gothic-20154"/>
     <use x="150" xlink:href="#MS-Gothic-12398"/>
     <use x="250" xlink:href="#MS-Gothic-20986"/>
     <use x="350" xlink:href="#MS-Gothic-28436"/>
     <use x="450" xlink:href="#MS-Gothic-22238"/>
     <use x="550" xlink:href="#MS-Gothic-25968"/>
     <use x="650" xlink:href="#MS-Gothic-25512"/>
     <use x="750" xlink:href="#MS-Gothic-31227"/>
    </g>
   </g>
  </g>
 </g>
 <defs>
  <clipPath id="p5c91420bb3">
   <rect height="2217.6" width="3348" x="540" y="345.6"/>
  </clipPath>
 </defs>
</svg>
